G04*
G04 #@! TF.GenerationSoftware,Altium Limited,Altium Designer,19.1.9 (167)*
G04*
G04 Layer_Physical_Order=1*
G04 Layer_Color=255*
%FSLAX43Y43*%
%MOMM*%
G71*
G01*
G75*
%ADD14C,0.300*%
%ADD29C,1.250*%
%ADD30R,1.250X1.250*%
%ADD31C,1.150*%
%ADD32R,1.150X1.150*%
%ADD37R,1.150X1.150*%
%ADD46R,0.800X0.800*%
%ADD47R,1.300X1.800*%
%ADD48R,1.000X1.800*%
%ADD49R,0.900X0.700*%
%ADD50R,0.600X0.700*%
%ADD51R,1.000X0.600*%
%ADD52R,0.900X0.800*%
%ADD53R,3.500X2.000*%
%ADD54R,0.700X0.900*%
%ADD55R,0.800X0.900*%
%ADD56R,2.000X3.500*%
%ADD57C,0.381*%
%ADD58C,0.900*%
%ADD59C,1.000*%
%ADD60C,0.800*%
%ADD61C,0.700*%
%ADD62C,4.000*%
%ADD63R,1.651X1.651*%
%ADD64C,1.651*%
%ADD65R,1.600X1.600*%
%ADD66C,1.600*%
%ADD67C,1.159*%
%ADD68R,1.159X1.159*%
%ADD69C,1.700*%
%ADD70R,1.700X1.700*%
%ADD71C,1.050*%
%ADD72R,1.050X1.050*%
%ADD73C,1.524*%
%ADD74C,1.270*%
G36*
X60599Y57396D02*
X60630Y57273D01*
X60570Y57241D01*
X60235Y56965D01*
X59959Y56630D01*
X59755Y56247D01*
X59629Y55832D01*
X59586Y55400D01*
X59629Y54968D01*
X59755Y54553D01*
X59959Y54170D01*
X60235Y53835D01*
X60570Y53559D01*
X60953Y53355D01*
X61368Y53229D01*
X61800Y53186D01*
X62232Y53229D01*
X62647Y53355D01*
X63030Y53559D01*
X63365Y53835D01*
X63641Y54170D01*
X63673Y54230D01*
X63796Y54199D01*
X63796Y3401D01*
X63673Y3370D01*
X63641Y3430D01*
X63365Y3765D01*
X63030Y4041D01*
X62647Y4245D01*
X62232Y4371D01*
X61800Y4414D01*
X61368Y4371D01*
X60953Y4245D01*
X60570Y4041D01*
X60235Y3765D01*
X59959Y3430D01*
X59755Y3047D01*
X59629Y2632D01*
X59586Y2200D01*
X59629Y1768D01*
X59755Y1353D01*
X59959Y970D01*
X60235Y635D01*
X60570Y359D01*
X60630Y327D01*
X60599Y204D01*
X3401Y204D01*
X3370Y327D01*
X3430Y359D01*
X3765Y635D01*
X4041Y970D01*
X4245Y1353D01*
X4371Y1768D01*
X4414Y2200D01*
X4371Y2632D01*
X4245Y3047D01*
X4041Y3430D01*
X3765Y3765D01*
X3430Y4041D01*
X3047Y4245D01*
X2632Y4371D01*
X2200Y4414D01*
X1768Y4371D01*
X1353Y4245D01*
X970Y4041D01*
X635Y3765D01*
X359Y3430D01*
X327Y3370D01*
X204Y3401D01*
X204Y54099D01*
X327Y54130D01*
X359Y54070D01*
X635Y53735D01*
X970Y53459D01*
X1353Y53255D01*
X1768Y53129D01*
X2200Y53086D01*
X2632Y53129D01*
X3047Y53255D01*
X3430Y53459D01*
X3765Y53735D01*
X4041Y54070D01*
X4245Y54453D01*
X4371Y54868D01*
X4379Y54943D01*
X5306Y54963D01*
X5397Y54874D01*
Y54147D01*
X9303D01*
Y56553D01*
X5397D01*
Y55767D01*
X4367Y55746D01*
X4245Y56147D01*
X4041Y56530D01*
X3765Y56865D01*
X3430Y57141D01*
X3190Y57269D01*
X3222Y57396D01*
X60599Y57396D01*
D02*
G37*
%LPC*%
G36*
X34000Y56645D02*
X33781Y56617D01*
X33577Y56532D01*
X33402Y56398D01*
X33268Y56223D01*
X33183Y56019D01*
X33155Y55800D01*
X33183Y55581D01*
X33268Y55377D01*
X33402Y55202D01*
X33577Y55068D01*
X33599Y55059D01*
Y54853D01*
X33397D01*
Y53547D01*
X34603D01*
Y54853D01*
X34401D01*
Y55059D01*
X34423Y55068D01*
X34598Y55202D01*
X34732Y55377D01*
X34817Y55581D01*
X34845Y55800D01*
X34817Y56019D01*
X34732Y56223D01*
X34598Y56398D01*
X34423Y56532D01*
X34219Y56617D01*
X34000Y56645D01*
D02*
G37*
G36*
X46803Y54553D02*
X42897D01*
Y52272D01*
X42897Y52241D01*
X42893Y52155D01*
X42876Y52140D01*
X42794Y52126D01*
X42736Y52122D01*
X42723Y52132D01*
X42519Y52217D01*
X42300Y52245D01*
X42081Y52217D01*
X41877Y52132D01*
X41702Y51998D01*
X41630Y51904D01*
X41503Y51947D01*
Y51953D01*
X40297D01*
Y50647D01*
X40416D01*
X40497Y50553D01*
X40497Y50520D01*
Y49247D01*
X41603D01*
Y49527D01*
X44165D01*
X44227Y49400D01*
X44168Y49323D01*
X44083Y49119D01*
X44054Y48900D01*
X44083Y48681D01*
X44113Y48609D01*
X44043Y48503D01*
X42947D01*
Y48326D01*
X42729D01*
X42598Y48498D01*
X42423Y48632D01*
X42219Y48717D01*
X42000Y48745D01*
X41781Y48717D01*
X41577Y48632D01*
X41402Y48498D01*
X41268Y48323D01*
X41183Y48119D01*
X41155Y47900D01*
X41183Y47681D01*
X41268Y47477D01*
X41402Y47302D01*
X41577Y47168D01*
X41668Y47130D01*
X41647Y47003D01*
X41647D01*
Y45897D01*
X44253D01*
Y46049D01*
X44669D01*
X44823Y46079D01*
X44953Y46166D01*
X45184Y46397D01*
X45271Y46527D01*
X45301Y46681D01*
Y48159D01*
X45323Y48168D01*
X45498Y48302D01*
X45632Y48477D01*
X45717Y48681D01*
X45745Y48900D01*
X45717Y49119D01*
X45632Y49323D01*
X45573Y49400D01*
X45635Y49527D01*
X45860D01*
X50099Y45289D01*
Y35803D01*
X49880D01*
X49847Y35803D01*
X49720Y35803D01*
X49501D01*
Y36200D01*
X49471Y36354D01*
X49405Y36453D01*
X49417Y36481D01*
X49445Y36700D01*
X49417Y36919D01*
X49332Y37123D01*
X49198Y37298D01*
X49023Y37432D01*
X48819Y37517D01*
X48600Y37545D01*
X48381Y37517D01*
X48177Y37432D01*
X48002Y37298D01*
X47868Y37123D01*
X47783Y36919D01*
X47755Y36700D01*
X47783Y36481D01*
X47868Y36277D01*
X48002Y36102D01*
X48177Y35968D01*
X48357Y35893D01*
X48447Y35803D01*
Y34697D01*
X49720D01*
X49753Y34697D01*
X49880Y34697D01*
X51153D01*
Y35803D01*
X50901D01*
Y45455D01*
X50871Y45608D01*
X50784Y45739D01*
X46310Y50212D01*
X46180Y50299D01*
X46026Y50330D01*
X45322D01*
X45297Y50457D01*
X45323Y50468D01*
X45498Y50602D01*
X45632Y50777D01*
X45717Y50981D01*
X45745Y51200D01*
X45717Y51419D01*
X45632Y51623D01*
X45498Y51798D01*
X45323Y51932D01*
X45301Y51941D01*
Y52147D01*
X46803D01*
Y54553D01*
D02*
G37*
G36*
X13553Y52303D02*
X9647D01*
Y50314D01*
X9374Y50041D01*
X5247D01*
X5199Y50159D01*
X5034Y50374D01*
X4819Y50539D01*
X4569Y50642D01*
X4300Y50678D01*
X4031Y50642D01*
X3781Y50539D01*
X3566Y50374D01*
X3401Y50159D01*
X3298Y49909D01*
X3262Y49640D01*
X3298Y49371D01*
X3401Y49121D01*
X3566Y48906D01*
X3781Y48741D01*
X4031Y48638D01*
X4300Y48602D01*
X4569Y48638D01*
X4819Y48741D01*
X5034Y48906D01*
X5199Y49121D01*
X5247Y49239D01*
X9540D01*
X9694Y49269D01*
X9824Y49356D01*
X10364Y49897D01*
X13553D01*
Y50799D01*
X13897D01*
Y50447D01*
X15003D01*
Y51753D01*
X13897D01*
Y51601D01*
X13553D01*
Y52303D01*
D02*
G37*
G36*
X31553Y55903D02*
X27647D01*
Y53497D01*
X29199D01*
Y53200D01*
X29229Y53046D01*
X29316Y52916D01*
X31436Y50796D01*
X31566Y50709D01*
X31720Y50679D01*
X34265D01*
X34314Y50561D01*
X32316Y48564D01*
X32229Y48434D01*
X32199Y48280D01*
Y40153D01*
X31947D01*
Y39614D01*
X30940Y38608D01*
X30703D01*
Y39503D01*
X30278D01*
X30218Y39578D01*
X30270Y39697D01*
X30703D01*
Y40803D01*
X30601D01*
Y42000D01*
X30571Y42154D01*
X30484Y42284D01*
X29084Y43684D01*
X28954Y43771D01*
X28800Y43801D01*
X28404D01*
X28336Y43966D01*
X28175Y44175D01*
X27966Y44336D01*
X27722Y44437D01*
X27460Y44472D01*
X27198Y44437D01*
X26954Y44336D01*
X26745Y44175D01*
X26584Y43966D01*
X26483Y43722D01*
X26448Y43460D01*
X26483Y43198D01*
X26584Y42954D01*
X26745Y42745D01*
X26954Y42584D01*
X27198Y42483D01*
X27460Y42448D01*
X27722Y42483D01*
X27966Y42584D01*
X28175Y42745D01*
X28336Y42954D01*
X28355Y42999D01*
X28634D01*
X29799Y41834D01*
Y40803D01*
X29697D01*
Y40237D01*
X29579Y40188D01*
X29279Y40489D01*
X29317Y40581D01*
X29345Y40800D01*
X29317Y41019D01*
X29232Y41223D01*
X29098Y41398D01*
X28923Y41532D01*
X28719Y41617D01*
X28500Y41645D01*
X28281Y41617D01*
X28077Y41532D01*
X27902Y41398D01*
X27768Y41223D01*
X27683Y41019D01*
X27655Y40800D01*
X27683Y40581D01*
X27768Y40377D01*
X27902Y40202D01*
X28077Y40068D01*
X28281Y39983D01*
X28500Y39955D01*
X28657Y39975D01*
X29628Y39004D01*
X29582Y38882D01*
X29570Y38876D01*
X29443Y38901D01*
X29441D01*
X29432Y38923D01*
X29298Y39098D01*
X29123Y39232D01*
X28919Y39317D01*
X28700Y39345D01*
X28481Y39317D01*
X28277Y39232D01*
X28102Y39098D01*
X27968Y38923D01*
X27883Y38719D01*
X27855Y38500D01*
X27883Y38281D01*
X27968Y38077D01*
X28102Y37902D01*
X28126Y37884D01*
X28083Y37757D01*
X16056D01*
X15902Y37727D01*
X15772Y37640D01*
X13816Y35684D01*
X13729Y35554D01*
X13699Y35400D01*
Y33703D01*
X13447D01*
Y32597D01*
X14753D01*
Y33703D01*
X14501D01*
Y35234D01*
X16222Y36954D01*
X32202D01*
X32265Y36827D01*
X32157Y36687D01*
X32122Y36601D01*
X30050D01*
X29896Y36571D01*
X29766Y36484D01*
X27086Y33803D01*
X26347D01*
Y32697D01*
X27653D01*
Y33236D01*
X30216Y35799D01*
X32122D01*
X32157Y35713D01*
X32312Y35512D01*
X32513Y35357D01*
X32748Y35260D01*
X32982Y35229D01*
X33051Y35119D01*
X31534Y33601D01*
X29953D01*
Y33753D01*
X28647D01*
Y32647D01*
X29953D01*
Y32799D01*
X31700D01*
X31854Y32829D01*
X31984Y32916D01*
X33533Y34466D01*
X33654Y34406D01*
X33626Y34200D01*
X33660Y33948D01*
X33757Y33713D01*
X33912Y33512D01*
X34113Y33357D01*
X34298Y33280D01*
X34273Y33153D01*
X34097D01*
Y31847D01*
X34249D01*
Y28950D01*
X34279Y28796D01*
X34366Y28666D01*
X39316Y23716D01*
X39446Y23629D01*
X39600Y23599D01*
X41759D01*
X41768Y23577D01*
X41902Y23402D01*
X41993Y23333D01*
X41950Y23206D01*
X37904D01*
X37751Y23175D01*
X37620Y23088D01*
X37090Y22557D01*
X36963Y22610D01*
Y22614D01*
X35397D01*
Y22201D01*
X33941D01*
X33932Y22223D01*
X33798Y22398D01*
X33623Y22532D01*
X33419Y22617D01*
X33200Y22645D01*
X32981Y22617D01*
X32777Y22532D01*
X32602Y22398D01*
X32468Y22223D01*
X32383Y22019D01*
X32355Y21800D01*
X32383Y21581D01*
X32468Y21377D01*
X32602Y21202D01*
X32777Y21068D01*
X32981Y20983D01*
X33200Y20955D01*
X33419Y20983D01*
X33623Y21068D01*
X33798Y21202D01*
X33932Y21377D01*
X33941Y21399D01*
X35397D01*
Y21048D01*
X35779D01*
Y18320D01*
X35809Y18166D01*
X35896Y18036D01*
X36316Y17616D01*
X36446Y17529D01*
X36600Y17499D01*
X36697D01*
Y17247D01*
X37803D01*
Y18547D01*
X37803D01*
Y19853D01*
X37651D01*
Y21984D01*
X37903Y22235D01*
X38010Y22163D01*
X37957Y22035D01*
X37931Y21831D01*
X37957Y21627D01*
X38036Y21436D01*
X38162Y21273D01*
X38325Y21147D01*
X38334Y21144D01*
Y19853D01*
X38197D01*
Y18553D01*
X38197D01*
Y17247D01*
X39303D01*
Y17247D01*
X39409Y17297D01*
X39599D01*
Y17141D01*
X39577Y17132D01*
X39402Y16998D01*
X39268Y16823D01*
X39259Y16801D01*
X38800D01*
X38646Y16771D01*
X38516Y16684D01*
X36816Y14984D01*
X36729Y14854D01*
X36699Y14700D01*
Y13803D01*
X35047D01*
Y11397D01*
X38953D01*
Y13803D01*
X37501D01*
Y14534D01*
X38966Y15999D01*
X39259D01*
X39268Y15977D01*
X39402Y15802D01*
X39577Y15668D01*
X39781Y15583D01*
X40000Y15555D01*
X40219Y15583D01*
X40423Y15668D01*
X40598Y15802D01*
X40732Y15977D01*
X40817Y16181D01*
X40845Y16400D01*
X40817Y16619D01*
X40732Y16823D01*
X40598Y16998D01*
X40423Y17132D01*
X40401Y17141D01*
Y17297D01*
X41953D01*
Y17836D01*
X42614Y18496D01*
X42946D01*
Y19200D01*
X43200D01*
Y19454D01*
X43854D01*
Y19904D01*
X43673D01*
Y20055D01*
X44014Y20396D01*
X44101Y20526D01*
X44131Y20680D01*
Y21066D01*
X44220Y21103D01*
X44394Y21237D01*
X44528Y21411D01*
X44597Y21577D01*
X43800D01*
Y22085D01*
X44597D01*
X44528Y22251D01*
X44499Y22289D01*
X44555Y22403D01*
X45632D01*
X45695Y22276D01*
X45656Y22226D01*
X45577Y22035D01*
X45551Y21831D01*
X45577Y21627D01*
X45656Y21436D01*
X45782Y21273D01*
X45945Y21147D01*
X46136Y21068D01*
X46340Y21042D01*
X46441Y21055D01*
X46699Y20797D01*
Y19803D01*
X45203D01*
Y19853D01*
X43997D01*
Y18917D01*
X43981Y18909D01*
X43919Y18946D01*
X43454D01*
Y18496D01*
X43475D01*
X43546Y18369D01*
X43483Y18219D01*
X43454Y18000D01*
X43483Y17781D01*
X43568Y17577D01*
X43702Y17402D01*
X43877Y17268D01*
X44081Y17183D01*
X44300Y17155D01*
X44519Y17183D01*
X44723Y17268D01*
X44898Y17402D01*
X45020Y17561D01*
X45077Y17557D01*
X45147Y17526D01*
Y17197D01*
X45253D01*
X45296Y17070D01*
X45202Y16998D01*
X45068Y16823D01*
X44983Y16619D01*
X44955Y16400D01*
X44983Y16181D01*
X45068Y15977D01*
X45202Y15802D01*
X45377Y15668D01*
X45581Y15583D01*
X45800Y15555D01*
X46019Y15583D01*
X46223Y15668D01*
X46398Y15802D01*
X46532Y15977D01*
X46617Y16181D01*
X46645Y16400D01*
X46617Y16619D01*
X46532Y16823D01*
X46398Y16998D01*
X46304Y17070D01*
X46347Y17197D01*
X47747D01*
Y17197D01*
X49053D01*
Y17349D01*
X56984D01*
X58846Y15486D01*
X58798Y15369D01*
X58762Y15100D01*
X58798Y14831D01*
X58901Y14581D01*
X59066Y14366D01*
X59281Y14201D01*
X59531Y14098D01*
X59800Y14062D01*
X60069Y14098D01*
X60319Y14201D01*
X60534Y14366D01*
X60699Y14581D01*
X60802Y14831D01*
X60838Y15100D01*
X60802Y15369D01*
X60699Y15619D01*
X60534Y15834D01*
X60319Y15999D01*
X60069Y16102D01*
X59800Y16138D01*
X59531Y16102D01*
X59414Y16054D01*
X59025Y16443D01*
X59073Y16560D01*
X59546D01*
Y17386D01*
X58721D01*
Y16913D01*
X58603Y16865D01*
X57434Y18034D01*
X57304Y18121D01*
X57150Y18151D01*
X49053D01*
Y18303D01*
X47753D01*
Y18303D01*
X45219D01*
X45147Y18303D01*
X45051Y18378D01*
X45032Y18423D01*
X45024Y18433D01*
X45080Y18547D01*
X45203D01*
Y18697D01*
X47747D01*
Y18697D01*
X49053D01*
Y19463D01*
X49171Y19512D01*
X49397Y19286D01*
Y18547D01*
X50503D01*
Y19853D01*
X49964D01*
X48901Y20916D01*
X48947Y21050D01*
X49084Y21068D01*
X49275Y21147D01*
X49438Y21273D01*
X49559Y21430D01*
X50741D01*
X50862Y21273D01*
X51009Y21160D01*
Y19853D01*
X50897D01*
Y18547D01*
X52003D01*
Y19853D01*
X51811D01*
Y21146D01*
X51815Y21147D01*
X51978Y21273D01*
X52104Y21436D01*
X52183Y21627D01*
X52209Y21831D01*
X52183Y22035D01*
X52104Y22226D01*
X51978Y22389D01*
X51815Y22515D01*
X51624Y22594D01*
X51420Y22620D01*
X51216Y22594D01*
X51025Y22515D01*
X50862Y22389D01*
X50741Y22232D01*
X49559D01*
X49438Y22389D01*
X49275Y22515D01*
X49084Y22594D01*
X48880Y22620D01*
X48676Y22594D01*
X48485Y22515D01*
X48322Y22389D01*
X48274Y22327D01*
X48118Y22332D01*
X48084Y22384D01*
X47380Y23088D01*
X47249Y23175D01*
X47096Y23206D01*
X43050D01*
X43007Y23333D01*
X43098Y23402D01*
X43232Y23577D01*
X43317Y23781D01*
X43345Y24000D01*
X43317Y24219D01*
X43232Y24423D01*
X43098Y24598D01*
X42923Y24732D01*
X42719Y24817D01*
X42500Y24845D01*
X42281Y24817D01*
X42077Y24732D01*
X41902Y24598D01*
X41768Y24423D01*
X41759Y24401D01*
X39766D01*
X35051Y29116D01*
Y31847D01*
X35203D01*
Y33153D01*
X34927D01*
X34902Y33280D01*
X35087Y33357D01*
X35288Y33512D01*
X35443Y33713D01*
X35520Y33898D01*
X35647Y33897D01*
Y33897D01*
X39036D01*
X39499Y33434D01*
Y30249D01*
X39372Y30206D01*
X39278Y30327D01*
X39115Y30453D01*
X38924Y30532D01*
X38720Y30558D01*
X38516Y30532D01*
X38325Y30453D01*
X38162Y30327D01*
X38041Y30170D01*
X36859D01*
X36738Y30327D01*
X36575Y30453D01*
X36566Y30456D01*
Y31847D01*
X36703D01*
Y33153D01*
X35597D01*
Y31847D01*
X35764D01*
Y30436D01*
X35622Y30327D01*
X35496Y30164D01*
X35417Y29973D01*
X35391Y29769D01*
X35417Y29565D01*
X35496Y29374D01*
X35622Y29211D01*
X35785Y29085D01*
X35976Y29006D01*
X36180Y28980D01*
X36384Y29006D01*
X36575Y29085D01*
X36738Y29211D01*
X36859Y29368D01*
X38041D01*
X38162Y29211D01*
X38325Y29085D01*
X38516Y29006D01*
X38720Y28980D01*
X38924Y29006D01*
X39115Y29085D01*
X39278Y29211D01*
X39404Y29374D01*
X39451Y29488D01*
X39594Y29502D01*
X39616Y29469D01*
X45129Y23956D01*
X45259Y23869D01*
X45413Y23839D01*
X58853D01*
X58901Y23721D01*
X59066Y23506D01*
X59281Y23341D01*
X59531Y23238D01*
X59800Y23202D01*
X60069Y23238D01*
X60319Y23341D01*
X60534Y23506D01*
X60699Y23721D01*
X60802Y23971D01*
X60838Y24240D01*
X60802Y24509D01*
X60699Y24759D01*
X60534Y24974D01*
X60319Y25139D01*
X60069Y25242D01*
X59800Y25278D01*
X59531Y25242D01*
X59281Y25139D01*
X59066Y24974D01*
X58901Y24759D01*
X58853Y24641D01*
X45579D01*
X41356Y28864D01*
X41402Y28998D01*
X41464Y29006D01*
X41655Y29085D01*
X41818Y29211D01*
X41944Y29374D01*
X42023Y29565D01*
X42049Y29769D01*
X42023Y29973D01*
X41944Y30164D01*
X41818Y30327D01*
X41681Y30432D01*
Y31847D01*
X41903D01*
Y33097D01*
X41953D01*
Y33181D01*
X42080Y33236D01*
X42111Y33207D01*
X42097Y33153D01*
X42097D01*
Y31847D01*
X43303D01*
Y33153D01*
X43303D01*
X43269Y33280D01*
X43298Y33302D01*
X43432Y33477D01*
X43517Y33681D01*
X43545Y33900D01*
X43517Y34119D01*
X43432Y34323D01*
X43298Y34498D01*
X43123Y34632D01*
X42919Y34717D01*
X42700Y34745D01*
X42481Y34717D01*
X42277Y34632D01*
X42102Y34498D01*
X41968Y34323D01*
X41918Y34203D01*
X40647D01*
Y33097D01*
X40697D01*
Y31847D01*
X40879D01*
Y30458D01*
X40865Y30453D01*
X40702Y30327D01*
X40576Y30164D01*
X40497Y29973D01*
X40364Y29925D01*
X40301Y29974D01*
Y33600D01*
X40271Y33754D01*
X40184Y33884D01*
X39553Y34514D01*
Y34749D01*
X40647D01*
Y34597D01*
X41953D01*
Y35703D01*
X40647D01*
Y35551D01*
X39553D01*
Y36099D01*
X43034D01*
X44602Y34530D01*
X44550Y34403D01*
X44447D01*
Y33297D01*
X47053D01*
Y34403D01*
X46801D01*
Y34600D01*
X46771Y34754D01*
X46684Y34884D01*
X43928Y37640D01*
X43798Y37727D01*
X43644Y37757D01*
X31371D01*
X31333Y37884D01*
X31390Y37922D01*
X32514Y39047D01*
X33253D01*
Y40153D01*
X33001D01*
Y48114D01*
X35034Y50146D01*
X35138Y50103D01*
X35400Y50068D01*
X35662Y50103D01*
X35906Y50204D01*
X36115Y50365D01*
X36276Y50574D01*
X36377Y50818D01*
X36412Y51080D01*
X36377Y51342D01*
X36276Y51586D01*
X36115Y51795D01*
X35906Y51956D01*
X35801Y52000D01*
Y53547D01*
X36003D01*
Y54853D01*
X34797D01*
Y53547D01*
X34999D01*
Y52000D01*
X34894Y51956D01*
X34685Y51795D01*
X34524Y51586D01*
X34480Y51481D01*
X31886D01*
X30001Y53366D01*
Y53497D01*
X31553D01*
Y55903D01*
D02*
G37*
G36*
X27460Y52092D02*
X27198Y52057D01*
X26954Y51956D01*
X26745Y51795D01*
X26584Y51586D01*
X26483Y51342D01*
X26448Y51080D01*
X26483Y50818D01*
X26584Y50574D01*
X26745Y50365D01*
X26954Y50204D01*
X27198Y50103D01*
X27460Y50068D01*
X27722Y50103D01*
X27966Y50204D01*
X28175Y50365D01*
X28336Y50574D01*
X28437Y50818D01*
X28472Y51080D01*
X28437Y51342D01*
X28336Y51586D01*
X28175Y51795D01*
X27966Y51956D01*
X27722Y52057D01*
X27460Y52092D01*
D02*
G37*
G36*
X20628Y54622D02*
X19172D01*
Y53166D01*
X19367D01*
X19410Y53039D01*
X19381Y53016D01*
X19264Y52864D01*
X19191Y52687D01*
X19166Y52497D01*
X19191Y52307D01*
X19264Y52130D01*
X19381Y51978D01*
X19522Y51869D01*
X19530Y51799D01*
X19522Y51728D01*
X19381Y51619D01*
X19290Y51501D01*
X18153D01*
Y51603D01*
X16847D01*
Y51501D01*
X16503D01*
Y51753D01*
X15397D01*
Y50447D01*
X16503D01*
Y50699D01*
X16847D01*
Y50497D01*
X18153D01*
Y50699D01*
X19290D01*
X19381Y50581D01*
X19533Y50464D01*
X19710Y50391D01*
X19900Y50366D01*
X20090Y50391D01*
X20267Y50464D01*
X20419Y50581D01*
X20536Y50733D01*
X20609Y50910D01*
X20634Y51100D01*
X20609Y51290D01*
X20536Y51467D01*
X20419Y51619D01*
X20278Y51728D01*
X20270Y51799D01*
X20278Y51869D01*
X20419Y51978D01*
X20444Y52009D01*
X20612Y52020D01*
X21812Y50821D01*
X21763Y50703D01*
X21747D01*
Y49597D01*
X23053D01*
Y50703D01*
X22753D01*
Y50848D01*
X22723Y51002D01*
X22636Y51132D01*
X20980Y52788D01*
X20849Y52875D01*
X20696Y52906D01*
X20504D01*
X20419Y53016D01*
X20390Y53039D01*
X20433Y53166D01*
X20628D01*
Y54622D01*
D02*
G37*
G36*
X27460Y49552D02*
X27198Y49517D01*
X26954Y49416D01*
X26745Y49255D01*
X26584Y49046D01*
X26553Y48971D01*
X25603D01*
Y49253D01*
X24497D01*
Y47947D01*
X25603D01*
Y48169D01*
X26528D01*
X26584Y48034D01*
X26745Y47825D01*
X26954Y47664D01*
X27198Y47563D01*
X27460Y47528D01*
X27722Y47563D01*
X27966Y47664D01*
X28175Y47825D01*
X28336Y48034D01*
X28437Y48278D01*
X28472Y48540D01*
X28437Y48802D01*
X28336Y49046D01*
X28175Y49255D01*
X27966Y49416D01*
X27722Y49517D01*
X27460Y49552D01*
D02*
G37*
G36*
X40153Y55803D02*
X36247D01*
Y53397D01*
X37599D01*
Y49153D01*
X37497D01*
Y48921D01*
X36328D01*
X36276Y49046D01*
X36115Y49255D01*
X35906Y49416D01*
X35662Y49517D01*
X35400Y49552D01*
X35138Y49517D01*
X34894Y49416D01*
X34685Y49255D01*
X34524Y49046D01*
X34423Y48802D01*
X34388Y48540D01*
X34423Y48278D01*
X34524Y48034D01*
X34685Y47825D01*
X34894Y47664D01*
X35138Y47563D01*
X35400Y47528D01*
X35662Y47563D01*
X35906Y47664D01*
X36115Y47825D01*
X36276Y48034D01*
X36311Y48119D01*
X37497D01*
Y47847D01*
X38603D01*
Y49153D01*
X38401D01*
Y53397D01*
X40153D01*
Y55803D01*
D02*
G37*
G36*
X26853Y55903D02*
X22947D01*
Y53497D01*
X24299D01*
Y52066D01*
X23316Y51084D01*
X23229Y50954D01*
X23199Y50800D01*
Y49253D01*
X22997D01*
Y49203D01*
X21747D01*
Y48097D01*
X22997D01*
Y47947D01*
X24103D01*
Y49253D01*
X24001D01*
Y50634D01*
X24984Y51616D01*
X25071Y51746D01*
X25101Y51900D01*
Y53497D01*
X26853D01*
Y55903D01*
D02*
G37*
G36*
X40103Y51953D02*
X38897D01*
Y50647D01*
X38916D01*
X38997Y50553D01*
Y49247D01*
X38997D01*
X38997Y49153D01*
X38997D01*
Y47847D01*
X40103D01*
Y49153D01*
X40103D01*
X40103Y49247D01*
X40103D01*
Y50553D01*
X40103D01*
Y50647D01*
X40103D01*
Y51953D01*
D02*
G37*
G36*
X5329Y48129D02*
X3271D01*
Y46071D01*
X5329D01*
Y48129D01*
D02*
G37*
G36*
X18550Y50114D02*
X18550Y50114D01*
X17500D01*
X17446Y50103D01*
X16847D01*
Y48997D01*
X17446D01*
X17500Y48986D01*
X18316D01*
X18613Y48689D01*
Y47103D01*
X17247D01*
Y44697D01*
X21153D01*
Y45436D01*
X22576D01*
X22602Y45402D01*
X22777Y45268D01*
X22981Y45183D01*
X23200Y45155D01*
X23419Y45183D01*
X23623Y45268D01*
X23798Y45402D01*
X23824Y45436D01*
X24247D01*
Y45397D01*
X25553D01*
Y45436D01*
X26628D01*
X26745Y45285D01*
X26954Y45124D01*
X27198Y45023D01*
X27460Y44988D01*
X27722Y45023D01*
X27966Y45124D01*
X28175Y45285D01*
X28336Y45494D01*
X28437Y45738D01*
X28472Y46000D01*
X28437Y46262D01*
X28336Y46506D01*
X28175Y46715D01*
X27966Y46876D01*
X27722Y46977D01*
X27460Y47012D01*
X27198Y46977D01*
X26954Y46876D01*
X26745Y46715D01*
X26628Y46564D01*
X25553D01*
Y46603D01*
X24247D01*
Y46564D01*
X23824D01*
X23798Y46598D01*
X23623Y46732D01*
X23419Y46817D01*
X23200Y46845D01*
X22981Y46817D01*
X22777Y46732D01*
X22602Y46598D01*
X22576Y46564D01*
X21153D01*
Y47103D01*
X19741D01*
Y48923D01*
X19698Y49139D01*
X19576Y49322D01*
X19576Y49322D01*
X18949Y49949D01*
X18766Y50071D01*
X18550Y50114D01*
D02*
G37*
G36*
X1300Y45045D02*
X1081Y45017D01*
X877Y44932D01*
X702Y44798D01*
X568Y44623D01*
X483Y44419D01*
X455Y44200D01*
X483Y43981D01*
X568Y43777D01*
X702Y43602D01*
X877Y43468D01*
X1081Y43383D01*
X1300Y43355D01*
X1519Y43383D01*
X1723Y43468D01*
X1893Y43599D01*
X2297D01*
Y43347D01*
X3403D01*
Y44653D01*
X2297D01*
Y44401D01*
X2119D01*
X2117Y44419D01*
X2032Y44623D01*
X1898Y44798D01*
X1723Y44932D01*
X1519Y45017D01*
X1300Y45045D01*
D02*
G37*
G36*
X35400Y47012D02*
X35138Y46977D01*
X34894Y46876D01*
X34685Y46715D01*
X34524Y46506D01*
X34423Y46262D01*
X34388Y46000D01*
X34423Y45738D01*
X34524Y45494D01*
X34685Y45285D01*
X34894Y45124D01*
X35138Y45023D01*
X35400Y44988D01*
X35662Y45023D01*
X35906Y45124D01*
X36115Y45285D01*
X36276Y45494D01*
X36320Y45599D01*
X38634D01*
X39566Y44666D01*
X39696Y44579D01*
X39850Y44549D01*
X41647D01*
Y44397D01*
X41874D01*
Y44053D01*
X41697D01*
Y42747D01*
X42803D01*
Y44053D01*
X42676D01*
Y44397D01*
X42953D01*
Y45503D01*
X41647D01*
Y45351D01*
X40016D01*
X39084Y46284D01*
X38954Y46371D01*
X38800Y46401D01*
X36320D01*
X36276Y46506D01*
X36115Y46715D01*
X35906Y46876D01*
X35662Y46977D01*
X35400Y47012D01*
D02*
G37*
G36*
X40003Y44053D02*
X38797D01*
Y42747D01*
X40003D01*
Y42999D01*
X40197D01*
Y42747D01*
X41303D01*
Y44053D01*
X40197D01*
Y43801D01*
X40003D01*
Y44053D01*
D02*
G37*
G36*
X24900Y45259D02*
X24729Y45236D01*
X24649Y45203D01*
X24247D01*
Y44643D01*
X24241Y44600D01*
Y43718D01*
X24168Y43623D01*
X24083Y43419D01*
X24055Y43200D01*
X24083Y42981D01*
X24168Y42777D01*
X24302Y42602D01*
X24477Y42468D01*
X24681Y42383D01*
X24900Y42355D01*
X25119Y42383D01*
X25323Y42468D01*
X25498Y42602D01*
X25632Y42777D01*
X25717Y42981D01*
X25745Y43200D01*
X25717Y43419D01*
X25632Y43623D01*
X25559Y43718D01*
Y44600D01*
X25553Y44643D01*
Y45203D01*
X25151D01*
X25071Y45236D01*
X24900Y45259D01*
D02*
G37*
G36*
X4903Y44653D02*
X3797D01*
Y43347D01*
X3949D01*
Y42169D01*
X3271D01*
Y40111D01*
X5329D01*
Y42169D01*
X4751D01*
Y43347D01*
X4903D01*
Y44653D01*
D02*
G37*
G36*
X36403Y44463D02*
X34397D01*
Y42457D01*
X36403D01*
Y42999D01*
X37397D01*
Y42747D01*
X37599D01*
Y41103D01*
X36047D01*
Y38697D01*
X39953D01*
Y41103D01*
X38401D01*
Y42747D01*
X38603D01*
Y44053D01*
X37397D01*
Y43801D01*
X36403D01*
Y44463D01*
D02*
G37*
G36*
X4200Y35678D02*
X3931Y35642D01*
X3681Y35539D01*
X3466Y35374D01*
X3301Y35159D01*
X3198Y34909D01*
X3162Y34640D01*
X3198Y34371D01*
X3246Y34254D01*
X766Y31774D01*
X679Y31644D01*
X649Y31490D01*
Y29853D01*
X497D01*
Y28547D01*
X1603D01*
Y29853D01*
X1451D01*
Y31324D01*
X3054Y32926D01*
X3171Y32878D01*
Y31071D01*
X3799D01*
Y29200D01*
X3829Y29046D01*
X3916Y28916D01*
X10649Y22184D01*
Y17853D01*
X10497D01*
Y16547D01*
X11603D01*
Y17853D01*
X11451D01*
Y22350D01*
X11421Y22504D01*
X11334Y22634D01*
X4601Y29366D01*
Y31071D01*
X5229D01*
Y33129D01*
X3422D01*
X3374Y33246D01*
X3814Y33686D01*
X3931Y33638D01*
X4200Y33602D01*
X4469Y33638D01*
X4719Y33741D01*
X4934Y33906D01*
X5099Y34121D01*
X5202Y34371D01*
X5238Y34640D01*
X5202Y34909D01*
X5099Y35159D01*
X4934Y35374D01*
X4719Y35539D01*
X4469Y35642D01*
X4200Y35678D01*
D02*
G37*
G36*
X17600Y35545D02*
X17381Y35517D01*
X17177Y35432D01*
X17002Y35298D01*
X16868Y35123D01*
X16783Y34919D01*
X16755Y34700D01*
X16783Y34481D01*
X16868Y34277D01*
X17002Y34102D01*
X17096Y34030D01*
X17053Y33903D01*
X16947D01*
Y32797D01*
X18253D01*
X18253Y32797D01*
Y32797D01*
X18380Y32831D01*
X18402Y32802D01*
X18577Y32668D01*
X18781Y32583D01*
X19000Y32555D01*
X19219Y32583D01*
X19423Y32668D01*
X19598Y32802D01*
X19620Y32831D01*
X19747Y32797D01*
Y32797D01*
X21047D01*
Y32697D01*
X22353D01*
Y33117D01*
X22463Y33139D01*
X22593Y33226D01*
X22760Y33392D01*
X22781Y33383D01*
X23000Y33355D01*
X23219Y33383D01*
X23240Y33392D01*
X23407Y33226D01*
X23537Y33139D01*
X23647Y33117D01*
Y32797D01*
X24953D01*
Y33903D01*
X24179D01*
X24140Y33911D01*
X23925D01*
X23897Y33929D01*
X23822Y34024D01*
X23845Y34200D01*
X23817Y34419D01*
X23732Y34623D01*
X23598Y34798D01*
X23423Y34932D01*
X23219Y35017D01*
X23000Y35045D01*
X22781Y35017D01*
X22577Y34932D01*
X22402Y34798D01*
X22268Y34623D01*
X22183Y34419D01*
X22155Y34200D01*
X22178Y34024D01*
X22103Y33929D01*
X22075Y33911D01*
X21910D01*
X21871Y33903D01*
X21047D01*
Y33903D01*
X19747D01*
X19747Y33903D01*
Y33903D01*
X19636Y33948D01*
X19598Y33998D01*
X19423Y34132D01*
X19219Y34217D01*
X19000Y34245D01*
X18781Y34217D01*
X18577Y34132D01*
X18402Y33998D01*
X18362Y33946D01*
X18265Y33908D01*
X18173Y33927D01*
X18135Y34054D01*
X18198Y34102D01*
X18332Y34277D01*
X18417Y34481D01*
X18445Y34700D01*
X18417Y34919D01*
X18332Y35123D01*
X18198Y35298D01*
X18023Y35432D01*
X17819Y35517D01*
X17600Y35545D01*
D02*
G37*
G36*
X21446Y32554D02*
X20996D01*
Y32403D01*
X19747D01*
Y32201D01*
X18253D01*
Y32403D01*
X16947D01*
Y31297D01*
X17249D01*
Y30768D01*
X17279Y30614D01*
X17366Y30484D01*
X18416Y29434D01*
X18391Y29238D01*
X18417Y29034D01*
X18496Y28843D01*
X18622Y28680D01*
X18785Y28554D01*
X18976Y28475D01*
X19180Y28449D01*
X19384Y28475D01*
X19575Y28554D01*
X19738Y28680D01*
X19864Y28843D01*
X19943Y29034D01*
X19969Y29238D01*
X19943Y29442D01*
X19864Y29633D01*
X19738Y29796D01*
X19575Y29922D01*
X19384Y30001D01*
X19180Y30027D01*
X18984Y30002D01*
X18051Y30934D01*
Y31297D01*
X18253D01*
Y31399D01*
X19747D01*
Y31297D01*
X20996D01*
Y31246D01*
X21359D01*
Y29990D01*
X21300Y29966D01*
X21126Y29832D01*
X20992Y29658D01*
X20923Y29492D01*
X21720D01*
X22517D01*
X22448Y29658D01*
X22314Y29832D01*
X22161Y29950D01*
Y31246D01*
X22404D01*
Y31646D01*
X21700D01*
Y31900D01*
X21446D01*
Y32554D01*
D02*
G37*
G36*
X22404D02*
X21954D01*
Y32154D01*
X22404D01*
Y32554D01*
D02*
G37*
G36*
X24953Y32403D02*
X23647D01*
Y31297D01*
X23854D01*
Y29913D01*
X23702Y29796D01*
X23576Y29633D01*
X23497Y29442D01*
X23471Y29238D01*
X23497Y29034D01*
X23576Y28843D01*
X23702Y28680D01*
X23865Y28554D01*
X24056Y28475D01*
X24260Y28449D01*
X24464Y28475D01*
X24655Y28554D01*
X24818Y28680D01*
X24944Y28843D01*
X25023Y29034D01*
X25049Y29238D01*
X25023Y29442D01*
X24944Y29633D01*
X24818Y29796D01*
X24656Y29920D01*
Y31297D01*
X24953D01*
Y31399D01*
X26347D01*
Y31197D01*
X27653D01*
Y32303D01*
X26347D01*
Y32201D01*
X24953D01*
Y32403D01*
D02*
G37*
G36*
X29953Y32253D02*
X28647D01*
Y31147D01*
X28899D01*
Y30021D01*
X28557D01*
Y29639D01*
X27479D01*
X27358Y29796D01*
X27195Y29922D01*
X27004Y30001D01*
X26800Y30027D01*
X26596Y30001D01*
X26405Y29922D01*
X26242Y29796D01*
X26116Y29633D01*
X26037Y29442D01*
X26011Y29238D01*
X26037Y29034D01*
X26116Y28843D01*
X26242Y28680D01*
X26405Y28554D01*
X26596Y28475D01*
X26800Y28449D01*
X27004Y28475D01*
X27195Y28554D01*
X27358Y28680D01*
X27479Y28837D01*
X28557D01*
Y28455D01*
X30123D01*
Y30021D01*
X29701D01*
Y31147D01*
X29953D01*
Y32253D01*
D02*
G37*
G36*
X60880Y30399D02*
X60054D01*
Y29574D01*
X60880D01*
Y30399D01*
D02*
G37*
G36*
X59546D02*
X58721D01*
Y29574D01*
X59546D01*
Y30399D01*
D02*
G37*
G36*
X3154Y29904D02*
X2804D01*
Y29454D01*
X3154D01*
Y29904D01*
D02*
G37*
G36*
X2296D02*
X1946D01*
Y29454D01*
X2296D01*
Y29904D01*
D02*
G37*
G36*
X49847Y34303D02*
X49720Y34303D01*
X48447D01*
Y33197D01*
X48397Y33153D01*
X48397D01*
Y31847D01*
X48514D01*
Y30464D01*
X48485Y30453D01*
X48322Y30327D01*
X48196Y30164D01*
X48117Y29973D01*
X48091Y29769D01*
X48117Y29565D01*
X48196Y29374D01*
X48322Y29211D01*
X48485Y29085D01*
X48676Y29006D01*
X48880Y28980D01*
X49084Y29006D01*
X49275Y29085D01*
X49438Y29211D01*
X49564Y29374D01*
X49643Y29565D01*
X49669Y29769D01*
X49643Y29973D01*
X49564Y30164D01*
X49438Y30327D01*
X49316Y30421D01*
Y31847D01*
X49503D01*
Y33153D01*
X49612Y33197D01*
X49788Y33197D01*
X49897Y33091D01*
Y31847D01*
X50099D01*
Y30689D01*
X50129Y30535D01*
X50216Y30405D01*
X50656Y29965D01*
X50631Y29769D01*
X50657Y29565D01*
X50736Y29374D01*
X50862Y29211D01*
X51025Y29085D01*
X51216Y29006D01*
X51420Y28980D01*
X51624Y29006D01*
X51815Y29085D01*
X51978Y29211D01*
X52104Y29374D01*
X52183Y29565D01*
X52209Y29769D01*
X52183Y29973D01*
X52104Y30164D01*
X51978Y30327D01*
X51815Y30453D01*
X51624Y30532D01*
X51420Y30558D01*
X51224Y30533D01*
X50901Y30855D01*
Y31847D01*
X51003D01*
Y33153D01*
X51112Y33197D01*
X51153D01*
Y34303D01*
X49880D01*
X49847Y34303D01*
D02*
G37*
G36*
X47053Y32903D02*
X44447D01*
Y31797D01*
X45969D01*
Y30462D01*
X45945Y30453D01*
X45782Y30327D01*
X45656Y30164D01*
X45577Y29973D01*
X45551Y29769D01*
X45577Y29565D01*
X45656Y29374D01*
X45782Y29211D01*
X45945Y29085D01*
X46136Y29006D01*
X46340Y28980D01*
X46544Y29006D01*
X46735Y29085D01*
X46898Y29211D01*
X47024Y29374D01*
X47103Y29565D01*
X47129Y29769D01*
X47103Y29973D01*
X47024Y30164D01*
X46898Y30327D01*
X46771Y30425D01*
Y31797D01*
X47053D01*
Y32903D01*
D02*
G37*
G36*
X43800Y30558D02*
X43596Y30532D01*
X43405Y30453D01*
X43242Y30327D01*
X43116Y30164D01*
X43037Y29973D01*
X43011Y29769D01*
X43037Y29565D01*
X43116Y29374D01*
X43242Y29211D01*
X43405Y29085D01*
X43596Y29006D01*
X43800Y28980D01*
X44004Y29006D01*
X44195Y29085D01*
X44358Y29211D01*
X44484Y29374D01*
X44563Y29565D01*
X44589Y29769D01*
X44563Y29973D01*
X44484Y30164D01*
X44358Y30327D01*
X44195Y30453D01*
X44004Y30532D01*
X43800Y30558D01*
D02*
G37*
G36*
X14753Y32203D02*
X13447D01*
Y31097D01*
X13699D01*
Y29917D01*
X13542Y29796D01*
X13416Y29633D01*
X13337Y29442D01*
X13311Y29238D01*
X13337Y29034D01*
X13416Y28843D01*
X13542Y28680D01*
X13705Y28554D01*
X13896Y28475D01*
X14100Y28449D01*
X14304Y28475D01*
X14495Y28554D01*
X14658Y28680D01*
X14779Y28837D01*
X15961D01*
X16082Y28680D01*
X16245Y28554D01*
X16436Y28475D01*
X16640Y28449D01*
X16844Y28475D01*
X17035Y28554D01*
X17198Y28680D01*
X17324Y28843D01*
X17403Y29034D01*
X17429Y29238D01*
X17403Y29442D01*
X17324Y29633D01*
X17198Y29796D01*
X17035Y29922D01*
X16844Y30001D01*
X16640Y30027D01*
X16436Y30001D01*
X16245Y29922D01*
X16082Y29796D01*
X15961Y29639D01*
X14779D01*
X14658Y29796D01*
X14501Y29917D01*
Y31097D01*
X14753D01*
Y32203D01*
D02*
G37*
G36*
X22517Y28984D02*
X21974D01*
Y28441D01*
X22140Y28510D01*
X22314Y28644D01*
X22448Y28818D01*
X22517Y28984D01*
D02*
G37*
G36*
X21466D02*
X20923D01*
X20992Y28818D01*
X21126Y28644D01*
X21300Y28510D01*
X21466Y28441D01*
Y28984D01*
D02*
G37*
G36*
X60880Y29066D02*
X60054D01*
Y28240D01*
X60880D01*
Y29066D01*
D02*
G37*
G36*
X59546D02*
X58721D01*
Y28240D01*
X59546D01*
Y29066D01*
D02*
G37*
G36*
X3154Y28946D02*
X2550D01*
X1946D01*
Y28496D01*
X2174D01*
Y27825D01*
X2204Y27671D01*
X2291Y27541D01*
X2316Y27516D01*
X2446Y27429D01*
X2600Y27399D01*
X2754Y27429D01*
X2884Y27516D01*
X2971Y27646D01*
X3001Y27800D01*
X2976Y27926D01*
Y28496D01*
X3154D01*
Y28946D01*
D02*
G37*
G36*
X59800Y27818D02*
X59531Y27782D01*
X59281Y27679D01*
X59066Y27514D01*
X58901Y27299D01*
X58798Y27049D01*
X58762Y26780D01*
X58798Y26511D01*
X58901Y26261D01*
X59066Y26046D01*
X59281Y25881D01*
X59531Y25778D01*
X59800Y25742D01*
X60069Y25778D01*
X60319Y25881D01*
X60534Y26046D01*
X60699Y26261D01*
X60802Y26511D01*
X60838Y26780D01*
X60802Y27049D01*
X60699Y27299D01*
X60534Y27514D01*
X60319Y27679D01*
X60069Y27782D01*
X59800Y27818D01*
D02*
G37*
G36*
X22123Y22675D02*
X18257D01*
X18103Y22644D01*
X17973Y22557D01*
X17650Y22234D01*
X17327Y22557D01*
X17197Y22644D01*
X17043Y22675D01*
X15073D01*
X14920Y22644D01*
X14789Y22557D01*
X14296Y22064D01*
X14100Y22089D01*
X13896Y22063D01*
X13705Y21984D01*
X13542Y21858D01*
X13416Y21695D01*
X13337Y21504D01*
X13311Y21300D01*
X13337Y21096D01*
X13416Y20905D01*
X13542Y20742D01*
X13705Y20616D01*
X13896Y20537D01*
X14100Y20511D01*
X14304Y20537D01*
X14495Y20616D01*
X14658Y20742D01*
X14784Y20905D01*
X14863Y21096D01*
X14889Y21300D01*
X14864Y21496D01*
X15239Y21872D01*
X15932D01*
X15995Y21745D01*
X15956Y21695D01*
X15877Y21504D01*
X15851Y21300D01*
X15877Y21096D01*
X15956Y20905D01*
X16082Y20742D01*
X16199Y20652D01*
Y20366D01*
X16116Y20284D01*
X16029Y20154D01*
X15999Y20000D01*
Y19253D01*
X15753D01*
Y19303D01*
X14453D01*
Y19303D01*
X13147D01*
Y18197D01*
X14447D01*
Y18097D01*
X15753D01*
Y18147D01*
X17053D01*
X17097Y18038D01*
Y17947D01*
X18203D01*
Y19253D01*
X18051D01*
Y21500D01*
X18361Y21810D01*
X18418Y21801D01*
X18448Y21761D01*
X18483Y21662D01*
X18417Y21504D01*
X18391Y21300D01*
X18417Y21096D01*
X18496Y20905D01*
X18622Y20742D01*
X18764Y20633D01*
Y19253D01*
X18597D01*
Y17947D01*
X19538D01*
X19647Y17903D01*
Y16797D01*
X20953D01*
Y17903D01*
X20912D01*
X20803Y17947D01*
Y19253D01*
X19566D01*
Y20613D01*
X19575Y20616D01*
X19738Y20742D01*
X19864Y20905D01*
X19943Y21096D01*
X19969Y21300D01*
X19943Y21504D01*
X19864Y21695D01*
X19825Y21745D01*
X19888Y21872D01*
X21012D01*
X21075Y21745D01*
X21036Y21695D01*
X20957Y21504D01*
X20931Y21300D01*
X20957Y21096D01*
X21036Y20905D01*
X21162Y20742D01*
X21325Y20616D01*
X21334Y20613D01*
Y19253D01*
X21197D01*
Y17947D01*
X22303D01*
Y17947D01*
X23403D01*
Y19253D01*
X23251D01*
Y21546D01*
X23221Y21700D01*
X23134Y21830D01*
X22407Y22557D01*
X22277Y22644D01*
X22123Y22675D01*
D02*
G37*
G36*
X59800Y22738D02*
X59531Y22702D01*
X59281Y22599D01*
X59066Y22434D01*
X58901Y22219D01*
X58832Y22051D01*
X55810D01*
X55698Y22198D01*
X55523Y22332D01*
X55319Y22417D01*
X55100Y22445D01*
X54881Y22417D01*
X54677Y22332D01*
X54502Y22198D01*
X54368Y22023D01*
X54283Y21819D01*
X54255Y21600D01*
X54283Y21381D01*
X54368Y21177D01*
X54502Y21002D01*
X54677Y20868D01*
X54881Y20783D01*
X55100Y20755D01*
X55319Y20783D01*
X55523Y20868D01*
X55698Y21002D01*
X55832Y21177D01*
X55862Y21249D01*
X58874D01*
X58901Y21181D01*
X59066Y20966D01*
X59281Y20801D01*
X59531Y20698D01*
X59800Y20662D01*
X60069Y20698D01*
X60319Y20801D01*
X60534Y20966D01*
X60699Y21181D01*
X60802Y21431D01*
X60838Y21700D01*
X60802Y21969D01*
X60699Y22219D01*
X60534Y22434D01*
X60319Y22599D01*
X60069Y22702D01*
X59800Y22738D01*
D02*
G37*
G36*
X4300Y39638D02*
X4031Y39602D01*
X3781Y39499D01*
X3566Y39334D01*
X3401Y39119D01*
X3298Y38869D01*
X3262Y38600D01*
X3298Y38331D01*
X3401Y38081D01*
X3566Y37866D01*
X3781Y37701D01*
X3899Y37653D01*
Y37100D01*
X3929Y36946D01*
X4016Y36816D01*
X17087Y23745D01*
X17218Y23658D01*
X17371Y23627D01*
X23565D01*
X23627Y23500D01*
X23568Y23423D01*
X23483Y23219D01*
X23455Y23000D01*
X23483Y22781D01*
X23568Y22577D01*
X23702Y22402D01*
X23877Y22268D01*
X23899Y22259D01*
Y21997D01*
X23865Y21984D01*
X23702Y21858D01*
X23576Y21695D01*
X23497Y21504D01*
X23471Y21300D01*
X23497Y21096D01*
X23576Y20905D01*
X23702Y20742D01*
X23865Y20616D01*
X24056Y20537D01*
X24260Y20511D01*
X24464Y20537D01*
X24655Y20616D01*
X24818Y20742D01*
X24944Y20905D01*
X25023Y21096D01*
X25049Y21300D01*
X25023Y21504D01*
X24944Y21695D01*
X24818Y21858D01*
X24701Y21948D01*
Y22259D01*
X24723Y22268D01*
X24898Y22402D01*
X25032Y22577D01*
X25117Y22781D01*
X25238Y22757D01*
Y20361D01*
X25269Y20207D01*
X25356Y20077D01*
X26916Y18516D01*
X27046Y18429D01*
X27200Y18399D01*
X27347D01*
Y18197D01*
X28653D01*
Y19303D01*
X27347D01*
X27347Y19303D01*
Y19303D01*
X27230Y19337D01*
X26041Y20527D01*
Y20795D01*
X26168Y20838D01*
X26242Y20742D01*
X26405Y20616D01*
X26596Y20537D01*
X26800Y20511D01*
X27004Y20537D01*
X27195Y20616D01*
X27358Y20742D01*
X27479Y20899D01*
X28661D01*
X28782Y20742D01*
X28919Y20637D01*
Y19253D01*
X28797D01*
Y17947D01*
X29903D01*
Y19253D01*
X29721D01*
Y20611D01*
X29735Y20616D01*
X29898Y20742D01*
X30024Y20905D01*
X30103Y21096D01*
X30111Y21158D01*
X30245Y21204D01*
X30449Y21000D01*
Y19253D01*
X30297D01*
Y17947D01*
X31403D01*
Y19253D01*
X31251D01*
Y21166D01*
X31221Y21320D01*
X31134Y21450D01*
X27200Y25384D01*
X27070Y25471D01*
X26916Y25501D01*
X26241D01*
X26232Y25523D01*
X26098Y25698D01*
X25923Y25832D01*
X25912Y25837D01*
Y25963D01*
X25923Y25968D01*
X26098Y26102D01*
X26232Y26277D01*
X26317Y26481D01*
X26345Y26700D01*
X26317Y26919D01*
X26232Y27123D01*
X26098Y27298D01*
X25923Y27432D01*
X25719Y27517D01*
X25500Y27545D01*
X25281Y27517D01*
X25077Y27432D01*
X24902Y27298D01*
X24790Y27151D01*
X22352D01*
X22323Y27223D01*
X22188Y27398D01*
X22013Y27532D01*
X21809Y27617D01*
X21590Y27645D01*
X21372Y27617D01*
X21168Y27532D01*
X20993Y27398D01*
X20858Y27223D01*
X20774Y27019D01*
X20745Y26800D01*
X20774Y26581D01*
X20858Y26377D01*
X20993Y26202D01*
X21168Y26068D01*
X21286Y26019D01*
Y25881D01*
X21168Y25832D01*
X20993Y25698D01*
X20858Y25523D01*
X20774Y25319D01*
X20745Y25100D01*
X20774Y24881D01*
X20858Y24677D01*
X20951Y24557D01*
X20888Y24430D01*
X17538D01*
X4701Y37266D01*
Y37653D01*
X4819Y37701D01*
X5034Y37866D01*
X5199Y38081D01*
X5302Y38331D01*
X5338Y38600D01*
X5302Y38869D01*
X5199Y39119D01*
X5034Y39334D01*
X4819Y39499D01*
X4569Y39602D01*
X4300Y39638D01*
D02*
G37*
G36*
X60880Y18719D02*
X60054D01*
Y17894D01*
X60880D01*
Y18719D01*
D02*
G37*
G36*
X59546D02*
X58721D01*
Y17894D01*
X59546D01*
Y18719D01*
D02*
G37*
G36*
X15753Y17903D02*
X14447D01*
Y17803D01*
X13147D01*
X13103Y17853D01*
Y17853D01*
X11997D01*
Y16547D01*
X13103D01*
Y16588D01*
X13147Y16697D01*
X14447D01*
Y16697D01*
X15747D01*
Y16647D01*
X15999D01*
Y16253D01*
X14797D01*
Y12347D01*
X15599D01*
Y12041D01*
X15577Y12032D01*
X15402Y11898D01*
X15268Y11723D01*
X15183Y11519D01*
X15155Y11300D01*
X15183Y11081D01*
X15268Y10877D01*
X15402Y10702D01*
X15577Y10568D01*
X15781Y10483D01*
X16000Y10455D01*
X16219Y10483D01*
X16423Y10568D01*
X16598Y10702D01*
X16732Y10877D01*
X16817Y11081D01*
X16845Y11300D01*
X16817Y11519D01*
X16732Y11723D01*
X16598Y11898D01*
X16423Y12032D01*
X16401Y12041D01*
Y12347D01*
X17203D01*
Y16253D01*
X16801D01*
Y16647D01*
X17053D01*
Y17753D01*
X15753D01*
Y17903D01*
D02*
G37*
G36*
X24903Y19253D02*
X23797D01*
Y17947D01*
X23949D01*
Y17353D01*
X23097D01*
Y13447D01*
X25503D01*
Y17353D01*
X24751D01*
Y17947D01*
X24903D01*
Y18199D01*
X25234D01*
X26466Y16966D01*
X26596Y16879D01*
X26750Y16849D01*
X27347D01*
Y16697D01*
X28653D01*
Y17803D01*
X27347D01*
Y17651D01*
X26916D01*
X25684Y18884D01*
X25554Y18971D01*
X25400Y19001D01*
X24903D01*
Y19253D01*
D02*
G37*
G36*
X60880Y17386D02*
X60054D01*
Y16560D01*
X60880D01*
Y17386D01*
D02*
G37*
G36*
X21004Y16454D02*
X20554D01*
Y16104D01*
X21004D01*
Y16454D01*
D02*
G37*
G36*
X20046D02*
X19596D01*
Y16104D01*
X20046D01*
Y16454D01*
D02*
G37*
G36*
X21004Y15596D02*
X20554D01*
Y15246D01*
X21004D01*
Y15596D01*
D02*
G37*
G36*
X20046D02*
X19596D01*
Y15246D01*
X20046D01*
Y15596D01*
D02*
G37*
G36*
X2854Y14004D02*
X2504D01*
Y13554D01*
X2854D01*
Y14004D01*
D02*
G37*
G36*
X1996D02*
X1646D01*
Y13554D01*
X1996D01*
Y14004D01*
D02*
G37*
G36*
X22404Y14454D02*
X20654D01*
Y13454D01*
X22404D01*
Y14454D01*
D02*
G37*
G36*
X20146D02*
X18396D01*
Y13454D01*
X20146D01*
Y14454D01*
D02*
G37*
G36*
X4303Y13953D02*
X3197D01*
Y12647D01*
X4303D01*
Y12697D01*
X5503D01*
Y13903D01*
X4303D01*
Y13953D01*
D02*
G37*
G36*
X22404Y12946D02*
X20654D01*
Y11946D01*
X22404D01*
Y12946D01*
D02*
G37*
G36*
X20146D02*
X18396D01*
Y11946D01*
X20146D01*
Y12946D01*
D02*
G37*
G36*
X2854Y13046D02*
X2250D01*
X1646D01*
Y12596D01*
X1899D01*
Y12304D01*
X1646D01*
Y11854D01*
X2300D01*
X2954D01*
Y12304D01*
X2701D01*
Y12596D01*
X2854D01*
Y13046D01*
D02*
G37*
G36*
X59800Y13598D02*
X59531Y13562D01*
X59281Y13459D01*
X59066Y13294D01*
X58901Y13079D01*
X58798Y12829D01*
X58762Y12560D01*
X58798Y12291D01*
X58901Y12041D01*
X59066Y11826D01*
X59281Y11661D01*
X59531Y11558D01*
X59800Y11522D01*
X60069Y11558D01*
X60319Y11661D01*
X60534Y11826D01*
X60699Y12041D01*
X60802Y12291D01*
X60838Y12560D01*
X60802Y12829D01*
X60699Y13079D01*
X60534Y13294D01*
X60319Y13459D01*
X60069Y13562D01*
X59800Y13598D01*
D02*
G37*
G36*
X2954Y11346D02*
X2300D01*
X1646D01*
Y10896D01*
X1899D01*
Y8531D01*
X1882Y8524D01*
X1709Y8391D01*
X1576Y8218D01*
X1508Y8054D01*
X2300D01*
X3092D01*
X3024Y8218D01*
X2891Y8391D01*
X2718Y8524D01*
X2701Y8531D01*
Y10896D01*
X2954D01*
Y11346D01*
D02*
G37*
G36*
X48753Y8503D02*
X47047D01*
Y8015D01*
X46403D01*
Y8053D01*
X45297D01*
Y7658D01*
X45282Y7635D01*
X45235Y7400D01*
X45282Y7165D01*
X45297Y7142D01*
Y6747D01*
X46403D01*
Y6785D01*
X47047D01*
Y6297D01*
X48753D01*
Y8503D01*
D02*
G37*
G36*
X60929Y9569D02*
X58871D01*
Y7511D01*
X60929D01*
Y9569D01*
D02*
G37*
G36*
X5503Y12303D02*
X4297D01*
Y12253D01*
X3097D01*
Y10947D01*
X4303D01*
Y11097D01*
X4499D01*
Y10066D01*
X4016Y9584D01*
X3929Y9454D01*
X3899Y9300D01*
Y8578D01*
X3522D01*
Y7022D01*
X5078D01*
Y8578D01*
X4701D01*
Y9134D01*
X5184Y9616D01*
X5271Y9746D01*
X5301Y9900D01*
Y11097D01*
X5503D01*
Y12303D01*
D02*
G37*
G36*
X3092Y7546D02*
X2554D01*
Y7008D01*
X2718Y7076D01*
X2891Y7209D01*
X3024Y7382D01*
X3092Y7546D01*
D02*
G37*
G36*
X2046D02*
X1508D01*
X1576Y7382D01*
X1709Y7209D01*
X1882Y7076D01*
X2046Y7008D01*
Y7546D01*
D02*
G37*
G36*
X24900Y8045D02*
X24681Y8017D01*
X24477Y7932D01*
X24382Y7859D01*
X23400D01*
X23357Y7853D01*
X22797D01*
Y7451D01*
X22764Y7371D01*
X22741Y7200D01*
X22764Y7029D01*
X22797Y6949D01*
Y6547D01*
X23357D01*
X23400Y6541D01*
X24382D01*
X24477Y6468D01*
X24681Y6383D01*
X24900Y6355D01*
X25119Y6383D01*
X25323Y6468D01*
X25498Y6602D01*
X25632Y6777D01*
X25717Y6981D01*
X25745Y7200D01*
X25717Y7419D01*
X25632Y7623D01*
X25498Y7798D01*
X25323Y7932D01*
X25119Y8017D01*
X24900Y8045D01*
D02*
G37*
G36*
X31753Y13803D02*
X27847D01*
Y11397D01*
X29399D01*
Y10203D01*
X29097D01*
Y9146D01*
X29091Y9100D01*
Y7400D01*
X29115Y7216D01*
X29147Y7139D01*
Y6797D01*
X29431D01*
X29445Y6786D01*
X29579Y6730D01*
X29554Y6603D01*
X29147D01*
Y5462D01*
X28441D01*
X27509Y6394D01*
Y9100D01*
X27503Y9146D01*
Y10203D01*
X26097D01*
Y9146D01*
X26091Y9100D01*
Y6100D01*
X26115Y5916D01*
X26186Y5745D01*
X26298Y5598D01*
X27645Y4252D01*
X27792Y4139D01*
X27917Y4087D01*
X27946Y3962D01*
X27943Y3944D01*
X27780Y3731D01*
X27674Y3475D01*
X27638Y3200D01*
X27674Y2925D01*
X27780Y2669D01*
X27949Y2449D01*
X28169Y2280D01*
X28425Y2174D01*
X28700Y2138D01*
X28975Y2174D01*
X29231Y2280D01*
X29451Y2449D01*
X29620Y2669D01*
X29726Y2925D01*
X29762Y3200D01*
X29726Y3475D01*
X29686Y3571D01*
X29794Y3643D01*
X30187Y3250D01*
Y2147D01*
X32293D01*
Y4253D01*
X31190D01*
X30188Y5255D01*
X30184Y5258D01*
X30227Y5385D01*
X30825D01*
X30977Y5268D01*
X31181Y5183D01*
X31400Y5155D01*
X31619Y5183D01*
X31823Y5268D01*
X31998Y5402D01*
X32132Y5577D01*
X32217Y5781D01*
X32245Y6000D01*
X32217Y6219D01*
X32132Y6423D01*
X31998Y6598D01*
X31977Y6614D01*
X32020Y6741D01*
X37499D01*
X37884Y6357D01*
X37893Y6284D01*
X37977Y6082D01*
X38109Y5909D01*
X38282Y5777D01*
X38484Y5693D01*
X38700Y5665D01*
X38916Y5693D01*
X39118Y5777D01*
X39291Y5909D01*
X39423Y6082D01*
X39501Y6269D01*
X39973Y6741D01*
X44350D01*
X44393Y6747D01*
X44903D01*
Y7048D01*
X44921Y7071D01*
X44986Y7229D01*
X45009Y7400D01*
X44986Y7571D01*
X44921Y7729D01*
X44903Y7752D01*
Y8053D01*
X44393D01*
X44350Y8059D01*
X39700D01*
X39529Y8036D01*
X39371Y7971D01*
X39234Y7866D01*
X38736Y7368D01*
X38238Y7866D01*
X38101Y7971D01*
X37943Y8036D01*
X37772Y8059D01*
X30509D01*
Y9100D01*
X30503Y9146D01*
Y10203D01*
X30201D01*
Y11397D01*
X31753D01*
Y13803D01*
D02*
G37*
G36*
X59900Y7038D02*
X59631Y7002D01*
X59381Y6899D01*
X59166Y6734D01*
X59001Y6519D01*
X58898Y6269D01*
X58862Y6000D01*
X58890Y5788D01*
X58451Y5349D01*
X58329Y5166D01*
X58286Y4950D01*
X58286Y4950D01*
Y2100D01*
X58297Y2046D01*
Y1447D01*
X59403D01*
Y2046D01*
X59414Y2100D01*
Y4716D01*
X59688Y4990D01*
X59900Y4962D01*
X60169Y4998D01*
X60419Y5101D01*
X60634Y5266D01*
X60799Y5481D01*
X60902Y5731D01*
X60938Y6000D01*
X60902Y6269D01*
X60799Y6519D01*
X60634Y6734D01*
X60419Y6899D01*
X60169Y7002D01*
X59900Y7038D01*
D02*
G37*
G36*
X22000Y9445D02*
X21781Y9417D01*
X21577Y9332D01*
X21402Y9198D01*
X21268Y9023D01*
X21183Y8819D01*
X21155Y8600D01*
X21183Y8381D01*
X21268Y8177D01*
X21385Y8025D01*
Y7200D01*
Y5605D01*
X20105Y4325D01*
X19978Y4378D01*
Y5828D01*
X18422D01*
Y4272D01*
X19872D01*
X19925Y4145D01*
X19203Y3423D01*
X18991Y3635D01*
X18792Y3768D01*
X18556Y3815D01*
X13653D01*
Y4253D01*
X11547D01*
Y2147D01*
X13653D01*
Y2585D01*
X18302D01*
X18427Y2460D01*
X18442Y2347D01*
X18520Y2158D01*
X18645Y1995D01*
X18808Y1870D01*
X18997Y1792D01*
X19102Y1778D01*
X19515Y1365D01*
X19715Y1232D01*
X19950Y1185D01*
X24516D01*
X24752Y1232D01*
X24951Y1365D01*
X25797Y2211D01*
X25885Y2174D01*
X26160Y2138D01*
X26435Y2174D01*
X26691Y2280D01*
X26911Y2449D01*
X27080Y2669D01*
X27186Y2925D01*
X27222Y3200D01*
X27186Y3475D01*
X27080Y3731D01*
X26911Y3951D01*
X26691Y4120D01*
X26435Y4226D01*
X26160Y4262D01*
X25885Y4226D01*
X25629Y4120D01*
X25409Y3951D01*
X25240Y3731D01*
X25134Y3475D01*
X25105Y3259D01*
X24262Y2415D01*
X20205D01*
X20070Y2550D01*
X22435Y4915D01*
X22568Y5115D01*
X22615Y5350D01*
Y7200D01*
Y8025D01*
X22732Y8177D01*
X22817Y8381D01*
X22845Y8600D01*
X22817Y8819D01*
X22732Y9023D01*
X22598Y9198D01*
X22423Y9332D01*
X22219Y9417D01*
X22000Y9445D01*
D02*
G37*
G36*
X7774Y4280D02*
Y3454D01*
X8600D01*
X8596Y3488D01*
X8484Y3757D01*
X8307Y3987D01*
X8077Y4164D01*
X7808Y4276D01*
X7774Y4280D01*
D02*
G37*
G36*
X7266Y4280D02*
X7232Y4276D01*
X6963Y4164D01*
X6733Y3987D01*
X6556Y3757D01*
X6444Y3488D01*
X6440Y3454D01*
X7266D01*
Y4280D01*
D02*
G37*
G36*
X39528Y3828D02*
X37872D01*
Y2172D01*
X39528D01*
Y3828D01*
D02*
G37*
G36*
X10060Y4262D02*
X9785Y4226D01*
X9529Y4120D01*
X9309Y3951D01*
X9140Y3731D01*
X9034Y3475D01*
X8998Y3200D01*
X9034Y2925D01*
X9140Y2669D01*
X9309Y2449D01*
X9529Y2280D01*
X9785Y2174D01*
X10060Y2138D01*
X10335Y2174D01*
X10591Y2280D01*
X10811Y2449D01*
X10980Y2669D01*
X11086Y2925D01*
X11122Y3200D01*
X11086Y3475D01*
X10980Y3731D01*
X10811Y3951D01*
X10591Y4120D01*
X10335Y4226D01*
X10060Y4262D01*
D02*
G37*
G36*
X7266Y2946D02*
X6440D01*
X6444Y2912D01*
X6556Y2643D01*
X6733Y2413D01*
X6963Y2236D01*
X7232Y2124D01*
X7266Y2120D01*
Y2946D01*
D02*
G37*
G36*
X8600D02*
X7774D01*
Y2120D01*
X7808Y2124D01*
X8077Y2236D01*
X8307Y2413D01*
X8484Y2643D01*
X8596Y2912D01*
X8600Y2946D01*
D02*
G37*
G36*
X46153Y4403D02*
X44847D01*
Y3864D01*
X43666Y2684D01*
X43579Y2554D01*
X43549Y2400D01*
Y1853D01*
X43397D01*
Y1812D01*
X43270Y1769D01*
X43248Y1798D01*
X43073Y1932D01*
X42869Y2017D01*
X42650Y2045D01*
X42431Y2017D01*
X42227Y1932D01*
X42052Y1798D01*
X41918Y1623D01*
X41833Y1419D01*
X41805Y1200D01*
X41833Y981D01*
X41918Y777D01*
X42052Y602D01*
X42227Y468D01*
X42431Y383D01*
X42650Y355D01*
X42869Y383D01*
X43073Y468D01*
X43248Y602D01*
X43270Y631D01*
X43397Y588D01*
Y547D01*
X44503D01*
Y1853D01*
X44351D01*
Y2234D01*
X44729Y2612D01*
X44847Y2563D01*
Y1797D01*
X44897D01*
Y547D01*
X46003D01*
Y840D01*
X47600D01*
X47738Y867D01*
X47855Y945D01*
X47899Y990D01*
X48497D01*
Y947D01*
X49903D01*
Y947D01*
X49997D01*
Y947D01*
X51403D01*
Y1913D01*
X51403Y1953D01*
X51494Y2040D01*
X51997D01*
Y1897D01*
X53403D01*
Y2008D01*
X53530Y2061D01*
X53745Y1845D01*
X53862Y1767D01*
X54000Y1740D01*
X54047D01*
Y1497D01*
X55353D01*
Y1597D01*
X56653D01*
Y2803D01*
X55347D01*
Y2603D01*
X54047D01*
X54047Y2603D01*
Y2603D01*
X53946Y2663D01*
X53855Y2755D01*
X53738Y2833D01*
X53600Y2860D01*
X53403D01*
Y2903D01*
X51997D01*
Y2760D01*
X51494D01*
X51403Y2847D01*
Y3853D01*
X49997D01*
X49997Y3853D01*
X49903D01*
Y3853D01*
X49870Y3853D01*
X48497D01*
Y2847D01*
X49394D01*
X50095Y2145D01*
X50193Y2080D01*
X50187Y1997D01*
X50172Y1953D01*
X49997D01*
Y1953D01*
X49903D01*
Y1953D01*
X48497D01*
Y1710D01*
X47750D01*
X47612Y1683D01*
X47495Y1605D01*
X47451Y1560D01*
X46003D01*
Y1797D01*
X46153D01*
Y1965D01*
X46497D01*
Y1897D01*
X47903D01*
Y2903D01*
X46497D01*
Y2685D01*
X46153D01*
Y2903D01*
X45187D01*
X45138Y3021D01*
X45414Y3297D01*
X46153D01*
Y4403D01*
D02*
G37*
G36*
X51653Y8503D02*
X49947D01*
Y6297D01*
X51653D01*
Y6741D01*
X52027D01*
X54041Y4727D01*
Y3550D01*
X54047Y3507D01*
Y2997D01*
X54348D01*
X54371Y2979D01*
X54529Y2914D01*
X54700Y2891D01*
X54871Y2914D01*
X55029Y2979D01*
X55052Y2997D01*
X56653D01*
Y2997D01*
X56770Y2972D01*
X56786Y2956D01*
Y2100D01*
X56797Y2046D01*
Y1447D01*
X57903D01*
Y2046D01*
X57914Y2100D01*
Y3190D01*
X57914Y3190D01*
X57871Y3406D01*
X57749Y3589D01*
X57749Y3589D01*
X57339Y3999D01*
X57156Y4121D01*
X56940Y4164D01*
X56940Y4164D01*
X56653D01*
Y4203D01*
X55359D01*
Y5000D01*
X55336Y5171D01*
X55271Y5329D01*
X55166Y5466D01*
X52866Y7766D01*
X52809Y7809D01*
X52766Y7866D01*
X52629Y7971D01*
X52471Y8036D01*
X52300Y8059D01*
X51653D01*
Y8503D01*
D02*
G37*
%LPD*%
G36*
X44499Y51941D02*
X44477Y51932D01*
X44302Y51798D01*
X44168Y51623D01*
X44083Y51419D01*
X44055Y51200D01*
X44083Y50981D01*
X44168Y50777D01*
X44302Y50602D01*
X44477Y50468D01*
X44503Y50457D01*
X44478Y50330D01*
X41603D01*
Y50553D01*
X41584D01*
X41503Y50647D01*
X41503Y50680D01*
Y50853D01*
X41630Y50896D01*
X41702Y50802D01*
X41877Y50668D01*
X42081Y50583D01*
X42300Y50555D01*
X42519Y50583D01*
X42723Y50668D01*
X42898Y50802D01*
X43032Y50977D01*
X43117Y51181D01*
X43145Y51400D01*
X43117Y51619D01*
X43032Y51823D01*
X42902Y51993D01*
X42898Y51998D01*
X42896Y52026D01*
X43008Y52147D01*
X44499Y52147D01*
Y51941D01*
D02*
G37*
G36*
X40615Y22276D02*
X40576Y22226D01*
X40497Y22035D01*
X40471Y21831D01*
X40497Y21627D01*
X40576Y21436D01*
X40702Y21273D01*
X40865Y21147D01*
X40879Y21142D01*
Y19903D01*
X39347D01*
Y19903D01*
X39303Y19853D01*
X39136D01*
Y21164D01*
X39278Y21273D01*
X39404Y21436D01*
X39483Y21627D01*
X39509Y21831D01*
X39483Y22035D01*
X39404Y22226D01*
X39365Y22276D01*
X39428Y22403D01*
X40552D01*
X40615Y22276D01*
D02*
G37*
G36*
X24768Y26277D02*
X24902Y26102D01*
X25077Y25968D01*
X25088Y25963D01*
Y25837D01*
X25077Y25832D01*
X24902Y25698D01*
X24768Y25523D01*
X24759Y25501D01*
X22331D01*
X22323Y25523D01*
X22188Y25698D01*
X22013Y25832D01*
X21895Y25881D01*
Y26019D01*
X22013Y26068D01*
X22188Y26202D01*
X22301Y26349D01*
X24738D01*
X24768Y26277D01*
D02*
G37*
G36*
X29244Y22205D02*
X29198Y22071D01*
X29136Y22063D01*
X28945Y21984D01*
X28782Y21858D01*
X28661Y21701D01*
X27479D01*
X27358Y21858D01*
X27195Y21984D01*
X27004Y22063D01*
X26800Y22089D01*
X26596Y22063D01*
X26405Y21984D01*
X26242Y21858D01*
X26168Y21762D01*
X26041Y21805D01*
Y23115D01*
X26010Y23269D01*
X25923Y23399D01*
X25103Y24220D01*
X25175Y24328D01*
X25281Y24283D01*
X25500Y24255D01*
X25719Y24283D01*
X25923Y24368D01*
X26098Y24502D01*
X26232Y24677D01*
X26241Y24699D01*
X26750D01*
X29244Y22205D01*
D02*
G37*
D14*
X45525Y2325D02*
X47175D01*
X45500Y2350D02*
X45525Y2325D01*
X47175D02*
X47200Y2300D01*
X49200Y1350D02*
X50700D01*
X50700Y1450D01*
X47750Y1350D02*
X49200D01*
X54000Y2100D02*
X54650D01*
X53600Y2500D02*
X54000Y2100D01*
X52800Y2500D02*
X53600D01*
X54650Y2100D02*
X54700Y2050D01*
X45450Y1200D02*
X47600D01*
X47750Y1350D01*
X49400Y3350D02*
X50350Y2400D01*
X49200Y3250D02*
X49400D01*
X50350Y2400D02*
X52700D01*
X52800Y2500D01*
X54700Y2050D02*
X54725Y2075D01*
X55975D01*
X56000Y2100D01*
D29*
X38700Y6500D02*
D03*
D30*
Y3000D02*
D03*
D31*
X19200Y2550D02*
D03*
X2300Y7800D02*
D03*
D32*
X19200Y5050D02*
D03*
D37*
X4300Y7800D02*
D03*
D46*
X4900Y13300D02*
D03*
Y11700D02*
D03*
D47*
X47900Y7400D02*
D03*
X50800D02*
D03*
D48*
X29800Y9100D02*
D03*
X26800D02*
D03*
D49*
X32600Y39600D02*
D03*
X17600Y31850D02*
D03*
Y33350D02*
D03*
X29300Y33200D02*
D03*
Y31700D02*
D03*
X14100Y33150D02*
D03*
Y31650D02*
D03*
X27000Y31750D02*
D03*
Y33250D02*
D03*
X28000Y18750D02*
D03*
Y17250D02*
D03*
X24300Y33350D02*
D03*
Y31850D02*
D03*
X17500Y49550D02*
D03*
Y51050D02*
D03*
X20400Y33350D02*
D03*
Y31850D02*
D03*
X22400Y48650D02*
D03*
Y50150D02*
D03*
X20300Y15850D02*
D03*
Y17350D02*
D03*
X16400Y17200D02*
D03*
Y18700D02*
D03*
X13800Y18750D02*
D03*
Y17250D02*
D03*
X45800Y17750D02*
D03*
Y19250D02*
D03*
X42300Y46450D02*
D03*
Y44950D02*
D03*
X45500Y2350D02*
D03*
Y3850D02*
D03*
X40000Y19350D02*
D03*
Y17850D02*
D03*
X43600Y46450D02*
D03*
Y47950D02*
D03*
X54700Y3550D02*
D03*
Y2050D02*
D03*
X46400Y32350D02*
D03*
Y33850D02*
D03*
X48400Y17750D02*
D03*
Y19250D02*
D03*
X47100Y19250D02*
D03*
Y17750D02*
D03*
X50500Y35250D02*
D03*
Y33750D02*
D03*
X41300Y19350D02*
D03*
Y17850D02*
D03*
X41300Y35150D02*
D03*
Y33650D02*
D03*
X49100Y33750D02*
D03*
Y35250D02*
D03*
X45100Y32350D02*
D03*
Y33850D02*
D03*
D50*
X30200Y38950D02*
D03*
Y40250D02*
D03*
D51*
X49200Y3350D02*
D03*
Y1450D02*
D03*
X47200Y2400D02*
D03*
X52700Y2400D02*
D03*
X50700Y3350D02*
D03*
Y1450D02*
D03*
D52*
X21700Y33300D02*
D03*
Y31900D02*
D03*
X24900Y44600D02*
D03*
Y46000D02*
D03*
X15100Y18700D02*
D03*
Y17300D02*
D03*
X56000Y2200D02*
D03*
Y3600D02*
D03*
X29800Y7400D02*
D03*
Y6000D02*
D03*
D53*
X7350Y55350D02*
D03*
X24900Y54700D02*
D03*
X44850Y53350D02*
D03*
X29800Y12600D02*
D03*
X11600Y51100D02*
D03*
X38000Y39900D02*
D03*
X37600Y35100D02*
D03*
X38200Y54600D02*
D03*
X29600Y54700D02*
D03*
X19200Y45900D02*
D03*
X20400Y13200D02*
D03*
X37000Y12600D02*
D03*
D54*
X1050Y29200D02*
D03*
X2550D02*
D03*
X14450Y51100D02*
D03*
X15950D02*
D03*
X4350Y44000D02*
D03*
X2850D02*
D03*
X25050Y48600D02*
D03*
X23550D02*
D03*
X36150Y32500D02*
D03*
X34650D02*
D03*
X20250Y18600D02*
D03*
X21750D02*
D03*
X17650D02*
D03*
X19150D02*
D03*
X24350Y18600D02*
D03*
X22850D02*
D03*
X30850Y18600D02*
D03*
X29350D02*
D03*
X39550Y48500D02*
D03*
X38050D02*
D03*
X38750Y17900D02*
D03*
X37250D02*
D03*
X41050Y49900D02*
D03*
X39550D02*
D03*
X42250Y43400D02*
D03*
X40750D02*
D03*
X12550Y17200D02*
D03*
X11050D02*
D03*
X45450Y1200D02*
D03*
X43950D02*
D03*
X44350Y7400D02*
D03*
X45850D02*
D03*
X57350Y2100D02*
D03*
X58850D02*
D03*
X38750Y19200D02*
D03*
X37250D02*
D03*
X49950Y19200D02*
D03*
X51450D02*
D03*
X3750Y13300D02*
D03*
X2250D02*
D03*
X50450Y32500D02*
D03*
X48950D02*
D03*
D55*
X34000Y54200D02*
D03*
X35400D02*
D03*
X39400Y43400D02*
D03*
X38000D02*
D03*
X39500Y51300D02*
D03*
X40900D02*
D03*
X43200Y19200D02*
D03*
X44600D02*
D03*
X42700Y32500D02*
D03*
X41300D02*
D03*
X22000Y7200D02*
D03*
X23400D02*
D03*
X2300Y11600D02*
D03*
X3700D02*
D03*
D56*
X24300Y15400D02*
D03*
X16000Y14300D02*
D03*
D57*
X7050Y55400D02*
X7325Y55125D01*
X2200Y55300D02*
X7050Y55400D01*
X43950Y1200D02*
Y2400D01*
X45400Y3850D01*
X42675Y1225D02*
X43975D01*
X42650Y1200D02*
X42675Y1225D01*
X38700Y6500D02*
X38800D01*
X38672D02*
X38700D01*
X19900Y52497D02*
X19907Y52504D01*
X22352Y50198D02*
Y50848D01*
X19907Y52504D02*
X20696D01*
X22352Y50848D01*
Y50198D02*
X22400Y50150D01*
X17500Y51050D02*
X17550Y51100D01*
X19900D01*
X21590Y25100D02*
X25500D01*
X21590Y26800D02*
X21700D01*
X45400Y3850D02*
X45500D01*
X43950Y1200D02*
X43975Y1225D01*
X45500Y3850D02*
X45500Y3850D01*
X4900Y9900D02*
Y11700D01*
X4300Y7800D02*
Y9300D01*
X4900Y9900D01*
X44750Y53250D02*
X44900Y53100D01*
Y51200D02*
Y53100D01*
X44800Y51200D02*
X44900D01*
X44672Y51072D02*
X44800Y51200D01*
X44900Y46681D02*
Y48900D01*
X44669Y46450D02*
X44900Y46681D01*
X43600Y46450D02*
X44669D01*
X46026Y49929D02*
X50500Y45455D01*
X41079Y49929D02*
X46026D01*
X41050Y49900D02*
X41079Y49929D01*
X50500Y35250D02*
Y45455D01*
X42300Y46450D02*
X43600D01*
X40900Y51300D02*
X40950Y51350D01*
X42250D01*
X42300Y51400D01*
X23600Y50800D02*
X24700Y51900D01*
Y54500D01*
X24900Y54700D01*
X16000Y11300D02*
Y13300D01*
X17600Y33550D02*
Y34700D01*
X17500Y33450D02*
X17600Y33550D01*
X17500Y33450D02*
X17600Y33350D01*
X34000Y54100D02*
Y55800D01*
X33800Y54400D02*
X34000Y54200D01*
X24300Y21340D02*
Y23000D01*
X24260Y21300D02*
X24300Y21340D01*
X25639Y20361D02*
Y23115D01*
X24726Y24029D02*
X25639Y23115D01*
X17371Y24029D02*
X24726D01*
X4300Y37100D02*
X17371Y24029D01*
X22309Y33509D02*
X23000Y34200D01*
X23000D01*
X21700Y33300D02*
X21910Y33509D01*
X22309D01*
X23000Y34200D02*
X23691Y33509D01*
X24140D02*
X24300Y33350D01*
X23691Y33509D02*
X24140D01*
X30850Y18600D02*
Y21166D01*
X26916Y25100D02*
X30850Y21166D01*
X25500Y25100D02*
X26916D01*
X21700Y26800D02*
X21750Y26750D01*
X25450D01*
X25500Y26700D01*
X25639Y20361D02*
X27200Y18800D01*
X19000Y33400D02*
X20250D01*
X20400Y33250D01*
X17600Y31850D02*
X17650Y31800D01*
X20350D02*
X20400Y31850D01*
X17650Y31800D02*
X20350D01*
X17650Y30768D02*
X19180Y29238D01*
X17650Y30768D02*
Y31800D01*
X24350Y15450D02*
Y18600D01*
X24300Y15400D02*
X24350Y15450D01*
Y18600D02*
X25400D01*
X26750Y17250D02*
X28000D01*
X25400Y18600D02*
X26750Y17250D01*
X22123Y22273D02*
X22850Y21546D01*
Y18600D02*
Y21546D01*
X40900Y51300D02*
Y51350D01*
X29600Y53200D02*
Y54700D01*
X31720Y51080D02*
X35400D01*
X29600Y53200D02*
X31720Y51080D01*
X44750Y53250D02*
X44850Y53350D01*
X38000Y48600D02*
Y54100D01*
X11600Y51100D02*
X11700Y51200D01*
X14350D02*
X14450Y51100D01*
X11700Y51200D02*
X14350D01*
X2300Y7800D02*
X2300Y7800D01*
Y11600D01*
X2300Y11600D01*
X2550Y29200D02*
X2575Y29175D01*
Y27825D02*
Y29175D01*
Y27825D02*
X2600Y27800D01*
X1050Y29100D02*
Y31490D01*
X22000Y8600D02*
X22000Y8600D01*
X29800Y9100D02*
Y12600D01*
X37000D02*
X37100Y12700D01*
X38800Y16400D02*
X40000D01*
X37100Y12700D02*
Y14700D01*
X38800Y16400D01*
X40000D02*
Y17850D01*
X14100Y35400D02*
X16056Y37356D01*
X21760Y31760D02*
X21800Y31800D01*
X1300Y44200D02*
X1500Y44000D01*
X35400Y35100D02*
X37600D01*
X4300Y37100D02*
Y38600D01*
X35400Y51080D02*
Y54200D01*
X25050Y48600D02*
X25080Y48570D01*
X32500Y39600D02*
X32600D01*
X35420Y48520D02*
X38030D01*
X35460Y43400D02*
X38000D01*
X24255Y29243D02*
Y31795D01*
X26950Y31800D02*
X27000Y31750D01*
X30050Y36200D02*
X33000D01*
X29443Y38500D02*
X29737Y38206D01*
X1050Y31490D02*
X4200Y34640D01*
X29600Y54700D02*
X30350D01*
X22400Y48650D02*
X22425Y48625D01*
X32600Y39600D02*
Y48280D01*
X29300Y33200D02*
X31700D01*
X29300Y29278D02*
X29340Y29238D01*
X36180Y29769D02*
X38720D01*
X24300Y31800D02*
X26950D01*
X15950Y51100D02*
X17500D01*
X23550Y48600D02*
X23600Y48650D01*
X27400Y43400D02*
X27460Y43460D01*
X21720Y29238D02*
X21760Y29278D01*
X14100Y33150D02*
Y35400D01*
X28500Y40700D02*
X30200Y39000D01*
X34600Y34200D02*
Y34300D01*
X4200Y29200D02*
Y32100D01*
X4300Y49640D02*
X9540D01*
X34650Y28950D02*
X39600Y24000D01*
X36165Y29784D02*
X36180Y29769D01*
X4350Y41190D02*
Y44000D01*
X14100Y29238D02*
Y31650D01*
X37600Y35100D02*
X37650Y35150D01*
X16056Y37356D02*
X43644D01*
X21760Y29278D02*
Y31760D01*
X37650Y35150D02*
X41300D01*
X1500Y44000D02*
X2850D01*
X27000Y33250D02*
X27100D01*
X31106Y38206D02*
X32500Y39600D01*
X25080Y48570D02*
X27430D01*
X35400Y48540D02*
X35420Y48520D01*
X35400Y43460D02*
X35460Y43400D01*
X24255Y29243D02*
X24260Y29238D01*
X28800Y43400D02*
X30200Y42000D01*
Y38950D02*
Y39000D01*
X29737Y38206D02*
X31106D01*
X22425Y48625D02*
X23525D01*
X31700Y33200D02*
X35000Y36500D01*
X27230Y51210D02*
X27235Y51205D01*
X29300Y29278D02*
Y31700D01*
X27400Y43400D02*
X28800D01*
X28700Y38500D02*
X29443D01*
X28500Y40700D02*
Y40800D01*
X34600Y34300D02*
X35400Y35100D01*
X14100Y29238D02*
X16640D01*
X9540Y49640D02*
X11000Y51100D01*
X34650Y28950D02*
Y32500D01*
X14100Y31650D02*
X14100Y31650D01*
X35400Y46000D02*
X38800D01*
X23600Y48650D02*
Y50800D01*
X24900Y43200D02*
X24900Y43200D01*
X27100Y33250D02*
X30050Y36200D01*
X27430Y48570D02*
X27460Y48540D01*
X32600Y48280D02*
X35400Y51080D01*
X24250Y31900D02*
X24255Y31895D01*
X30200Y40250D02*
Y42000D01*
X4200Y29200D02*
X11050Y22350D01*
X23525Y48625D02*
X23550Y48600D01*
X35000Y36500D02*
X43200D01*
X36165Y29784D02*
Y32485D01*
X4350Y41190D02*
X4400Y41140D01*
X26800Y29238D02*
X29340D01*
X39850Y44950D02*
X42300D01*
X38800Y46000D02*
X39850Y44950D01*
X42275Y43425D02*
Y44925D01*
X42250Y43400D02*
X42275Y43425D01*
X43644Y37356D02*
X46400Y34600D01*
X39400Y43400D02*
X40750D01*
X38000Y39900D02*
Y43400D01*
Y39900D02*
X38000Y39900D01*
X46400Y33800D02*
Y34600D01*
X39100Y34400D02*
X39900Y33600D01*
Y29753D02*
Y33600D01*
X49100Y35250D02*
Y36200D01*
X48600Y36700D02*
X49100Y36200D01*
X47900Y7400D02*
X47900Y7400D01*
X39525Y49900D02*
Y51275D01*
X16400Y18700D02*
Y20000D01*
X16600Y20200D01*
X13825Y18725D02*
X16375D01*
X16600Y20200D02*
Y21260D01*
X11050Y17200D02*
Y22350D01*
X38050Y48500D02*
Y48600D01*
X45100Y33800D02*
Y34600D01*
X43200Y36500D02*
X45100Y34600D01*
X42000Y47900D02*
X42025Y47925D01*
X43575D01*
X36149Y21800D02*
X36180Y21831D01*
X33200Y21800D02*
X36149D01*
X45100Y32350D02*
X46400D01*
X42700Y33900D02*
X42700Y33900D01*
X42700Y32400D02*
Y33900D01*
X38030Y48520D02*
X38050Y48500D01*
X39525Y48525D02*
Y49900D01*
Y48525D02*
X39550Y48500D01*
X39500Y51300D02*
X39525Y51275D01*
X39900Y29753D02*
X45413Y24240D01*
X46370Y29799D02*
Y32270D01*
X46340Y29769D02*
X46370Y29799D01*
X27200Y18800D02*
X27950D01*
X28000Y18750D01*
X2250Y13300D02*
X2250Y13300D01*
X12550Y17200D02*
X12575Y17225D01*
X13775D01*
X13800Y17250D01*
X16350Y17250D02*
X16400Y17200D01*
Y14700D02*
Y17200D01*
X20300Y15850D02*
X20325Y15825D01*
X15150Y17250D02*
X16350D01*
X15100Y17300D02*
X15150Y17250D01*
X20250Y18600D02*
X20275Y18575D01*
Y17375D02*
Y18575D01*
Y17375D02*
X20300Y17350D01*
X17650Y21666D02*
X18257Y22273D01*
X22123D01*
X19150Y18600D02*
X20250D01*
X21735Y18615D02*
X21750Y18600D01*
X21735Y18615D02*
Y21285D01*
X21720Y21300D02*
X21735Y21285D01*
X16375Y18725D02*
X16400Y18700D01*
X13800Y18750D02*
X13825Y18725D01*
X16600Y21260D02*
X16640Y21300D01*
X14100D02*
X15073Y22273D01*
X17043D01*
X17650Y21666D01*
Y18600D02*
Y21666D01*
X19165Y21285D02*
X19180Y21300D01*
X19165Y18615D02*
Y21285D01*
X19150Y18600D02*
X19165Y18615D01*
X29300Y18750D02*
X29320Y18770D01*
Y21280D01*
X29340Y21300D01*
X26800D02*
X29340D01*
X45413Y24240D02*
X59800D01*
X44300Y18000D02*
X44450Y18150D01*
Y19050D01*
X44600Y19200D01*
X45800Y16400D02*
X45800Y16400D01*
X45800Y16400D02*
Y17750D01*
X55100Y21600D02*
X55150Y21650D01*
X59750D01*
X59800Y21700D01*
X48400Y17750D02*
X57150D01*
X59800Y15100D01*
X47100Y17750D02*
X48400D01*
X48400Y17750D01*
X37904Y22804D02*
X47096D01*
X47800Y22100D01*
Y21450D02*
Y22100D01*
Y21450D02*
X49950Y19300D01*
Y19200D02*
Y19300D01*
X39600Y24000D02*
X42500D01*
X42400Y18850D02*
Y20800D01*
X41400Y17850D02*
X42400Y18850D01*
X41300Y17850D02*
X41400D01*
X36180Y18320D02*
X36600Y17900D01*
X36180Y18320D02*
Y21831D01*
X36600Y17900D02*
X37250D01*
X37250Y17900D01*
X37250Y22150D02*
X37904Y22804D01*
X43730Y20680D02*
Y21761D01*
X43272Y20222D02*
X43730Y20680D01*
X43272Y19272D02*
Y20222D01*
X43730Y21761D02*
X43800Y21831D01*
X37250Y19200D02*
Y22150D01*
X38735Y17915D02*
Y21816D01*
X38720Y21831D02*
X38735Y21816D01*
Y17915D02*
X38750Y17900D01*
Y19200D02*
X38750Y19200D01*
X48880Y21831D02*
X51420D01*
X51410Y21821D02*
X51420Y21831D01*
X51410Y19260D02*
Y21821D01*
X51400Y19250D02*
X51410Y19260D01*
X46340Y21723D02*
Y21831D01*
Y21723D02*
X47100Y20963D01*
Y19250D02*
Y20963D01*
X45800Y19250D02*
X47100D01*
X48400D01*
X48400Y19250D01*
X50475Y33725D02*
X50500Y33750D01*
X50475Y32375D02*
Y33725D01*
X50450Y32350D02*
X50475Y32375D01*
X50500Y30689D02*
X51420Y29769D01*
X50450Y32350D02*
X50500Y32300D01*
Y30689D02*
Y32300D01*
X48975Y33675D02*
X49000Y33700D01*
X48975Y32375D02*
Y33675D01*
X48950Y32350D02*
X48975Y32375D01*
X48880Y29769D02*
X48915Y29804D01*
Y32315D02*
X48950Y32350D01*
X48915Y29804D02*
Y32315D01*
X41280Y32380D02*
X41300Y32400D01*
X41280Y29789D02*
Y32380D01*
X41260Y29769D02*
X41280Y29789D01*
X9760Y3240D02*
X10060D01*
X43200Y19200D02*
X43272Y19272D01*
X40000Y19350D02*
X41300D01*
X41280Y19370D02*
X41300Y19350D01*
X41280Y19370D02*
Y21811D01*
X41260Y21831D02*
X41280Y21811D01*
X37250Y17900D02*
Y18000D01*
X43700Y21731D02*
X43800Y21831D01*
X21720Y21300D02*
X21730Y21310D01*
X41300Y32400D02*
Y33650D01*
X4900Y13300D02*
X4900Y13300D01*
X3750Y13300D02*
X4900D01*
X3700Y11600D02*
X3750Y11650D01*
X4850D01*
X4900Y11700D01*
X2250Y13300D02*
X2300Y13250D01*
Y11600D02*
Y13250D01*
X2600Y7800D02*
X2600Y7800D01*
D58*
X38800Y6500D02*
X39700Y7400D01*
X37772Y7400D02*
X38672Y6500D01*
X29800Y7400D02*
X37772D01*
X39700Y7400D02*
X44350D01*
X23400Y7200D02*
X24900D01*
X54700Y3550D02*
Y5000D01*
X51100Y7400D02*
X52300D01*
X52400Y7300D02*
X54700Y5000D01*
X24900Y43200D02*
Y44600D01*
D59*
X29800Y7400D02*
Y9100D01*
X28147Y4753D02*
X29687D01*
X26800Y6100D02*
Y9100D01*
Y6100D02*
X28147Y4753D01*
X29687D02*
X31240Y3200D01*
D60*
X44350Y7400D02*
X44350Y7400D01*
X29800Y6000D02*
X30084D01*
X30084Y6000D02*
X31400D01*
X30084Y6000D02*
X30084Y6000D01*
X19200Y2550D02*
X19950Y1800D01*
X24516D02*
X25916Y3200D01*
X19950Y1800D02*
X24516D01*
X19200Y2550D02*
X22000Y5350D01*
X25916Y3200D02*
X26160D01*
X12600D02*
X18556D01*
X19200Y2556D01*
Y2550D02*
Y2556D01*
X22000Y5350D02*
Y7200D01*
Y8600D01*
X45850Y7400D02*
X47900D01*
D61*
X17500Y49550D02*
X18550D01*
X19177Y46023D02*
Y48923D01*
X18550Y49550D02*
X19177Y48923D01*
X23200Y46000D02*
X24900D01*
X19200D02*
X23200D01*
X24900D02*
X27460D01*
X56940Y3600D02*
X57350Y3190D01*
Y2100D02*
Y3190D01*
X54850Y3600D02*
X56940D01*
X58850Y4950D02*
X59900Y6000D01*
X58850Y2100D02*
Y4950D01*
D62*
X2200Y55300D02*
D03*
X61800Y2200D02*
D03*
X2200D02*
D03*
X61800Y55400D02*
D03*
D63*
X59800Y17640D02*
D03*
Y29320D02*
D03*
X59900Y8540D02*
D03*
X4200Y32100D02*
D03*
X4300Y47100D02*
D03*
Y41140D02*
D03*
D64*
X59800Y15100D02*
D03*
Y12560D02*
D03*
Y21700D02*
D03*
Y24240D02*
D03*
Y26780D02*
D03*
X59900Y6000D02*
D03*
X4200Y34640D02*
D03*
X4300Y49640D02*
D03*
Y38600D02*
D03*
D65*
X35400Y43460D02*
D03*
D66*
Y46000D02*
D03*
Y48540D02*
D03*
Y51080D02*
D03*
X27460D02*
D03*
Y48540D02*
D03*
Y46000D02*
D03*
Y43460D02*
D03*
D67*
X29340Y21300D02*
D03*
X26800D02*
D03*
X24260D02*
D03*
X21720D02*
D03*
X19180D02*
D03*
X16640D02*
D03*
X14100D02*
D03*
Y29238D02*
D03*
X16640D02*
D03*
X19180D02*
D03*
X21720D02*
D03*
X24260D02*
D03*
X26800D02*
D03*
X36180Y29769D02*
D03*
X38720D02*
D03*
X41260D02*
D03*
X43800D02*
D03*
X46340D02*
D03*
X48880D02*
D03*
X51420D02*
D03*
Y21831D02*
D03*
X48880D02*
D03*
X46340D02*
D03*
X43800D02*
D03*
X41260D02*
D03*
X38720D02*
D03*
D68*
X29340Y29238D02*
D03*
X36180Y21831D02*
D03*
D69*
X26160Y3200D02*
D03*
X28700D02*
D03*
X10060D02*
D03*
X7520D02*
D03*
D70*
X31240D02*
D03*
X12600D02*
D03*
D71*
X19900Y51100D02*
D03*
Y52497D02*
D03*
D72*
Y53894D02*
D03*
D73*
X34600Y34200D02*
D03*
X33000Y36200D02*
D03*
D74*
X42650Y1200D02*
D03*
X24900Y7200D02*
D03*
X21590Y26800D02*
D03*
Y25100D02*
D03*
X31400Y6000D02*
D03*
X44900Y51200D02*
D03*
X44900Y48900D02*
D03*
X42300Y51400D02*
D03*
X16000Y11300D02*
D03*
X17600Y34700D02*
D03*
X34000Y55800D02*
D03*
X24300Y23000D02*
D03*
X23000Y34200D02*
D03*
X25500Y25100D02*
D03*
Y26700D02*
D03*
X19000Y33400D02*
D03*
X2600Y27800D02*
D03*
X22000Y8600D02*
D03*
X24900Y43200D02*
D03*
X1300Y44200D02*
D03*
X28700Y38500D02*
D03*
X28500Y40800D02*
D03*
X23200Y46000D02*
D03*
X48600Y36700D02*
D03*
X42000Y47900D02*
D03*
X33200Y21800D02*
D03*
X42700Y33900D02*
D03*
X44300Y18000D02*
D03*
X45800Y16400D02*
D03*
X40000D02*
D03*
X55100Y21600D02*
D03*
X42400Y20800D02*
D03*
X42500Y24000D02*
D03*
M02*
