M48
;Layer_Color=9474304
;FILE_FORMAT=4:3
METRIC,TZ
;TYPE=PLATED
T1F00S00C0.650
T2F00S00C0.711
T3F00S00C0.750
T4F00S00C0.759
T5F00S00C0.762
T6F00S00C0.800
T7F00S00C0.900
T8F00S00C1.000
T9F00S00C1.100
T10F00S00C2.000
%
T01
X2300Y7800
X4300
X19200Y5050
Y2550
T02
X22000Y8600
X24900Y7200
X31400Y6000
X44000Y2650
X45800Y16400
X44300Y18000
X42400Y20800
X42500Y24000
X40000Y16400
X42700Y33900
X48600Y36700
X44900Y48900
X42000Y47900
X55100Y21600
X33200Y21800
X24300Y23000
X25500Y25100
Y26700
X21590Y26800
Y25100
X23000Y34200
X19000Y33400
X17600Y34700
X28700Y38500
X28500Y40800
X24900Y43200
X23200Y46000
X1300Y44200
X2600Y27800
X16000Y11300
X34000Y55800
X42300Y51400
X44900Y51200
T03
X38700Y2950
Y6450
T04
X36180Y21831
X38720
X41260
X43800
X46340
X48880
X51420
Y29769
X48880
X46340
X43800
X41260
X38720
X36180
X29340Y29238
X26800
X24260
X21720
X19180
X16640
X14100
Y21300
X16640
X19180
X21720
X24260
X26800
X29340
T05
X34600Y34200
X33000Y36200
T06
X19900Y51100
Y52497
Y53894
T07
X59900Y6000
Y8540
X59800Y12560
Y15100
Y17640
Y21700
Y24240
Y26780
Y29320
X4200Y32100
Y34640
X4300Y38600
Y41140
Y47100
Y49640
T08
X35400Y43460
Y46000
Y48540
X27460
Y46000
Y43460
Y51080
X35400
T09
X7520Y3200
X10060
X12600
X26160
X28700
X31240
T10
X2300Y2300
X61700
X2350Y55250
X61700Y55300
M30
