G04*
G04 #@! TF.GenerationSoftware,Altium Limited,Altium Designer,20.1.14 (287)*
G04*
G04 Layer_Color=8388736*
%FSLAX43Y43*%
%MOMM*%
G71*
G04*
G04 #@! TF.SameCoordinates,8584C56D-DC42-407E-A252-30E1330DB2E8*
G04*
G04*
G04 #@! TF.FilePolarity,Negative*
G04*
G01*
G75*
%ADD17R,1.003X1.003*%
%ADD18R,1.503X2.003*%
%ADD19R,1.203X2.003*%
%ADD20R,1.103X0.903*%
%ADD21R,0.803X0.903*%
%ADD22R,1.203X0.803*%
%ADD23R,1.103X1.003*%
%ADD24R,3.703X2.203*%
%ADD25R,0.903X1.103*%
%ADD26R,1.003X1.103*%
%ADD27R,2.203X3.703*%
%ADD28C,1.250*%
%ADD29R,1.250X1.250*%
%ADD30C,1.150*%
%ADD31R,1.150X1.150*%
%ADD32R,1.854X1.854*%
%ADD33C,1.854*%
%ADD34R,1.803X1.803*%
%ADD35C,1.803*%
%ADD36R,1.150X1.150*%
%ADD37C,1.362*%
%ADD38R,1.362X1.362*%
%ADD39C,1.903*%
%ADD40R,1.903X1.903*%
%ADD41C,1.253*%
%ADD42R,1.253X1.253*%
%ADD43C,4.203*%
%ADD44C,1.727*%
%ADD45C,1.473*%
D17*
X4900Y13300D02*
D03*
Y11700D02*
D03*
D18*
X47900Y7400D02*
D03*
X50800D02*
D03*
D19*
X29800Y9100D02*
D03*
X26800D02*
D03*
D20*
X32600Y39600D02*
D03*
X17600Y31850D02*
D03*
Y33350D02*
D03*
X29300Y33200D02*
D03*
Y31700D02*
D03*
X14100Y33150D02*
D03*
Y31650D02*
D03*
X27000Y31750D02*
D03*
Y33250D02*
D03*
X28000Y18750D02*
D03*
Y17250D02*
D03*
X24300Y33350D02*
D03*
Y31850D02*
D03*
X17500Y49550D02*
D03*
Y51050D02*
D03*
X20400Y33350D02*
D03*
Y31850D02*
D03*
X22400Y48650D02*
D03*
Y50150D02*
D03*
X20300Y15850D02*
D03*
Y17350D02*
D03*
X16400Y17200D02*
D03*
Y18700D02*
D03*
X13800Y18750D02*
D03*
Y17250D02*
D03*
X45800Y17750D02*
D03*
Y19250D02*
D03*
X42300Y46450D02*
D03*
Y44950D02*
D03*
X45500Y2350D02*
D03*
Y3850D02*
D03*
X40000Y19350D02*
D03*
Y17850D02*
D03*
X43600Y46450D02*
D03*
Y47950D02*
D03*
X54700Y3550D02*
D03*
Y2050D02*
D03*
X46400Y32350D02*
D03*
Y33850D02*
D03*
X48400Y17750D02*
D03*
Y19250D02*
D03*
X47100Y19250D02*
D03*
Y17750D02*
D03*
X50500Y35250D02*
D03*
Y33750D02*
D03*
X41300Y19350D02*
D03*
Y17850D02*
D03*
X41300Y35150D02*
D03*
Y33650D02*
D03*
X49100Y33750D02*
D03*
Y35250D02*
D03*
X45100Y32350D02*
D03*
Y33850D02*
D03*
D21*
X30200Y38950D02*
D03*
Y40250D02*
D03*
D22*
X49200Y3350D02*
D03*
Y1450D02*
D03*
X47200Y2400D02*
D03*
X52700Y2400D02*
D03*
X50700Y3350D02*
D03*
Y1450D02*
D03*
D23*
X21700Y33300D02*
D03*
Y31900D02*
D03*
X24900Y44600D02*
D03*
Y46000D02*
D03*
X15100Y18700D02*
D03*
Y17300D02*
D03*
X56000Y2200D02*
D03*
Y3600D02*
D03*
X29800Y7400D02*
D03*
Y6000D02*
D03*
D24*
X7500Y55200D02*
D03*
X24900Y54700D02*
D03*
X44850Y53350D02*
D03*
X29800Y12600D02*
D03*
X11600Y51100D02*
D03*
X38000Y39900D02*
D03*
X37600Y35100D02*
D03*
X38200Y54600D02*
D03*
X29600Y54700D02*
D03*
X19200Y45900D02*
D03*
X20400Y13200D02*
D03*
X37000Y12600D02*
D03*
D25*
X1050Y29200D02*
D03*
X2550D02*
D03*
X14450Y51100D02*
D03*
X15950D02*
D03*
X4350Y44000D02*
D03*
X2850D02*
D03*
X25050Y48600D02*
D03*
X23550D02*
D03*
X36150Y32500D02*
D03*
X34650D02*
D03*
X20250Y18600D02*
D03*
X21750D02*
D03*
X17650D02*
D03*
X19150D02*
D03*
X24350Y18600D02*
D03*
X22850D02*
D03*
X30850Y18600D02*
D03*
X29350D02*
D03*
X39550Y48500D02*
D03*
X38050D02*
D03*
X38750Y17900D02*
D03*
X37250D02*
D03*
X41050Y49900D02*
D03*
X39550D02*
D03*
X42250Y43400D02*
D03*
X40750D02*
D03*
X12550Y17200D02*
D03*
X11050D02*
D03*
X45450Y1200D02*
D03*
X43950D02*
D03*
X44350Y7400D02*
D03*
X45850D02*
D03*
X57350Y2100D02*
D03*
X58850D02*
D03*
X38750Y19200D02*
D03*
X37250D02*
D03*
X49950Y19200D02*
D03*
X51450D02*
D03*
X3750Y13300D02*
D03*
X2250D02*
D03*
X50450Y32500D02*
D03*
X48950D02*
D03*
D26*
X34000Y54200D02*
D03*
X35400D02*
D03*
X39400Y43400D02*
D03*
X38000D02*
D03*
X39500Y51300D02*
D03*
X40900D02*
D03*
X43200Y19200D02*
D03*
X44600D02*
D03*
X42700Y32500D02*
D03*
X41300D02*
D03*
X22000Y7200D02*
D03*
X23400D02*
D03*
X2300Y11600D02*
D03*
X3700D02*
D03*
D27*
X24300Y15400D02*
D03*
X16000Y14300D02*
D03*
D28*
X38700Y7385D02*
D03*
D29*
Y2800D02*
D03*
D30*
X19200Y2550D02*
D03*
X2300Y7800D02*
D03*
D31*
X19200Y5050D02*
D03*
D32*
X59800Y17640D02*
D03*
Y29320D02*
D03*
X59900Y8540D02*
D03*
X4200Y32100D02*
D03*
X4300Y47100D02*
D03*
Y41140D02*
D03*
D33*
X59800Y15100D02*
D03*
Y12560D02*
D03*
Y21700D02*
D03*
Y24240D02*
D03*
Y26780D02*
D03*
X59900Y6000D02*
D03*
X4200Y34640D02*
D03*
X4300Y49640D02*
D03*
Y38600D02*
D03*
D34*
X35400Y43460D02*
D03*
D35*
Y46000D02*
D03*
Y48540D02*
D03*
Y51080D02*
D03*
X27460D02*
D03*
Y48540D02*
D03*
Y46000D02*
D03*
Y43460D02*
D03*
D36*
X4300Y7800D02*
D03*
D37*
X29340Y21300D02*
D03*
X26800D02*
D03*
X24260D02*
D03*
X21720D02*
D03*
X19180D02*
D03*
X16640D02*
D03*
X14100D02*
D03*
Y29238D02*
D03*
X16640D02*
D03*
X19180D02*
D03*
X21720D02*
D03*
X24260D02*
D03*
X26800D02*
D03*
X36180Y29769D02*
D03*
X38720D02*
D03*
X41260D02*
D03*
X43800D02*
D03*
X46340D02*
D03*
X48880D02*
D03*
X51420D02*
D03*
Y21831D02*
D03*
X48880D02*
D03*
X46340D02*
D03*
X43800D02*
D03*
X41260D02*
D03*
X38720D02*
D03*
D38*
X29340Y29238D02*
D03*
X36180Y21831D02*
D03*
D39*
X26160Y3200D02*
D03*
X28700D02*
D03*
X10060D02*
D03*
X7520D02*
D03*
D40*
X31240D02*
D03*
X12600D02*
D03*
D41*
X19900Y51100D02*
D03*
Y52497D02*
D03*
D42*
Y53894D02*
D03*
D43*
X2350Y55250D02*
D03*
X61700Y2300D02*
D03*
X2300D02*
D03*
X61700Y55300D02*
D03*
D44*
X34600Y34200D02*
D03*
X33000Y36200D02*
D03*
D45*
X24900Y7200D02*
D03*
X21590Y26800D02*
D03*
Y25100D02*
D03*
X31400Y6000D02*
D03*
X44000Y2650D02*
D03*
X44900Y51200D02*
D03*
X44900Y48900D02*
D03*
X42300Y51400D02*
D03*
X16000Y11300D02*
D03*
X17600Y34700D02*
D03*
X34000Y55800D02*
D03*
X24300Y23000D02*
D03*
X23000Y34200D02*
D03*
X25500Y25100D02*
D03*
Y26700D02*
D03*
X19000Y33400D02*
D03*
X2600Y27800D02*
D03*
X22000Y8600D02*
D03*
X24900Y43200D02*
D03*
X1300Y44200D02*
D03*
X28700Y38500D02*
D03*
X28500Y40800D02*
D03*
X23200Y46000D02*
D03*
X48600Y36700D02*
D03*
X42000Y47900D02*
D03*
X33200Y21800D02*
D03*
X42700Y33900D02*
D03*
X44300Y18000D02*
D03*
X45800Y16400D02*
D03*
X40000D02*
D03*
X55100Y21600D02*
D03*
X42400Y20800D02*
D03*
X42500Y24000D02*
D03*
M02*
