G04*
G04 #@! TF.GenerationSoftware,Altium Limited,Altium Designer,20.1.14 (287)*
G04*
G04 Layer_Color=16711935*
%FSLAX43Y43*%
%MOMM*%
G71*
G04*
G04 #@! TF.SameCoordinates,8584C56D-DC42-407E-A252-30E1330DB2E8*
G04*
G04*
G04 #@! TF.FilePolarity,Negative*
G04*
G01*
G75*
%ADD28C,1.250*%
%ADD29R,1.250X1.250*%
%ADD30C,1.150*%
%ADD31R,1.150X1.150*%
%ADD32R,1.854X1.854*%
%ADD33C,1.854*%
%ADD34R,1.803X1.803*%
%ADD35C,1.803*%
%ADD36R,1.150X1.150*%
%ADD37C,1.362*%
%ADD38R,1.362X1.362*%
%ADD39C,1.903*%
%ADD40R,1.903X1.903*%
%ADD41C,1.253*%
%ADD42R,1.253X1.253*%
%ADD43C,4.203*%
%ADD44C,1.727*%
%ADD45C,1.473*%
D28*
X38700Y7385D02*
D03*
D29*
Y2800D02*
D03*
D30*
X19200Y2550D02*
D03*
X2300Y7800D02*
D03*
D31*
X19200Y5050D02*
D03*
D32*
X59800Y17640D02*
D03*
Y29320D02*
D03*
X59900Y8540D02*
D03*
X4200Y32100D02*
D03*
X4300Y47100D02*
D03*
Y41140D02*
D03*
D33*
X59800Y15100D02*
D03*
Y12560D02*
D03*
Y21700D02*
D03*
Y24240D02*
D03*
Y26780D02*
D03*
X59900Y6000D02*
D03*
X4200Y34640D02*
D03*
X4300Y49640D02*
D03*
Y38600D02*
D03*
D34*
X35400Y43460D02*
D03*
D35*
Y46000D02*
D03*
Y48540D02*
D03*
Y51080D02*
D03*
X27460D02*
D03*
Y48540D02*
D03*
Y46000D02*
D03*
Y43460D02*
D03*
D36*
X4300Y7800D02*
D03*
D37*
X29340Y21300D02*
D03*
X26800D02*
D03*
X24260D02*
D03*
X21720D02*
D03*
X19180D02*
D03*
X16640D02*
D03*
X14100D02*
D03*
Y29238D02*
D03*
X16640D02*
D03*
X19180D02*
D03*
X21720D02*
D03*
X24260D02*
D03*
X26800D02*
D03*
X36180Y29769D02*
D03*
X38720D02*
D03*
X41260D02*
D03*
X43800D02*
D03*
X46340D02*
D03*
X48880D02*
D03*
X51420D02*
D03*
Y21831D02*
D03*
X48880D02*
D03*
X46340D02*
D03*
X43800D02*
D03*
X41260D02*
D03*
X38720D02*
D03*
D38*
X29340Y29238D02*
D03*
X36180Y21831D02*
D03*
D39*
X26160Y3200D02*
D03*
X28700D02*
D03*
X10060D02*
D03*
X7520D02*
D03*
D40*
X31240D02*
D03*
X12600D02*
D03*
D41*
X19900Y51100D02*
D03*
Y52497D02*
D03*
D42*
Y53894D02*
D03*
D43*
X2350Y55250D02*
D03*
X61700Y2300D02*
D03*
X2300D02*
D03*
X61700Y55300D02*
D03*
D44*
X34600Y34200D02*
D03*
X33000Y36200D02*
D03*
D45*
X24900Y7200D02*
D03*
X21590Y26800D02*
D03*
Y25100D02*
D03*
X31400Y6000D02*
D03*
X44000Y2650D02*
D03*
X44900Y51200D02*
D03*
X44900Y48900D02*
D03*
X42300Y51400D02*
D03*
X16000Y11300D02*
D03*
X17600Y34700D02*
D03*
X34000Y55800D02*
D03*
X24300Y23000D02*
D03*
X23000Y34200D02*
D03*
X25500Y25100D02*
D03*
Y26700D02*
D03*
X19000Y33400D02*
D03*
X2600Y27800D02*
D03*
X22000Y8600D02*
D03*
X24900Y43200D02*
D03*
X1300Y44200D02*
D03*
X28700Y38500D02*
D03*
X28500Y40800D02*
D03*
X23200Y46000D02*
D03*
X48600Y36700D02*
D03*
X42000Y47900D02*
D03*
X33200Y21800D02*
D03*
X42700Y33900D02*
D03*
X44300Y18000D02*
D03*
X45800Y16400D02*
D03*
X40000D02*
D03*
X55100Y21600D02*
D03*
X42400Y20800D02*
D03*
X42500Y24000D02*
D03*
M02*
