G04*
G04 #@! TF.GenerationSoftware,Altium Limited,Altium Designer,20.1.14 (287)*
G04*
G04 Layer_Physical_Order=2*
G04 Layer_Color=16711680*
%FSLAX43Y43*%
%MOMM*%
G71*
G04*
G04 #@! TF.SameCoordinates,8584C56D-DC42-407E-A252-30E1330DB2E8*
G04*
G04*
G04 #@! TF.FilePolarity,Positive*
G04*
G01*
G75*
%ADD28C,1.250*%
%ADD29R,1.250X1.250*%
%ADD30C,1.150*%
%ADD31R,1.150X1.150*%
%ADD36R,1.150X1.150*%
%ADD57C,0.800*%
%ADD58C,0.381*%
%ADD62R,1.651X1.651*%
%ADD63C,1.651*%
%ADD64R,1.600X1.600*%
%ADD65C,1.600*%
%ADD66C,1.159*%
%ADD67R,1.159X1.159*%
%ADD68C,1.700*%
%ADD69R,1.700X1.700*%
%ADD70C,1.050*%
%ADD71R,1.050X1.050*%
%ADD72C,4.000*%
%ADD73C,1.524*%
%ADD74C,1.270*%
G36*
X60571Y57396D02*
X60602Y57269D01*
X60442Y57183D01*
X60098Y56902D01*
X59817Y56558D01*
X59607Y56167D01*
X59479Y55742D01*
X59460Y55554D01*
X61700D01*
Y55300D01*
X61954D01*
Y53060D01*
X62142Y53079D01*
X62567Y53208D01*
X62958Y53417D01*
X63302Y53698D01*
X63583Y54042D01*
X63669Y54202D01*
X63796Y54171D01*
X63796Y3429D01*
X63669Y3398D01*
X63583Y3558D01*
X63302Y3902D01*
X62958Y4183D01*
X62567Y4392D01*
X62142Y4521D01*
X61954Y4540D01*
Y2300D01*
X61700D01*
Y2046D01*
X59460D01*
X59479Y1858D01*
X59607Y1433D01*
X59817Y1042D01*
X60098Y698D01*
X60442Y417D01*
X60602Y331D01*
X60571Y204D01*
X3429Y204D01*
X3398Y331D01*
X3558Y417D01*
X3902Y698D01*
X4183Y1042D01*
X4392Y1433D01*
X4521Y1858D01*
X4540Y2046D01*
X2300D01*
Y2300D01*
X2046D01*
Y4540D01*
X1858Y4521D01*
X1433Y4392D01*
X1042Y4183D01*
X698Y3902D01*
X417Y3558D01*
X331Y3398D01*
X204Y3429D01*
X204Y54214D01*
X331Y54246D01*
X467Y53992D01*
X748Y53648D01*
X1092Y53367D01*
X1483Y53158D01*
X1908Y53029D01*
X2096Y53010D01*
Y55250D01*
X2350D01*
Y55504D01*
X4590D01*
X4571Y55692D01*
X4443Y56117D01*
X4233Y56508D01*
X3952Y56852D01*
X3608Y57133D01*
X3354Y57269D01*
X3386Y57396D01*
X60571Y57396D01*
D02*
G37*
%LPC*%
G36*
X20679Y54673D02*
X20154D01*
Y54148D01*
X20679D01*
Y54673D01*
D02*
G37*
G36*
X19646D02*
X19121D01*
Y54148D01*
X19646D01*
Y54673D01*
D02*
G37*
G36*
X61446Y55046D02*
X59460D01*
X59479Y54858D01*
X59607Y54433D01*
X59817Y54042D01*
X60098Y53698D01*
X60442Y53417D01*
X60833Y53208D01*
X61258Y53079D01*
X61446Y53060D01*
Y55046D01*
D02*
G37*
G36*
X4590Y54996D02*
X2604D01*
Y53010D01*
X2792Y53029D01*
X3217Y53158D01*
X3608Y53367D01*
X3952Y53648D01*
X4233Y53992D01*
X4443Y54383D01*
X4571Y54808D01*
X4590Y54996D01*
D02*
G37*
G36*
X27714Y52110D02*
Y51334D01*
X28490D01*
X28487Y51355D01*
X28381Y51612D01*
X28212Y51832D01*
X27992Y52001D01*
X27735Y52107D01*
X27714Y52110D01*
D02*
G37*
G36*
X27206D02*
X27185Y52107D01*
X26928Y52001D01*
X26708Y51832D01*
X26539Y51612D01*
X26433Y51355D01*
X26430Y51334D01*
X27206D01*
Y52110D01*
D02*
G37*
G36*
X20679Y53640D02*
X19900D01*
X19121D01*
Y53115D01*
X19317D01*
X19359Y52988D01*
X19264Y52864D01*
X19191Y52687D01*
X19166Y52497D01*
X19191Y52307D01*
X19264Y52130D01*
X19381Y51978D01*
X19522Y51869D01*
X19530Y51799D01*
X19522Y51728D01*
X19381Y51619D01*
X19264Y51467D01*
X19191Y51290D01*
X19166Y51100D01*
X19191Y50910D01*
X19264Y50733D01*
X19381Y50581D01*
X19533Y50464D01*
X19710Y50391D01*
X19900Y50366D01*
X20090Y50391D01*
X20267Y50464D01*
X20419Y50581D01*
X20536Y50733D01*
X20609Y50910D01*
X20634Y51100D01*
X20609Y51290D01*
X20536Y51467D01*
X20419Y51619D01*
X20278Y51728D01*
X20270Y51799D01*
X20278Y51869D01*
X20419Y51978D01*
X20536Y52130D01*
X20609Y52307D01*
X20634Y52497D01*
X20609Y52687D01*
X20536Y52864D01*
X20441Y52988D01*
X20483Y53115D01*
X20679D01*
Y53640D01*
D02*
G37*
G36*
X35400Y52092D02*
X35138Y52057D01*
X34894Y51956D01*
X34685Y51795D01*
X34524Y51586D01*
X34423Y51342D01*
X34388Y51080D01*
X34423Y50818D01*
X34524Y50574D01*
X34685Y50365D01*
X34894Y50204D01*
X35138Y50103D01*
X35400Y50068D01*
X35662Y50103D01*
X35906Y50204D01*
X36115Y50365D01*
X36276Y50574D01*
X36377Y50818D01*
X36412Y51080D01*
X36377Y51342D01*
X36276Y51586D01*
X36115Y51795D01*
X35906Y51956D01*
X35662Y52057D01*
X35400Y52092D01*
D02*
G37*
G36*
X28490Y50826D02*
X27714D01*
Y50050D01*
X27735Y50053D01*
X27992Y50159D01*
X28212Y50328D01*
X28381Y50548D01*
X28487Y50805D01*
X28490Y50826D01*
D02*
G37*
G36*
X27206D02*
X26430D01*
X26433Y50805D01*
X26539Y50548D01*
X26708Y50328D01*
X26928Y50159D01*
X27185Y50053D01*
X27206Y50050D01*
Y50826D01*
D02*
G37*
G36*
X4300Y50678D02*
X4031Y50642D01*
X3781Y50539D01*
X3566Y50374D01*
X3401Y50159D01*
X3298Y49909D01*
X3262Y49640D01*
X3298Y49371D01*
X3401Y49121D01*
X3566Y48906D01*
X3781Y48741D01*
X4031Y48638D01*
X4300Y48602D01*
X4569Y48638D01*
X4819Y48741D01*
X5034Y48906D01*
X5199Y49121D01*
X5302Y49371D01*
X5338Y49640D01*
X5302Y49909D01*
X5199Y50159D01*
X5034Y50374D01*
X4819Y50539D01*
X4569Y50642D01*
X4300Y50678D01*
D02*
G37*
G36*
X44900Y52045D02*
X44681Y52017D01*
X44477Y51932D01*
X44302Y51798D01*
X44168Y51623D01*
X44083Y51419D01*
X44055Y51200D01*
X44083Y50981D01*
X44168Y50777D01*
X44302Y50602D01*
X44477Y50468D01*
X44499Y50459D01*
Y49641D01*
X44477Y49632D01*
X44302Y49498D01*
X44168Y49323D01*
X44083Y49119D01*
X44054Y48900D01*
X44083Y48681D01*
X44168Y48477D01*
X44302Y48302D01*
X44477Y48168D01*
X44681Y48083D01*
X44900Y48054D01*
X45119Y48083D01*
X45323Y48168D01*
X45498Y48302D01*
X45632Y48477D01*
X45717Y48681D01*
X45745Y48900D01*
X45717Y49119D01*
X45632Y49323D01*
X45498Y49498D01*
X45323Y49632D01*
X45301Y49641D01*
Y50459D01*
X45323Y50468D01*
X45498Y50602D01*
X45632Y50777D01*
X45717Y50981D01*
X45745Y51200D01*
X45717Y51419D01*
X45632Y51623D01*
X45498Y51798D01*
X45323Y51932D01*
X45119Y52017D01*
X44900Y52045D01*
D02*
G37*
G36*
X35400Y49552D02*
X35138Y49517D01*
X34894Y49416D01*
X34685Y49255D01*
X34524Y49046D01*
X34423Y48802D01*
X34388Y48540D01*
X34423Y48278D01*
X34524Y48034D01*
X34685Y47825D01*
X34894Y47664D01*
X35138Y47563D01*
X35400Y47528D01*
X35662Y47563D01*
X35906Y47664D01*
X36115Y47825D01*
X36276Y48034D01*
X36377Y48278D01*
X36412Y48540D01*
X36377Y48802D01*
X36276Y49046D01*
X36115Y49255D01*
X35906Y49416D01*
X35662Y49517D01*
X35400Y49552D01*
D02*
G37*
G36*
X27460D02*
X27198Y49517D01*
X26954Y49416D01*
X26745Y49255D01*
X26584Y49046D01*
X26483Y48802D01*
X26448Y48540D01*
X26483Y48278D01*
X26584Y48034D01*
X26745Y47825D01*
X26954Y47664D01*
X27198Y47563D01*
X27460Y47528D01*
X27722Y47563D01*
X27966Y47664D01*
X28175Y47825D01*
X28336Y48034D01*
X28437Y48278D01*
X28472Y48540D01*
X28437Y48802D01*
X28336Y49046D01*
X28175Y49255D01*
X27966Y49416D01*
X27722Y49517D01*
X27460Y49552D01*
D02*
G37*
G36*
X5379Y48180D02*
X4554D01*
Y47354D01*
X5379D01*
Y48180D01*
D02*
G37*
G36*
X4046D02*
X3220D01*
Y47354D01*
X4046D01*
Y48180D01*
D02*
G37*
G36*
X42000Y48745D02*
X41781Y48717D01*
X41577Y48632D01*
X41402Y48498D01*
X41268Y48323D01*
X41183Y48119D01*
X41155Y47900D01*
X41183Y47681D01*
X41192Y47660D01*
X36521Y42988D01*
X36403Y43037D01*
Y44463D01*
X34397D01*
Y42457D01*
X35823D01*
X35872Y42339D01*
X31560Y38028D01*
X31473Y37898D01*
X31443Y37744D01*
Y23156D01*
X31473Y23002D01*
X31560Y22872D01*
X32392Y22040D01*
X32383Y22019D01*
X32355Y21800D01*
X32383Y21581D01*
X32468Y21377D01*
X32602Y21202D01*
X32777Y21068D01*
X32981Y20983D01*
X33200Y20955D01*
X33419Y20983D01*
X33623Y21068D01*
X33798Y21202D01*
X33932Y21377D01*
X34017Y21581D01*
X34045Y21800D01*
X34017Y22019D01*
X33932Y22223D01*
X33798Y22398D01*
X33623Y22532D01*
X33419Y22617D01*
X33200Y22645D01*
X32981Y22617D01*
X32960Y22608D01*
X32246Y23322D01*
Y35402D01*
X32373Y35465D01*
X32513Y35357D01*
X32748Y35260D01*
X33000Y35226D01*
X33182Y35250D01*
X33754Y34679D01*
X33660Y34452D01*
X33626Y34200D01*
X33660Y33948D01*
X33757Y33713D01*
X33912Y33512D01*
X34113Y33357D01*
X34348Y33260D01*
X34600Y33226D01*
X34852Y33260D01*
X35087Y33357D01*
X35288Y33512D01*
X35443Y33713D01*
X35540Y33948D01*
X35574Y34200D01*
X35540Y34452D01*
X35443Y34687D01*
X35288Y34888D01*
X35087Y35043D01*
X34852Y35140D01*
X34600Y35174D01*
X34418Y35150D01*
X33846Y35721D01*
X33940Y35948D01*
X33974Y36200D01*
X33940Y36452D01*
X33843Y36687D01*
X33688Y36888D01*
X33487Y37043D01*
X33252Y37140D01*
X33000Y37174D01*
X32748Y37140D01*
X32513Y37043D01*
X32373Y36935D01*
X32246Y36998D01*
Y37578D01*
X41760Y47092D01*
X41781Y47083D01*
X42000Y47055D01*
X42219Y47083D01*
X42423Y47168D01*
X42598Y47302D01*
X42732Y47477D01*
X42817Y47681D01*
X42845Y47900D01*
X42817Y48119D01*
X42732Y48323D01*
X42598Y48498D01*
X42423Y48632D01*
X42219Y48717D01*
X42000Y48745D01*
D02*
G37*
G36*
X5379Y46846D02*
X4554D01*
Y46021D01*
X5379D01*
Y46846D01*
D02*
G37*
G36*
X4046D02*
X3220D01*
Y46021D01*
X4046D01*
Y46846D01*
D02*
G37*
G36*
X35400Y47012D02*
X35138Y46977D01*
X34894Y46876D01*
X34685Y46715D01*
X34524Y46506D01*
X34423Y46262D01*
X34388Y46000D01*
X34423Y45738D01*
X34524Y45494D01*
X34685Y45285D01*
X34894Y45124D01*
X35138Y45023D01*
X35400Y44988D01*
X35662Y45023D01*
X35906Y45124D01*
X36115Y45285D01*
X36276Y45494D01*
X36377Y45738D01*
X36412Y46000D01*
X36377Y46262D01*
X36276Y46506D01*
X36115Y46715D01*
X35906Y46876D01*
X35662Y46977D01*
X35400Y47012D01*
D02*
G37*
G36*
X27460D02*
X27198Y46977D01*
X26954Y46876D01*
X26745Y46715D01*
X26584Y46506D01*
X26483Y46262D01*
X26448Y46000D01*
X26483Y45738D01*
X26584Y45494D01*
X26745Y45285D01*
X26954Y45124D01*
X27198Y45023D01*
X27460Y44988D01*
X27722Y45023D01*
X27966Y45124D01*
X28175Y45285D01*
X28336Y45494D01*
X28437Y45738D01*
X28472Y46000D01*
X28437Y46262D01*
X28336Y46506D01*
X28175Y46715D01*
X27966Y46876D01*
X27722Y46977D01*
X27460Y47012D01*
D02*
G37*
G36*
Y44472D02*
X27198Y44437D01*
X26954Y44336D01*
X26745Y44175D01*
X26584Y43966D01*
X26483Y43722D01*
X26448Y43460D01*
X26483Y43198D01*
X26584Y42954D01*
X26745Y42745D01*
X26954Y42584D01*
X27198Y42483D01*
X27460Y42448D01*
X27722Y42483D01*
X27966Y42584D01*
X28175Y42745D01*
X28336Y42954D01*
X28437Y43198D01*
X28472Y43460D01*
X28437Y43722D01*
X28336Y43966D01*
X28175Y44175D01*
X27966Y44336D01*
X27722Y44437D01*
X27460Y44472D01*
D02*
G37*
G36*
X5329Y42169D02*
X3271D01*
Y40111D01*
X5329D01*
Y42169D01*
D02*
G37*
G36*
X23200Y46845D02*
X22981Y46817D01*
X22777Y46732D01*
X22602Y46598D01*
X22468Y46423D01*
X22383Y46219D01*
X22358Y46028D01*
X21265Y44935D01*
X21132Y44735D01*
X21085Y44500D01*
Y31100D01*
X21132Y30865D01*
X21265Y30665D01*
X21783Y30147D01*
X21724Y30027D01*
X21720Y30027D01*
X21516Y30001D01*
X21325Y29922D01*
X21162Y29796D01*
X21036Y29633D01*
X20957Y29442D01*
X20931Y29238D01*
X20957Y29034D01*
X21036Y28843D01*
X21162Y28680D01*
X21325Y28554D01*
X21516Y28475D01*
X21720Y28449D01*
X21924Y28475D01*
X22115Y28554D01*
X22161Y28590D01*
X22288Y28527D01*
Y25760D01*
X22161Y25719D01*
X22013Y25832D01*
X21809Y25917D01*
X21590Y25945D01*
X21442Y25926D01*
X20801Y26566D01*
Y30200D01*
X20771Y30354D01*
X20684Y30484D01*
X19401Y31766D01*
Y32659D01*
X19423Y32668D01*
X19598Y32802D01*
X19732Y32977D01*
X19817Y33181D01*
X19845Y33400D01*
X19817Y33619D01*
X19732Y33823D01*
X19598Y33998D01*
X19423Y34132D01*
X19219Y34217D01*
X19000Y34245D01*
X18781Y34217D01*
X18577Y34132D01*
X18402Y33998D01*
X18268Y33823D01*
X18183Y33619D01*
X18155Y33400D01*
X18183Y33181D01*
X18268Y32977D01*
X18402Y32802D01*
X18577Y32668D01*
X18599Y32659D01*
Y31600D01*
X18629Y31446D01*
X18716Y31316D01*
X19999Y30034D01*
Y29639D01*
X19872Y29614D01*
X19864Y29633D01*
X19738Y29796D01*
X19575Y29922D01*
X19384Y30001D01*
X19180Y30027D01*
X18976Y30001D01*
X18785Y29922D01*
X18622Y29796D01*
X18496Y29633D01*
X18417Y29442D01*
X18391Y29238D01*
X18417Y29034D01*
X18496Y28843D01*
X18622Y28680D01*
X18785Y28554D01*
X18976Y28475D01*
X19180Y28449D01*
X19384Y28475D01*
X19575Y28554D01*
X19738Y28680D01*
X19864Y28843D01*
X19872Y28862D01*
X19999Y28837D01*
Y26400D01*
X20029Y26246D01*
X20116Y26116D01*
X20815Y25418D01*
X20774Y25319D01*
X20745Y25100D01*
X20774Y24881D01*
X20858Y24677D01*
X20993Y24502D01*
X21168Y24368D01*
X21372Y24283D01*
X21590Y24255D01*
X21809Y24283D01*
X22013Y24368D01*
X22161Y24481D01*
X22288Y24440D01*
Y22059D01*
X22174Y22002D01*
X22140Y22028D01*
X21974Y22097D01*
Y21300D01*
Y20503D01*
X22140Y20572D01*
X22174Y20598D01*
X22288Y20541D01*
Y9757D01*
X21972Y9442D01*
X21781Y9417D01*
X21577Y9332D01*
X21402Y9198D01*
X21268Y9023D01*
X21183Y8819D01*
X21155Y8600D01*
X21183Y8381D01*
X21268Y8177D01*
X21402Y8002D01*
X21577Y7868D01*
X21781Y7783D01*
X22000Y7755D01*
X22219Y7783D01*
X22423Y7868D01*
X22598Y8002D01*
X22732Y8177D01*
X22817Y8381D01*
X22842Y8572D01*
X23338Y9068D01*
X23471Y9267D01*
X23518Y9503D01*
Y20773D01*
X23645Y20816D01*
X23702Y20742D01*
X23865Y20616D01*
X24056Y20537D01*
X24260Y20511D01*
X24464Y20537D01*
X24655Y20616D01*
X24818Y20742D01*
X24944Y20905D01*
X25023Y21096D01*
X25049Y21300D01*
X25023Y21504D01*
X24944Y21695D01*
X24818Y21858D01*
X24655Y21984D01*
X24491Y22052D01*
X24492Y22169D01*
X24495Y22180D01*
X24519Y22183D01*
X24723Y22268D01*
X24898Y22402D01*
X25032Y22577D01*
X25117Y22781D01*
X25145Y23000D01*
X25117Y23219D01*
X25032Y23423D01*
X24898Y23598D01*
X24723Y23732D01*
X24701Y23741D01*
Y24555D01*
X24828Y24598D01*
X24902Y24502D01*
X25077Y24368D01*
X25281Y24283D01*
X25500Y24255D01*
X25719Y24283D01*
X25923Y24368D01*
X26098Y24502D01*
X26232Y24677D01*
X26317Y24881D01*
X26345Y25100D01*
X26317Y25319D01*
X26232Y25523D01*
X26098Y25698D01*
X25923Y25832D01*
X25719Y25917D01*
X25500Y25945D01*
X25281Y25917D01*
X25077Y25832D01*
X24902Y25698D01*
X24828Y25602D01*
X24701Y25645D01*
Y27735D01*
X25517Y28551D01*
X25604Y28681D01*
X25635Y28835D01*
Y34867D01*
X28460Y37692D01*
X28481Y37683D01*
X28700Y37655D01*
X28919Y37683D01*
X29123Y37768D01*
X29298Y37902D01*
X29432Y38077D01*
X29517Y38281D01*
X29545Y38500D01*
X29517Y38719D01*
X29432Y38923D01*
X29298Y39098D01*
X29123Y39232D01*
X28919Y39317D01*
X28700Y39345D01*
X28481Y39317D01*
X28277Y39232D01*
X28102Y39098D01*
X27968Y38923D01*
X27883Y38719D01*
X27855Y38500D01*
X27883Y38281D01*
X27892Y38260D01*
X24949Y35317D01*
X24862Y35187D01*
X24832Y35033D01*
Y29946D01*
X24705Y29883D01*
X24655Y29922D01*
X24464Y30001D01*
X24260Y30027D01*
X24056Y30001D01*
X23865Y29922D01*
X23702Y29796D01*
X23645Y29722D01*
X23570Y29725D01*
X23569Y29726D01*
X23515Y29761D01*
Y29900D01*
X23468Y30135D01*
X23335Y30335D01*
X22315Y31355D01*
Y44245D01*
X23228Y45158D01*
X23419Y45183D01*
X23623Y45268D01*
X23798Y45402D01*
X23932Y45577D01*
X24017Y45781D01*
X24045Y46000D01*
X24017Y46219D01*
X23932Y46423D01*
X23798Y46598D01*
X23623Y46732D01*
X23419Y46817D01*
X23200Y46845D01*
D02*
G37*
G36*
X4300Y39638D02*
X4031Y39602D01*
X3781Y39499D01*
X3566Y39334D01*
X3401Y39119D01*
X3298Y38869D01*
X3262Y38600D01*
X3298Y38331D01*
X3401Y38081D01*
X3566Y37866D01*
X3781Y37701D01*
X4031Y37598D01*
X4300Y37562D01*
X4569Y37598D01*
X4819Y37701D01*
X5034Y37866D01*
X5199Y38081D01*
X5302Y38331D01*
X5338Y38600D01*
X5302Y38869D01*
X5199Y39119D01*
X5034Y39334D01*
X4819Y39499D01*
X4569Y39602D01*
X4300Y39638D01*
D02*
G37*
G36*
X4200Y35678D02*
X3931Y35642D01*
X3681Y35539D01*
X3466Y35374D01*
X3301Y35159D01*
X3198Y34909D01*
X3162Y34640D01*
X3198Y34371D01*
X3301Y34121D01*
X3466Y33906D01*
X3681Y33741D01*
X3931Y33638D01*
X4200Y33602D01*
X4469Y33638D01*
X4719Y33741D01*
X4934Y33906D01*
X5099Y34121D01*
X5202Y34371D01*
X5238Y34640D01*
X5202Y34909D01*
X5099Y35159D01*
X4934Y35374D01*
X4719Y35539D01*
X4469Y35642D01*
X4200Y35678D01*
D02*
G37*
G36*
X5229Y33129D02*
X3171D01*
Y31071D01*
X5229D01*
Y33129D01*
D02*
G37*
G36*
X44054Y30566D02*
Y30023D01*
X44597D01*
X44528Y30189D01*
X44394Y30363D01*
X44220Y30497D01*
X44054Y30566D01*
D02*
G37*
G36*
X43546Y30566D02*
X43380Y30497D01*
X43206Y30363D01*
X43072Y30189D01*
X43003Y30023D01*
X43546D01*
Y30566D01*
D02*
G37*
G36*
X51420Y30558D02*
X51216Y30532D01*
X51025Y30453D01*
X50862Y30327D01*
X50736Y30164D01*
X50657Y29973D01*
X50631Y29769D01*
X50657Y29565D01*
X50736Y29374D01*
X50862Y29211D01*
X51025Y29085D01*
X51216Y29006D01*
X51420Y28980D01*
X51624Y29006D01*
X51815Y29085D01*
X51978Y29211D01*
X52104Y29374D01*
X52183Y29565D01*
X52209Y29769D01*
X52183Y29973D01*
X52104Y30164D01*
X51978Y30327D01*
X51815Y30453D01*
X51624Y30532D01*
X51420Y30558D01*
D02*
G37*
G36*
X48880D02*
X48676Y30532D01*
X48485Y30453D01*
X48322Y30327D01*
X48196Y30164D01*
X48117Y29973D01*
X48091Y29769D01*
X48117Y29565D01*
X48196Y29374D01*
X48322Y29211D01*
X48485Y29085D01*
X48676Y29006D01*
X48880Y28980D01*
X49084Y29006D01*
X49275Y29085D01*
X49438Y29211D01*
X49564Y29374D01*
X49643Y29565D01*
X49669Y29769D01*
X49643Y29973D01*
X49564Y30164D01*
X49438Y30327D01*
X49275Y30453D01*
X49084Y30532D01*
X48880Y30558D01*
D02*
G37*
G36*
X46340D02*
X46136Y30532D01*
X45945Y30453D01*
X45782Y30327D01*
X45656Y30164D01*
X45577Y29973D01*
X45551Y29769D01*
X45577Y29565D01*
X45656Y29374D01*
X45782Y29211D01*
X45945Y29085D01*
X46136Y29006D01*
X46340Y28980D01*
X46544Y29006D01*
X46735Y29085D01*
X46898Y29211D01*
X47024Y29374D01*
X47103Y29565D01*
X47129Y29769D01*
X47103Y29973D01*
X47024Y30164D01*
X46898Y30327D01*
X46735Y30453D01*
X46544Y30532D01*
X46340Y30558D01*
D02*
G37*
G36*
X41260D02*
X41056Y30532D01*
X40865Y30453D01*
X40702Y30327D01*
X40576Y30164D01*
X40497Y29973D01*
X40471Y29769D01*
X40497Y29565D01*
X40576Y29374D01*
X40702Y29211D01*
X40865Y29085D01*
X41056Y29006D01*
X41260Y28980D01*
X41464Y29006D01*
X41655Y29085D01*
X41818Y29211D01*
X41944Y29374D01*
X42023Y29565D01*
X42049Y29769D01*
X42023Y29973D01*
X41944Y30164D01*
X41818Y30327D01*
X41655Y30453D01*
X41464Y30532D01*
X41260Y30558D01*
D02*
G37*
G36*
X38720D02*
X38516Y30532D01*
X38325Y30453D01*
X38162Y30327D01*
X38036Y30164D01*
X37957Y29973D01*
X37931Y29769D01*
X37957Y29565D01*
X38036Y29374D01*
X38162Y29211D01*
X38325Y29085D01*
X38516Y29006D01*
X38720Y28980D01*
X38924Y29006D01*
X39115Y29085D01*
X39278Y29211D01*
X39404Y29374D01*
X39483Y29565D01*
X39509Y29769D01*
X39483Y29973D01*
X39404Y30164D01*
X39278Y30327D01*
X39115Y30453D01*
X38924Y30532D01*
X38720Y30558D01*
D02*
G37*
G36*
X36180D02*
X35976Y30532D01*
X35785Y30453D01*
X35622Y30327D01*
X35496Y30164D01*
X35417Y29973D01*
X35391Y29769D01*
X35417Y29565D01*
X35496Y29374D01*
X35622Y29211D01*
X35785Y29085D01*
X35976Y29006D01*
X36180Y28980D01*
X36384Y29006D01*
X36575Y29085D01*
X36738Y29211D01*
X36864Y29374D01*
X36943Y29565D01*
X36969Y29769D01*
X36943Y29973D01*
X36864Y30164D01*
X36738Y30327D01*
X36575Y30453D01*
X36384Y30532D01*
X36180Y30558D01*
D02*
G37*
G36*
X44597Y29515D02*
X44054D01*
Y28972D01*
X44220Y29041D01*
X44394Y29175D01*
X44528Y29349D01*
X44597Y29515D01*
D02*
G37*
G36*
X43546D02*
X43003D01*
X43072Y29349D01*
X43206Y29175D01*
X43380Y29041D01*
X43546Y28972D01*
Y29515D01*
D02*
G37*
G36*
X30123Y30021D02*
X28557D01*
Y28455D01*
X30123D01*
Y30021D01*
D02*
G37*
G36*
X26800Y30027D02*
X26596Y30001D01*
X26405Y29922D01*
X26242Y29796D01*
X26116Y29633D01*
X26037Y29442D01*
X26011Y29238D01*
X26037Y29034D01*
X26116Y28843D01*
X26242Y28680D01*
X26405Y28554D01*
X26596Y28475D01*
X26800Y28449D01*
X27004Y28475D01*
X27195Y28554D01*
X27358Y28680D01*
X27484Y28843D01*
X27563Y29034D01*
X27589Y29238D01*
X27563Y29442D01*
X27484Y29633D01*
X27358Y29796D01*
X27195Y29922D01*
X27004Y30001D01*
X26800Y30027D01*
D02*
G37*
G36*
X16640D02*
X16436Y30001D01*
X16245Y29922D01*
X16082Y29796D01*
X15956Y29633D01*
X15877Y29442D01*
X15851Y29238D01*
X15877Y29034D01*
X15956Y28843D01*
X16082Y28680D01*
X16245Y28554D01*
X16436Y28475D01*
X16640Y28449D01*
X16844Y28475D01*
X17035Y28554D01*
X17198Y28680D01*
X17324Y28843D01*
X17403Y29034D01*
X17429Y29238D01*
X17403Y29442D01*
X17324Y29633D01*
X17198Y29796D01*
X17035Y29922D01*
X16844Y30001D01*
X16640Y30027D01*
D02*
G37*
G36*
X14100D02*
X13896Y30001D01*
X13705Y29922D01*
X13542Y29796D01*
X13416Y29633D01*
X13337Y29442D01*
X13311Y29238D01*
X13337Y29034D01*
X13416Y28843D01*
X13542Y28680D01*
X13705Y28554D01*
X13896Y28475D01*
X14100Y28449D01*
X14304Y28475D01*
X14495Y28554D01*
X14658Y28680D01*
X14784Y28843D01*
X14863Y29034D01*
X14889Y29238D01*
X14863Y29442D01*
X14784Y29633D01*
X14658Y29796D01*
X14495Y29922D01*
X14304Y30001D01*
X14100Y30027D01*
D02*
G37*
G36*
X60829Y30349D02*
X58771D01*
Y28291D01*
X60829D01*
Y30349D01*
D02*
G37*
G36*
X60054Y27835D02*
Y27034D01*
X60855D01*
X60852Y27062D01*
X60743Y27324D01*
X60570Y27550D01*
X60344Y27723D01*
X60082Y27832D01*
X60054Y27835D01*
D02*
G37*
G36*
X59546D02*
X59518Y27832D01*
X59256Y27723D01*
X59030Y27550D01*
X58857Y27324D01*
X58748Y27062D01*
X58745Y27034D01*
X59546D01*
Y27835D01*
D02*
G37*
G36*
X2600Y28645D02*
X2381Y28617D01*
X2177Y28532D01*
X2002Y28398D01*
X1868Y28223D01*
X1783Y28019D01*
X1755Y27800D01*
X1783Y27581D01*
X1868Y27377D01*
X2002Y27202D01*
X2177Y27068D01*
X2381Y26983D01*
X2600Y26955D01*
X2819Y26983D01*
X3023Y27068D01*
X3198Y27202D01*
X3332Y27377D01*
X3417Y27581D01*
X3445Y27800D01*
X3417Y28019D01*
X3332Y28223D01*
X3198Y28398D01*
X3023Y28532D01*
X2819Y28617D01*
X2600Y28645D01*
D02*
G37*
G36*
X60855Y26526D02*
X60054D01*
Y25725D01*
X60082Y25728D01*
X60344Y25837D01*
X60570Y26010D01*
X60743Y26236D01*
X60852Y26498D01*
X60855Y26526D01*
D02*
G37*
G36*
X59546D02*
X58745D01*
X58748Y26498D01*
X58857Y26236D01*
X59030Y26010D01*
X59256Y25837D01*
X59518Y25728D01*
X59546Y25725D01*
Y26526D01*
D02*
G37*
G36*
X59800Y25278D02*
X59531Y25242D01*
X59281Y25139D01*
X59066Y24974D01*
X58901Y24759D01*
X58798Y24509D01*
X58762Y24240D01*
X58798Y23971D01*
X58901Y23721D01*
X59066Y23506D01*
X59281Y23341D01*
X59531Y23238D01*
X59800Y23202D01*
X60069Y23238D01*
X60319Y23341D01*
X60534Y23506D01*
X60699Y23721D01*
X60802Y23971D01*
X60838Y24240D01*
X60802Y24509D01*
X60699Y24759D01*
X60534Y24974D01*
X60319Y25139D01*
X60069Y25242D01*
X59800Y25278D01*
D02*
G37*
G36*
X42500Y24845D02*
X42281Y24817D01*
X42077Y24732D01*
X41902Y24598D01*
X41768Y24423D01*
X41683Y24219D01*
X41655Y24000D01*
X41683Y23781D01*
X41768Y23577D01*
X41902Y23402D01*
X42049Y23290D01*
Y22288D01*
X41922Y22255D01*
X41818Y22389D01*
X41655Y22515D01*
X41464Y22594D01*
X41260Y22620D01*
X41056Y22594D01*
X40865Y22515D01*
X40702Y22389D01*
X40576Y22226D01*
X40497Y22035D01*
X40471Y21831D01*
X40497Y21627D01*
X40576Y21436D01*
X40702Y21273D01*
X40865Y21147D01*
X41056Y21068D01*
X41260Y21042D01*
X41464Y21068D01*
X41480Y21075D01*
X41578Y20978D01*
X41555Y20800D01*
X41583Y20581D01*
X41668Y20377D01*
X41802Y20202D01*
X41977Y20068D01*
X42181Y19983D01*
X42400Y19955D01*
X42619Y19983D01*
X42823Y20068D01*
X42998Y20202D01*
X43132Y20377D01*
X43217Y20581D01*
X43245Y20800D01*
X43217Y21019D01*
X43144Y21194D01*
X43242Y21273D01*
X43405Y21147D01*
X43596Y21068D01*
X43800Y21042D01*
X44004Y21068D01*
X44195Y21147D01*
X44358Y21273D01*
X44484Y21436D01*
X44563Y21627D01*
X44589Y21831D01*
X44563Y22035D01*
X44484Y22226D01*
X44358Y22389D01*
X44195Y22515D01*
X44004Y22594D01*
X43800Y22620D01*
X43596Y22594D01*
X43405Y22515D01*
X43242Y22389D01*
X43116Y22226D01*
X43037Y22035D01*
X43011Y21831D01*
X43037Y21627D01*
X43102Y21470D01*
X42998Y21398D01*
X42851Y21510D01*
Y23238D01*
X42923Y23268D01*
X43098Y23402D01*
X43232Y23577D01*
X43317Y23781D01*
X43345Y24000D01*
X43317Y24219D01*
X43232Y24423D01*
X43098Y24598D01*
X42923Y24732D01*
X42719Y24817D01*
X42500Y24845D01*
D02*
G37*
G36*
X21466Y22097D02*
X21300Y22028D01*
X21126Y21894D01*
X20992Y21720D01*
X20923Y21554D01*
X21466D01*
Y22097D01*
D02*
G37*
G36*
X36963Y22614D02*
X35397D01*
Y21048D01*
X36963D01*
Y22614D01*
D02*
G37*
G36*
X51420Y22620D02*
X51216Y22594D01*
X51025Y22515D01*
X50862Y22389D01*
X50736Y22226D01*
X50657Y22035D01*
X50631Y21831D01*
X50657Y21627D01*
X50736Y21436D01*
X50862Y21273D01*
X51025Y21147D01*
X51216Y21068D01*
X51420Y21042D01*
X51624Y21068D01*
X51815Y21147D01*
X51978Y21273D01*
X52104Y21436D01*
X52183Y21627D01*
X52209Y21831D01*
X52183Y22035D01*
X52104Y22226D01*
X51978Y22389D01*
X51815Y22515D01*
X51624Y22594D01*
X51420Y22620D01*
D02*
G37*
G36*
X48880D02*
X48676Y22594D01*
X48485Y22515D01*
X48322Y22389D01*
X48196Y22226D01*
X48117Y22035D01*
X48091Y21831D01*
X48117Y21627D01*
X48196Y21436D01*
X48322Y21273D01*
X48485Y21147D01*
X48676Y21068D01*
X48880Y21042D01*
X49084Y21068D01*
X49275Y21147D01*
X49438Y21273D01*
X49564Y21436D01*
X49643Y21627D01*
X49669Y21831D01*
X49643Y22035D01*
X49564Y22226D01*
X49438Y22389D01*
X49275Y22515D01*
X49084Y22594D01*
X48880Y22620D01*
D02*
G37*
G36*
X46340D02*
X46136Y22594D01*
X45945Y22515D01*
X45782Y22389D01*
X45656Y22226D01*
X45577Y22035D01*
X45551Y21831D01*
X45577Y21627D01*
X45656Y21436D01*
X45782Y21273D01*
X45945Y21147D01*
X46136Y21068D01*
X46340Y21042D01*
X46544Y21068D01*
X46735Y21147D01*
X46898Y21273D01*
X47024Y21436D01*
X47103Y21627D01*
X47129Y21831D01*
X47103Y22035D01*
X47024Y22226D01*
X46898Y22389D01*
X46735Y22515D01*
X46544Y22594D01*
X46340Y22620D01*
D02*
G37*
G36*
X38720D02*
X38516Y22594D01*
X38325Y22515D01*
X38162Y22389D01*
X38036Y22226D01*
X37957Y22035D01*
X37931Y21831D01*
X37957Y21627D01*
X38036Y21436D01*
X38162Y21273D01*
X38325Y21147D01*
X38516Y21068D01*
X38720Y21042D01*
X38924Y21068D01*
X39115Y21147D01*
X39278Y21273D01*
X39404Y21436D01*
X39483Y21627D01*
X39509Y21831D01*
X39483Y22035D01*
X39404Y22226D01*
X39278Y22389D01*
X39115Y22515D01*
X38924Y22594D01*
X38720Y22620D01*
D02*
G37*
G36*
X55100Y22445D02*
X54881Y22417D01*
X54677Y22332D01*
X54502Y22198D01*
X54368Y22023D01*
X54283Y21819D01*
X54255Y21600D01*
X54283Y21381D01*
X54292Y21360D01*
X52334Y19401D01*
X46945D01*
X46792Y19371D01*
X46661Y19284D01*
X44179Y16801D01*
X40741D01*
X40732Y16823D01*
X40598Y16998D01*
X40423Y17132D01*
X40219Y17217D01*
X40000Y17245D01*
X39781Y17217D01*
X39577Y17132D01*
X39402Y16998D01*
X39268Y16823D01*
X39183Y16619D01*
X39155Y16400D01*
X39183Y16181D01*
X39268Y15977D01*
X39402Y15802D01*
X39577Y15668D01*
X39781Y15583D01*
X40000Y15555D01*
X40219Y15583D01*
X40423Y15668D01*
X40598Y15802D01*
X40732Y15977D01*
X40741Y15999D01*
X44345D01*
X44499Y16029D01*
X44629Y16116D01*
X47111Y18599D01*
X52500D01*
X52654Y18629D01*
X52784Y18716D01*
X54860Y20792D01*
X54881Y20783D01*
X55100Y20755D01*
X55319Y20783D01*
X55523Y20868D01*
X55698Y21002D01*
X55832Y21177D01*
X55917Y21381D01*
X55945Y21600D01*
X55917Y21819D01*
X55832Y22023D01*
X55698Y22198D01*
X55523Y22332D01*
X55319Y22417D01*
X55100Y22445D01*
D02*
G37*
G36*
X59800Y22738D02*
X59531Y22702D01*
X59281Y22599D01*
X59066Y22434D01*
X58901Y22219D01*
X58798Y21969D01*
X58762Y21700D01*
X58798Y21431D01*
X58901Y21181D01*
X59066Y20966D01*
X59281Y20801D01*
X59531Y20698D01*
X59800Y20662D01*
X60069Y20698D01*
X60319Y20801D01*
X60534Y20966D01*
X60699Y21181D01*
X60802Y21431D01*
X60838Y21700D01*
X60802Y21969D01*
X60699Y22219D01*
X60534Y22434D01*
X60319Y22599D01*
X60069Y22702D01*
X59800Y22738D01*
D02*
G37*
G36*
X29340Y22089D02*
X29136Y22063D01*
X28945Y21984D01*
X28782Y21858D01*
X28656Y21695D01*
X28577Y21504D01*
X28551Y21300D01*
X28577Y21096D01*
X28656Y20905D01*
X28782Y20742D01*
X28945Y20616D01*
X29136Y20537D01*
X29340Y20511D01*
X29544Y20537D01*
X29735Y20616D01*
X29898Y20742D01*
X30024Y20905D01*
X30103Y21096D01*
X30129Y21300D01*
X30103Y21504D01*
X30024Y21695D01*
X29898Y21858D01*
X29735Y21984D01*
X29544Y22063D01*
X29340Y22089D01*
D02*
G37*
G36*
X26800D02*
X26596Y22063D01*
X26405Y21984D01*
X26242Y21858D01*
X26116Y21695D01*
X26037Y21504D01*
X26011Y21300D01*
X26037Y21096D01*
X26116Y20905D01*
X26242Y20742D01*
X26405Y20616D01*
X26596Y20537D01*
X26800Y20511D01*
X27004Y20537D01*
X27195Y20616D01*
X27358Y20742D01*
X27484Y20905D01*
X27563Y21096D01*
X27589Y21300D01*
X27563Y21504D01*
X27484Y21695D01*
X27358Y21858D01*
X27195Y21984D01*
X27004Y22063D01*
X26800Y22089D01*
D02*
G37*
G36*
X19180D02*
X18976Y22063D01*
X18785Y21984D01*
X18622Y21858D01*
X18496Y21695D01*
X18417Y21504D01*
X18391Y21300D01*
X18417Y21096D01*
X18496Y20905D01*
X18622Y20742D01*
X18785Y20616D01*
X18976Y20537D01*
X19180Y20511D01*
X19384Y20537D01*
X19575Y20616D01*
X19738Y20742D01*
X19864Y20905D01*
X19943Y21096D01*
X19969Y21300D01*
X19943Y21504D01*
X19864Y21695D01*
X19738Y21858D01*
X19575Y21984D01*
X19384Y22063D01*
X19180Y22089D01*
D02*
G37*
G36*
X16640D02*
X16436Y22063D01*
X16245Y21984D01*
X16082Y21858D01*
X15956Y21695D01*
X15877Y21504D01*
X15851Y21300D01*
X15877Y21096D01*
X15956Y20905D01*
X16082Y20742D01*
X16245Y20616D01*
X16436Y20537D01*
X16640Y20511D01*
X16844Y20537D01*
X17035Y20616D01*
X17198Y20742D01*
X17324Y20905D01*
X17403Y21096D01*
X17429Y21300D01*
X17403Y21504D01*
X17324Y21695D01*
X17198Y21858D01*
X17035Y21984D01*
X16844Y22063D01*
X16640Y22089D01*
D02*
G37*
G36*
X14100D02*
X13896Y22063D01*
X13705Y21984D01*
X13542Y21858D01*
X13416Y21695D01*
X13337Y21504D01*
X13311Y21300D01*
X13337Y21096D01*
X13416Y20905D01*
X13542Y20742D01*
X13705Y20616D01*
X13896Y20537D01*
X14100Y20511D01*
X14304Y20537D01*
X14495Y20616D01*
X14658Y20742D01*
X14784Y20905D01*
X14863Y21096D01*
X14889Y21300D01*
X14863Y21504D01*
X14784Y21695D01*
X14658Y21858D01*
X14495Y21984D01*
X14304Y22063D01*
X14100Y22089D01*
D02*
G37*
G36*
X21466Y21046D02*
X20923D01*
X20992Y20880D01*
X21126Y20706D01*
X21300Y20572D01*
X21466Y20503D01*
Y21046D01*
D02*
G37*
G36*
X60829Y18669D02*
X58771D01*
Y16611D01*
X60829D01*
Y18669D01*
D02*
G37*
G36*
X59800Y16138D02*
X59531Y16102D01*
X59281Y15999D01*
X59066Y15834D01*
X58901Y15619D01*
X58798Y15369D01*
X58762Y15100D01*
X58798Y14831D01*
X58901Y14581D01*
X59066Y14366D01*
X59281Y14201D01*
X59531Y14098D01*
X59800Y14062D01*
X60069Y14098D01*
X60319Y14201D01*
X60534Y14366D01*
X60699Y14581D01*
X60802Y14831D01*
X60838Y15100D01*
X60802Y15369D01*
X60699Y15619D01*
X60534Y15834D01*
X60319Y15999D01*
X60069Y16102D01*
X59800Y16138D01*
D02*
G37*
G36*
X60054Y13615D02*
Y12814D01*
X60855D01*
X60852Y12842D01*
X60743Y13104D01*
X60570Y13330D01*
X60344Y13503D01*
X60082Y13612D01*
X60054Y13615D01*
D02*
G37*
G36*
X59546D02*
X59518Y13612D01*
X59256Y13503D01*
X59030Y13330D01*
X58857Y13104D01*
X58748Y12842D01*
X58745Y12814D01*
X59546D01*
Y13615D01*
D02*
G37*
G36*
X60855Y12306D02*
X60054D01*
Y11505D01*
X60082Y11508D01*
X60344Y11617D01*
X60570Y11790D01*
X60743Y12016D01*
X60852Y12278D01*
X60855Y12306D01*
D02*
G37*
G36*
X59546D02*
X58745D01*
X58748Y12278D01*
X58857Y12016D01*
X59030Y11790D01*
X59256Y11617D01*
X59518Y11508D01*
X59546Y11505D01*
Y12306D01*
D02*
G37*
G36*
X60979Y9620D02*
X60154D01*
Y8794D01*
X60979D01*
Y9620D01*
D02*
G37*
G36*
X59646D02*
X58820D01*
Y8794D01*
X59646D01*
Y9620D01*
D02*
G37*
G36*
X5129Y8629D02*
X4554D01*
Y8054D01*
X5129D01*
Y8629D01*
D02*
G37*
G36*
X4046D02*
X3471D01*
Y8054D01*
X4046D01*
Y8629D01*
D02*
G37*
G36*
X60979Y8286D02*
X60154D01*
Y7460D01*
X60979D01*
Y8286D01*
D02*
G37*
G36*
X59646D02*
X58820D01*
Y7460D01*
X59646D01*
Y8286D01*
D02*
G37*
G36*
X2300Y8585D02*
X2097Y8558D01*
X1908Y8480D01*
X1745Y8355D01*
X1620Y8192D01*
X1542Y8003D01*
X1515Y7800D01*
X1542Y7597D01*
X1620Y7408D01*
X1745Y7245D01*
X1908Y7120D01*
X2097Y7042D01*
X2300Y7015D01*
X2503Y7042D01*
X2692Y7120D01*
X2855Y7245D01*
X2980Y7408D01*
X3058Y7597D01*
X3085Y7800D01*
X3058Y8003D01*
X2980Y8192D01*
X2855Y8355D01*
X2692Y8480D01*
X2503Y8558D01*
X2300Y8585D01*
D02*
G37*
G36*
X5129Y7546D02*
X4554D01*
Y6971D01*
X5129D01*
Y7546D01*
D02*
G37*
G36*
X4046D02*
X3471D01*
Y6971D01*
X4046D01*
Y7546D01*
D02*
G37*
G36*
X38700Y8221D02*
X38484Y8192D01*
X38282Y8109D01*
X38109Y7976D01*
X37977Y7803D01*
X37893Y7602D01*
X37865Y7385D01*
X37893Y7169D01*
X37977Y6968D01*
X38109Y6795D01*
X38282Y6662D01*
X38484Y6578D01*
X38700Y6550D01*
X38916Y6578D01*
X39118Y6662D01*
X39291Y6795D01*
X39423Y6968D01*
X39507Y7169D01*
X39535Y7385D01*
X39507Y7602D01*
X39423Y7803D01*
X39291Y7976D01*
X39118Y8109D01*
X38916Y8192D01*
X38700Y8221D01*
D02*
G37*
G36*
X20029Y5879D02*
X19454D01*
Y5304D01*
X20029D01*
Y5879D01*
D02*
G37*
G36*
X18946D02*
X18371D01*
Y5304D01*
X18946D01*
Y5879D01*
D02*
G37*
G36*
X59900Y7038D02*
X59631Y7002D01*
X59381Y6899D01*
X59166Y6734D01*
X59001Y6519D01*
X58898Y6269D01*
X58862Y6000D01*
X58898Y5731D01*
X59001Y5481D01*
X59166Y5266D01*
X59381Y5101D01*
X59631Y4998D01*
X59900Y4962D01*
X60169Y4998D01*
X60419Y5101D01*
X60634Y5266D01*
X60799Y5481D01*
X60902Y5731D01*
X60938Y6000D01*
X60902Y6269D01*
X60799Y6519D01*
X60634Y6734D01*
X60419Y6899D01*
X60169Y7002D01*
X59900Y7038D01*
D02*
G37*
G36*
X20029Y4796D02*
X19454D01*
Y4221D01*
X20029D01*
Y4796D01*
D02*
G37*
G36*
X18946D02*
X18371D01*
Y4221D01*
X18946D01*
Y4796D01*
D02*
G37*
G36*
X28954Y4280D02*
Y3454D01*
X29780D01*
X29776Y3488D01*
X29664Y3757D01*
X29487Y3987D01*
X29257Y4164D01*
X28988Y4276D01*
X28954Y4280D01*
D02*
G37*
G36*
X10314D02*
Y3454D01*
X11140D01*
X11136Y3488D01*
X11024Y3757D01*
X10847Y3987D01*
X10617Y4164D01*
X10348Y4276D01*
X10314Y4280D01*
D02*
G37*
G36*
X9806Y4280D02*
X9772Y4276D01*
X9503Y4164D01*
X9273Y3987D01*
X9096Y3757D01*
X8984Y3488D01*
X8980Y3454D01*
X9806D01*
Y4280D01*
D02*
G37*
G36*
X28446Y4280D02*
X28412Y4276D01*
X28143Y4164D01*
X27913Y3987D01*
X27736Y3757D01*
X27624Y3488D01*
X27620Y3454D01*
X28446D01*
Y4280D01*
D02*
G37*
G36*
X39579Y3679D02*
X38954D01*
Y3054D01*
X39579D01*
Y3679D01*
D02*
G37*
G36*
X38446D02*
X37821D01*
Y3054D01*
X38446D01*
Y3679D01*
D02*
G37*
G36*
X61446Y4540D02*
X61258Y4521D01*
X60833Y4392D01*
X60442Y4183D01*
X60098Y3902D01*
X59817Y3558D01*
X59607Y3167D01*
X59479Y2742D01*
X59460Y2554D01*
X61446D01*
Y4540D01*
D02*
G37*
G36*
X2554D02*
Y2554D01*
X4540D01*
X4521Y2742D01*
X4392Y3167D01*
X4183Y3558D01*
X3902Y3902D01*
X3558Y4183D01*
X3167Y4392D01*
X2742Y4521D01*
X2554Y4540D01*
D02*
G37*
G36*
X32293Y4253D02*
X30187D01*
Y2147D01*
X32293D01*
Y4253D01*
D02*
G37*
G36*
X13653D02*
X11547D01*
Y2147D01*
X13653D01*
Y4253D01*
D02*
G37*
G36*
X26160Y4262D02*
X25885Y4226D01*
X25629Y4120D01*
X25409Y3951D01*
X25240Y3731D01*
X25134Y3475D01*
X25098Y3200D01*
X25134Y2925D01*
X25240Y2669D01*
X25409Y2449D01*
X25629Y2280D01*
X25885Y2174D01*
X26160Y2138D01*
X26435Y2174D01*
X26691Y2280D01*
X26911Y2449D01*
X27080Y2669D01*
X27186Y2925D01*
X27222Y3200D01*
X27186Y3475D01*
X27080Y3731D01*
X26911Y3951D01*
X26691Y4120D01*
X26435Y4226D01*
X26160Y4262D01*
D02*
G37*
G36*
X7520D02*
X7245Y4226D01*
X6989Y4120D01*
X6769Y3951D01*
X6600Y3731D01*
X6494Y3475D01*
X6458Y3200D01*
X6494Y2925D01*
X6600Y2669D01*
X6769Y2449D01*
X6989Y2280D01*
X7245Y2174D01*
X7520Y2138D01*
X7795Y2174D01*
X8051Y2280D01*
X8271Y2449D01*
X8440Y2669D01*
X8546Y2925D01*
X8582Y3200D01*
X8546Y3475D01*
X8440Y3731D01*
X8271Y3951D01*
X8051Y4120D01*
X7795Y4226D01*
X7520Y4262D01*
D02*
G37*
G36*
X9806Y2946D02*
X8980D01*
X8984Y2912D01*
X9096Y2643D01*
X9273Y2413D01*
X9503Y2236D01*
X9772Y2124D01*
X9806Y2120D01*
Y2946D01*
D02*
G37*
G36*
X29780D02*
X28954D01*
Y2120D01*
X28988Y2124D01*
X29257Y2236D01*
X29487Y2413D01*
X29664Y2643D01*
X29776Y2912D01*
X29780Y2946D01*
D02*
G37*
G36*
X28446D02*
X27620D01*
X27624Y2912D01*
X27736Y2643D01*
X27913Y2413D01*
X28143Y2236D01*
X28412Y2124D01*
X28446Y2120D01*
Y2946D01*
D02*
G37*
G36*
X11140D02*
X10314D01*
Y2120D01*
X10348Y2124D01*
X10617Y2236D01*
X10847Y2413D01*
X11024Y2643D01*
X11136Y2912D01*
X11140Y2946D01*
D02*
G37*
G36*
X39579Y2546D02*
X38954D01*
Y1921D01*
X39579D01*
Y2546D01*
D02*
G37*
G36*
X38446D02*
X37821D01*
Y1921D01*
X38446D01*
Y2546D01*
D02*
G37*
G36*
X19200Y3335D02*
X18997Y3308D01*
X18808Y3230D01*
X18645Y3105D01*
X18520Y2942D01*
X18442Y2753D01*
X18415Y2550D01*
X18442Y2347D01*
X18520Y2158D01*
X18645Y1995D01*
X18808Y1870D01*
X18997Y1792D01*
X19200Y1765D01*
X19403Y1792D01*
X19592Y1870D01*
X19755Y1995D01*
X19880Y2158D01*
X19958Y2347D01*
X19985Y2550D01*
X19958Y2753D01*
X19880Y2942D01*
X19755Y3105D01*
X19592Y3230D01*
X19403Y3308D01*
X19200Y3335D01*
D02*
G37*
%LPD*%
G36*
X23702Y28680D02*
X23865Y28554D01*
X24056Y28475D01*
X24118Y28467D01*
X24164Y28333D01*
X24016Y28186D01*
X23929Y28055D01*
X23899Y27902D01*
Y23741D01*
X23877Y23732D01*
X23702Y23598D01*
X23645Y23523D01*
X23518Y23566D01*
Y28711D01*
X23645Y28754D01*
X23702Y28680D01*
D02*
G37*
D28*
X38700Y7385D02*
D03*
D29*
Y2800D02*
D03*
D30*
X19200Y2550D02*
D03*
X2300Y7800D02*
D03*
D31*
X19200Y5050D02*
D03*
D36*
X4300Y7800D02*
D03*
D57*
X21700Y44500D02*
X23200Y46000D01*
X21700Y31100D02*
X22900Y29900D01*
X21700Y31100D02*
Y44500D01*
X22900Y29731D02*
X22903Y29728D01*
Y9503D02*
Y29728D01*
X22900Y29731D02*
Y29900D01*
X22000Y8600D02*
X22903Y9503D01*
D58*
X21590Y25100D02*
Y25209D01*
X20400Y26400D02*
X21590Y25209D01*
X20400Y26400D02*
Y30200D01*
X25233Y35033D02*
X28700Y38500D01*
X24300Y27902D02*
X25233Y28835D01*
Y35033D01*
X31844Y37744D02*
X42000Y47900D01*
X31844Y23156D02*
Y37744D01*
X44900Y48900D02*
Y50603D01*
X44874Y50629D02*
X44900Y50603D01*
X44874Y50629D02*
Y50949D01*
X44900Y50974D01*
X24300Y23000D02*
Y27902D01*
X19000Y31600D02*
Y33400D01*
Y31600D02*
X20400Y30200D01*
X33000Y36000D02*
X34600Y34400D01*
Y34200D02*
Y34400D01*
X33000Y36000D02*
Y36200D01*
X31844Y23156D02*
X33200Y21800D01*
X52500Y19000D02*
X55100Y21600D01*
X46945Y19000D02*
X52500D01*
X44345Y16400D02*
X46945Y19000D01*
X40000Y16400D02*
X44345D01*
X42450Y23950D02*
X42500Y24000D01*
X42450Y20850D02*
Y23950D01*
X42400Y20800D02*
X42450Y20850D01*
D62*
X59800Y17640D02*
D03*
Y29320D02*
D03*
X59900Y8540D02*
D03*
X4200Y32100D02*
D03*
X4300Y47100D02*
D03*
Y41140D02*
D03*
D63*
X59800Y15100D02*
D03*
Y12560D02*
D03*
Y21700D02*
D03*
Y24240D02*
D03*
Y26780D02*
D03*
X59900Y6000D02*
D03*
X4200Y34640D02*
D03*
X4300Y49640D02*
D03*
Y38600D02*
D03*
D64*
X35400Y43460D02*
D03*
D65*
Y46000D02*
D03*
Y48540D02*
D03*
Y51080D02*
D03*
X27460D02*
D03*
Y48540D02*
D03*
Y46000D02*
D03*
Y43460D02*
D03*
D66*
X29340Y21300D02*
D03*
X26800D02*
D03*
X24260D02*
D03*
X21720D02*
D03*
X19180D02*
D03*
X16640D02*
D03*
X14100D02*
D03*
Y29238D02*
D03*
X16640D02*
D03*
X19180D02*
D03*
X21720D02*
D03*
X24260D02*
D03*
X26800D02*
D03*
X36180Y29769D02*
D03*
X38720D02*
D03*
X41260D02*
D03*
X43800D02*
D03*
X46340D02*
D03*
X48880D02*
D03*
X51420D02*
D03*
Y21831D02*
D03*
X48880D02*
D03*
X46340D02*
D03*
X43800D02*
D03*
X41260D02*
D03*
X38720D02*
D03*
D67*
X29340Y29238D02*
D03*
X36180Y21831D02*
D03*
D68*
X26160Y3200D02*
D03*
X28700D02*
D03*
X10060D02*
D03*
X7520D02*
D03*
D69*
X31240D02*
D03*
X12600D02*
D03*
D70*
X19900Y51100D02*
D03*
Y52497D02*
D03*
D71*
Y53894D02*
D03*
D72*
X2350Y55250D02*
D03*
X61700Y2300D02*
D03*
X2300D02*
D03*
X61700Y55300D02*
D03*
D73*
X34600Y34200D02*
D03*
X33000Y36200D02*
D03*
D74*
X24900Y7200D02*
D03*
X21590Y26800D02*
D03*
Y25100D02*
D03*
X31400Y6000D02*
D03*
X44000Y2650D02*
D03*
X44900Y51200D02*
D03*
X44900Y48900D02*
D03*
X42300Y51400D02*
D03*
X16000Y11300D02*
D03*
X17600Y34700D02*
D03*
X34000Y55800D02*
D03*
X24300Y23000D02*
D03*
X23000Y34200D02*
D03*
X25500Y25100D02*
D03*
Y26700D02*
D03*
X19000Y33400D02*
D03*
X2600Y27800D02*
D03*
X22000Y8600D02*
D03*
X24900Y43200D02*
D03*
X1300Y44200D02*
D03*
X28700Y38500D02*
D03*
X28500Y40800D02*
D03*
X23200Y46000D02*
D03*
X48600Y36700D02*
D03*
X42000Y47900D02*
D03*
X33200Y21800D02*
D03*
X42700Y33900D02*
D03*
X44300Y18000D02*
D03*
X45800Y16400D02*
D03*
X40000D02*
D03*
X55100Y21600D02*
D03*
X42400Y20800D02*
D03*
X42500Y24000D02*
D03*
M02*
