G04*
G04 #@! TF.GenerationSoftware,Altium Limited,Altium Designer,19.1.9 (167)*
G04*
G04 Layer_Color=8388736*
%FSLAX43Y43*%
%MOMM*%
G71*
G01*
G75*
%ADD17R,1.103X0.903*%
%ADD18R,2.203X3.703*%
%ADD19R,1.103X1.003*%
%ADD20R,0.803X0.903*%
%ADD21R,0.903X1.103*%
%ADD22R,0.903X0.803*%
%ADD23R,3.703X2.203*%
%ADD24R,1.003X1.103*%
%ADD25R,1.003X1.003*%
%ADD26R,1.203X2.003*%
%ADD27R,1.503X2.003*%
%ADD28R,1.203X0.803*%
%ADD29R,1.803X1.803*%
%ADD30C,1.803*%
%ADD31C,1.727*%
%ADD32R,1.362X1.362*%
%ADD33C,1.362*%
%ADD34R,1.150X1.150*%
%ADD35C,1.150*%
%ADD36R,1.903X1.903*%
%ADD37C,1.903*%
%ADD38R,1.150X1.150*%
%ADD39R,1.250X1.250*%
%ADD40C,1.250*%
%ADD41C,1.854*%
%ADD42R,1.854X1.854*%
%ADD43C,1.473*%
D17*
X20300Y13450D02*
D03*
Y11950D02*
D03*
X32600Y35700D02*
D03*
X41200Y39500D02*
D03*
X28000Y13350D02*
D03*
Y14850D02*
D03*
X16400Y14800D02*
D03*
Y13300D02*
D03*
X13800Y13350D02*
D03*
Y14850D02*
D03*
X22400Y46250D02*
D03*
Y44750D02*
D03*
X43600Y42550D02*
D03*
Y44050D02*
D03*
X29300Y14850D02*
D03*
Y13350D02*
D03*
X21900Y27950D02*
D03*
Y29450D02*
D03*
X47100Y15350D02*
D03*
Y13850D02*
D03*
X48400Y13850D02*
D03*
Y15350D02*
D03*
X49100Y29850D02*
D03*
Y31350D02*
D03*
X50500Y31350D02*
D03*
Y29850D02*
D03*
X46400Y28450D02*
D03*
Y29950D02*
D03*
X45100Y28450D02*
D03*
Y29950D02*
D03*
X45800Y15350D02*
D03*
Y13850D02*
D03*
X40000Y15450D02*
D03*
Y13950D02*
D03*
X41300Y15450D02*
D03*
Y13950D02*
D03*
X41300Y31250D02*
D03*
Y29750D02*
D03*
X50100Y3450D02*
D03*
Y1950D02*
D03*
X40900Y2250D02*
D03*
Y3750D02*
D03*
X29300Y27800D02*
D03*
Y29300D02*
D03*
X27000Y29350D02*
D03*
Y27850D02*
D03*
X14100Y27750D02*
D03*
Y29250D02*
D03*
X17500Y47150D02*
D03*
Y45650D02*
D03*
D18*
X61800Y30000D02*
D03*
X43300Y9500D02*
D03*
X40000D02*
D03*
X16000Y10400D02*
D03*
X2100Y50800D02*
D03*
D19*
X24900Y42100D02*
D03*
Y40700D02*
D03*
X15100Y13400D02*
D03*
Y14800D02*
D03*
X29800Y7200D02*
D03*
Y5800D02*
D03*
X51400Y2000D02*
D03*
Y3400D02*
D03*
D20*
X30200Y35050D02*
D03*
Y36350D02*
D03*
X43600Y40150D02*
D03*
Y38850D02*
D03*
D21*
X45900Y40100D02*
D03*
X38050Y44600D02*
D03*
X39550D02*
D03*
X39550Y46000D02*
D03*
X41050D02*
D03*
X38750Y15300D02*
D03*
X37250D02*
D03*
X22850Y14700D02*
D03*
X24350D02*
D03*
X21750Y14700D02*
D03*
X20250D02*
D03*
X12550Y13300D02*
D03*
X11050D02*
D03*
X23550Y44700D02*
D03*
X25050D02*
D03*
X19800Y30300D02*
D03*
X2850Y40100D02*
D03*
X4350D02*
D03*
X24900Y30300D02*
D03*
X49950Y15300D02*
D03*
X51450D02*
D03*
X50450Y28600D02*
D03*
X48950D02*
D03*
X37250Y14000D02*
D03*
X38750D02*
D03*
X34650Y28600D02*
D03*
X36150D02*
D03*
X19150Y14700D02*
D03*
X17650D02*
D03*
X4050Y14900D02*
D03*
X2550D02*
D03*
X40850Y1100D02*
D03*
X39350D02*
D03*
X43250Y6300D02*
D03*
X44750D02*
D03*
X53050Y1700D02*
D03*
X54550D02*
D03*
X2550Y16200D02*
D03*
X1050D02*
D03*
X15950Y47200D02*
D03*
X14450D02*
D03*
D22*
X45250Y42500D02*
D03*
X46550D02*
D03*
X20450Y27900D02*
D03*
X19150D02*
D03*
X25550D02*
D03*
X24250D02*
D03*
D23*
X20400Y9300D02*
D03*
X17300Y37800D02*
D03*
X20000Y42100D02*
D03*
X29600Y50800D02*
D03*
X23500Y50700D02*
D03*
X44300Y51400D02*
D03*
X14450Y44725D02*
D03*
X38600Y51700D02*
D03*
X37600Y31200D02*
D03*
D24*
X40900Y47400D02*
D03*
X39500D02*
D03*
X35400Y50300D02*
D03*
X34000D02*
D03*
X38000Y39500D02*
D03*
X39400D02*
D03*
X43200Y15300D02*
D03*
X44600D02*
D03*
X42700Y28600D02*
D03*
X41300D02*
D03*
X2600Y13200D02*
D03*
X4000D02*
D03*
X8300Y5900D02*
D03*
X6900D02*
D03*
D25*
X5200Y13300D02*
D03*
Y14900D02*
D03*
D26*
X26800Y8900D02*
D03*
X29800D02*
D03*
D27*
X50100Y6300D02*
D03*
X47200D02*
D03*
D28*
X48100Y2300D02*
D03*
X46100Y3250D02*
D03*
Y1350D02*
D03*
X42600Y2300D02*
D03*
X44600Y1350D02*
D03*
Y3250D02*
D03*
X21000Y46250D02*
D03*
Y48150D02*
D03*
X19000Y47200D02*
D03*
D29*
X35400Y39560D02*
D03*
D30*
Y42100D02*
D03*
Y44640D02*
D03*
Y47180D02*
D03*
X27460D02*
D03*
Y44640D02*
D03*
Y42100D02*
D03*
Y39560D02*
D03*
D31*
X34600Y30300D02*
D03*
X33000Y32300D02*
D03*
D32*
X36180Y17931D02*
D03*
X29340Y25338D02*
D03*
D33*
X38720Y17931D02*
D03*
X41260D02*
D03*
X43800D02*
D03*
X46340D02*
D03*
X48880D02*
D03*
X51420D02*
D03*
Y25869D02*
D03*
X48880D02*
D03*
X46340D02*
D03*
X43800D02*
D03*
X41260D02*
D03*
X38720D02*
D03*
X36180D02*
D03*
X29340Y17400D02*
D03*
X26800D02*
D03*
X24260D02*
D03*
X21720D02*
D03*
X19180D02*
D03*
X16640D02*
D03*
X14100D02*
D03*
Y25338D02*
D03*
X16640D02*
D03*
X19180D02*
D03*
X21720D02*
D03*
X24260D02*
D03*
X26800D02*
D03*
D34*
X4600Y9400D02*
D03*
D35*
X2600D02*
D03*
X15100Y2550D02*
D03*
D36*
X27200Y3300D02*
D03*
X8340D02*
D03*
D37*
X24660D02*
D03*
X22120D02*
D03*
X5800D02*
D03*
X3260D02*
D03*
D38*
X15100Y5050D02*
D03*
D39*
X33550Y4600D02*
D03*
D40*
X37050D02*
D03*
D41*
X4300Y45740D02*
D03*
Y34700D02*
D03*
X4200Y30740D02*
D03*
X59800Y8660D02*
D03*
Y11200D02*
D03*
Y22880D02*
D03*
Y20340D02*
D03*
Y17800D02*
D03*
X59900Y2100D02*
D03*
D42*
X4300Y43200D02*
D03*
Y37240D02*
D03*
X4200Y28200D02*
D03*
X59800Y13740D02*
D03*
Y25420D02*
D03*
X59900Y4640D02*
D03*
D43*
X47400Y38200D02*
D03*
X25200Y21300D02*
D03*
X28600Y36700D02*
D03*
X42200Y48700D02*
D03*
X48600Y32800D02*
D03*
X13200Y10100D02*
D03*
X25000Y32000D02*
D03*
X32600Y50500D02*
D03*
X1300Y40300D02*
D03*
X20600Y49700D02*
D03*
X28700Y34600D02*
D03*
X24900Y39300D02*
D03*
X23200Y42100D02*
D03*
X22100Y6100D02*
D03*
X21900Y32000D02*
D03*
X42000Y44000D02*
D03*
X33200Y17900D02*
D03*
X42700Y30000D02*
D03*
X19800Y32000D02*
D03*
X44300Y14100D02*
D03*
X45800Y12500D02*
D03*
X40000D02*
D03*
X55100Y17700D02*
D03*
X42400Y16900D02*
D03*
X42500Y20100D02*
D03*
M02*
