M48
;Layer_Color=9474304
;FILE_FORMAT=4:3
METRIC,TZ
;TYPE=PLATED
T1F00S00C0.650
T2F00S00C0.711
T3F00S00C0.750
T4F00S00C0.759
T5F00S00C0.762
T6F00S00C0.900
T7F00S00C1.000
T8F00S00C1.100
%
T01
X15100Y2550
Y5050
X4600Y9400
X2600
T02
X22100Y6100
X40000Y12500
X45800
X44300Y14100
X42400Y16900
X42500Y20100
X42700Y30000
X48600Y32800
X47400Y38200
X42000Y44000
X55100Y17700
X33200Y17900
X25200Y21300
X25000Y32000
X21900
X19800
X28700Y34600
X28600Y36700
X24900Y39300
X23200Y42100
X1300Y40300
X13200Y10100
X20600Y49700
X32600Y50500
X42200Y48700
T03
X33550Y4600
X37050
T04
X36180Y17931
X38720
X41260
X43800
X46340
X48880
X51420
Y25869
X48880
X46340
X43800
X41260
X38720
X36180
X29340Y25338
X26800
X24260
X21720
X19180
X16640
X14100
Y17400
X16640
X19180
X21720
X24260
X26800
X29340
T05
X34600Y30300
X33000Y32300
T06
X59900Y2100
Y4640
X59800Y8660
Y11200
Y13740
Y17800
Y20340
Y22880
Y25420
X4200Y28200
Y30740
X4300Y34700
Y37240
Y43200
Y45740
T07
X35400Y39560
Y42100
Y44640
X27460
Y42100
Y39560
Y47180
X35400
T08
X3260Y3300
X5800
X8340
X22120
X24660
X27200
M30
