G04*
G04 #@! TF.GenerationSoftware,Altium Limited,Altium Designer,19.1.9 (167)*
G04*
G04 Layer_Physical_Order=2*
G04 Layer_Color=16711680*
%FSLAX43Y43*%
%MOMM*%
G71*
G01*
G75*
%ADD34R,1.150X1.150*%
%ADD35C,1.150*%
%ADD38R,1.150X1.150*%
%ADD39R,1.250X1.250*%
%ADD40C,1.250*%
%ADD56C,0.381*%
%ADD57R,1.600X1.600*%
%ADD58C,1.600*%
%ADD59C,1.524*%
%ADD60R,1.159X1.159*%
%ADD61C,1.159*%
%ADD62R,1.700X1.700*%
%ADD63C,1.700*%
%ADD64C,1.651*%
%ADD65R,1.651X1.651*%
%ADD66C,1.270*%
G36*
X63400Y900D02*
X63673Y627D01*
X63620Y500D01*
X300D01*
Y53496D01*
X63400D01*
Y900D01*
D02*
G37*
%LPC*%
G36*
X27714Y48210D02*
Y47434D01*
X28490D01*
X28487Y47455D01*
X28381Y47712D01*
X28212Y47932D01*
X27992Y48101D01*
X27735Y48207D01*
X27714Y48210D01*
D02*
G37*
G36*
X27206D02*
X27185Y48207D01*
X26928Y48101D01*
X26708Y47932D01*
X26539Y47712D01*
X26433Y47455D01*
X26430Y47434D01*
X27206D01*
Y48210D01*
D02*
G37*
G36*
X35400Y48192D02*
X35138Y48157D01*
X34894Y48056D01*
X34685Y47895D01*
X34524Y47686D01*
X34423Y47442D01*
X34388Y47180D01*
X34423Y46918D01*
X34524Y46674D01*
X34685Y46465D01*
X34894Y46304D01*
X35138Y46203D01*
X35400Y46168D01*
X35662Y46203D01*
X35906Y46304D01*
X36115Y46465D01*
X36276Y46674D01*
X36377Y46918D01*
X36412Y47180D01*
X36377Y47442D01*
X36276Y47686D01*
X36115Y47895D01*
X35906Y48056D01*
X35662Y48157D01*
X35400Y48192D01*
D02*
G37*
G36*
X28490Y46926D02*
X27714D01*
Y46150D01*
X27735Y46153D01*
X27992Y46259D01*
X28212Y46428D01*
X28381Y46648D01*
X28487Y46905D01*
X28490Y46926D01*
D02*
G37*
G36*
X27206D02*
X26430D01*
X26433Y46905D01*
X26539Y46648D01*
X26708Y46428D01*
X26928Y46259D01*
X27185Y46153D01*
X27206Y46150D01*
Y46926D01*
D02*
G37*
G36*
X4300Y46778D02*
X4031Y46742D01*
X3781Y46639D01*
X3566Y46474D01*
X3401Y46259D01*
X3298Y46009D01*
X3262Y45740D01*
X3298Y45471D01*
X3401Y45221D01*
X3566Y45006D01*
X3781Y44841D01*
X4031Y44738D01*
X4300Y44702D01*
X4569Y44738D01*
X4819Y44841D01*
X5034Y45006D01*
X5199Y45221D01*
X5302Y45471D01*
X5338Y45740D01*
X5302Y46009D01*
X5199Y46259D01*
X5034Y46474D01*
X4819Y46639D01*
X4569Y46742D01*
X4300Y46778D01*
D02*
G37*
G36*
X35400Y45652D02*
X35138Y45617D01*
X34894Y45516D01*
X34685Y45355D01*
X34524Y45146D01*
X34423Y44902D01*
X34388Y44640D01*
X34423Y44378D01*
X34524Y44134D01*
X34685Y43925D01*
X34894Y43764D01*
X35138Y43663D01*
X35400Y43628D01*
X35662Y43663D01*
X35906Y43764D01*
X36115Y43925D01*
X36276Y44134D01*
X36377Y44378D01*
X36412Y44640D01*
X36377Y44902D01*
X36276Y45146D01*
X36115Y45355D01*
X35906Y45516D01*
X35662Y45617D01*
X35400Y45652D01*
D02*
G37*
G36*
X27460D02*
X27198Y45617D01*
X26954Y45516D01*
X26745Y45355D01*
X26584Y45146D01*
X26483Y44902D01*
X26448Y44640D01*
X26483Y44378D01*
X26584Y44134D01*
X26745Y43925D01*
X26954Y43764D01*
X27198Y43663D01*
X27460Y43628D01*
X27722Y43663D01*
X27966Y43764D01*
X28175Y43925D01*
X28336Y44134D01*
X28437Y44378D01*
X28472Y44640D01*
X28437Y44902D01*
X28336Y45146D01*
X28175Y45355D01*
X27966Y45516D01*
X27722Y45617D01*
X27460Y45652D01*
D02*
G37*
G36*
X5379Y44279D02*
X4554D01*
Y43454D01*
X5379D01*
Y44279D01*
D02*
G37*
G36*
X4046D02*
X3220D01*
Y43454D01*
X4046D01*
Y44279D01*
D02*
G37*
G36*
X42000Y44845D02*
X41781Y44817D01*
X41577Y44732D01*
X41402Y44598D01*
X41268Y44423D01*
X41183Y44219D01*
X41155Y44000D01*
X41183Y43781D01*
X41192Y43760D01*
X36521Y39088D01*
X36403Y39137D01*
Y40563D01*
X34397D01*
Y38557D01*
X35823D01*
X35872Y38439D01*
X31560Y34128D01*
X31473Y33998D01*
X31443Y33844D01*
Y19256D01*
X31473Y19102D01*
X31560Y18972D01*
X32392Y18140D01*
X32383Y18119D01*
X32355Y17900D01*
X32383Y17681D01*
X32468Y17477D01*
X32602Y17302D01*
X32777Y17168D01*
X32981Y17083D01*
X33200Y17055D01*
X33419Y17083D01*
X33623Y17168D01*
X33798Y17302D01*
X33932Y17477D01*
X34017Y17681D01*
X34045Y17900D01*
X34017Y18119D01*
X33932Y18323D01*
X33798Y18498D01*
X33623Y18632D01*
X33419Y18717D01*
X33200Y18745D01*
X32981Y18717D01*
X32960Y18708D01*
X32246Y19422D01*
Y31502D01*
X32373Y31565D01*
X32513Y31457D01*
X32748Y31360D01*
X33000Y31326D01*
X33182Y31350D01*
X33754Y30779D01*
X33660Y30552D01*
X33626Y30300D01*
X33660Y30048D01*
X33757Y29813D01*
X33912Y29612D01*
X34113Y29457D01*
X34348Y29360D01*
X34600Y29326D01*
X34852Y29360D01*
X35087Y29457D01*
X35288Y29612D01*
X35443Y29813D01*
X35540Y30048D01*
X35574Y30300D01*
X35540Y30552D01*
X35443Y30787D01*
X35288Y30988D01*
X35087Y31143D01*
X34852Y31240D01*
X34600Y31274D01*
X34418Y31250D01*
X33846Y31821D01*
X33940Y32048D01*
X33974Y32300D01*
X33940Y32552D01*
X33843Y32787D01*
X33688Y32988D01*
X33487Y33143D01*
X33252Y33240D01*
X33000Y33274D01*
X32748Y33240D01*
X32513Y33143D01*
X32373Y33035D01*
X32246Y33098D01*
Y33678D01*
X41760Y43192D01*
X41781Y43183D01*
X42000Y43155D01*
X42219Y43183D01*
X42423Y43268D01*
X42598Y43402D01*
X42732Y43577D01*
X42817Y43781D01*
X42845Y44000D01*
X42817Y44219D01*
X42732Y44423D01*
X42598Y44598D01*
X42423Y44732D01*
X42219Y44817D01*
X42000Y44845D01*
D02*
G37*
G36*
X5379Y42946D02*
X4554D01*
Y42120D01*
X5379D01*
Y42946D01*
D02*
G37*
G36*
X4046D02*
X3220D01*
Y42120D01*
X4046D01*
Y42946D01*
D02*
G37*
G36*
X23200Y42945D02*
X22981Y42917D01*
X22777Y42832D01*
X22602Y42698D01*
X22468Y42523D01*
X22383Y42319D01*
X22355Y42100D01*
X22383Y41881D01*
X22392Y41860D01*
X20587Y40055D01*
X20500Y39925D01*
X20470Y39771D01*
Y27563D01*
X20500Y27409D01*
X20587Y27279D01*
X21624Y26243D01*
X21578Y26109D01*
X21516Y26101D01*
X21325Y26022D01*
X21162Y25896D01*
X21036Y25733D01*
X20957Y25542D01*
X20931Y25338D01*
X20957Y25134D01*
X21036Y24943D01*
X21162Y24780D01*
X21325Y24654D01*
X21516Y24575D01*
X21720Y24549D01*
X21924Y24575D01*
X22115Y24654D01*
X22278Y24780D01*
X22300Y24809D01*
X22427Y24765D01*
Y18034D01*
X22300Y18005D01*
X22140Y18128D01*
X21974Y18197D01*
Y17400D01*
Y16603D01*
X22140Y16672D01*
X22300Y16795D01*
X22427Y16766D01*
Y9864D01*
X21816Y9253D01*
X21729Y9123D01*
X21699Y8969D01*
Y6841D01*
X21677Y6832D01*
X21502Y6698D01*
X21368Y6523D01*
X21283Y6319D01*
X21255Y6100D01*
X21283Y5881D01*
X21368Y5677D01*
X21502Y5502D01*
X21677Y5368D01*
X21881Y5283D01*
X22100Y5255D01*
X22319Y5283D01*
X22523Y5368D01*
X22698Y5502D01*
X22832Y5677D01*
X22917Y5881D01*
X22945Y6100D01*
X22917Y6319D01*
X22832Y6523D01*
X22698Y6698D01*
X22523Y6832D01*
X22501Y6841D01*
Y8803D01*
X23113Y9414D01*
X23200Y9544D01*
X23230Y9698D01*
Y25606D01*
X23200Y25759D01*
X23113Y25889D01*
X21273Y27729D01*
Y31265D01*
X21400Y31327D01*
X21477Y31268D01*
X21681Y31183D01*
X21900Y31155D01*
X22119Y31183D01*
X22323Y31268D01*
X22498Y31402D01*
X22632Y31577D01*
X22717Y31781D01*
X22745Y32000D01*
X22717Y32219D01*
X22708Y32240D01*
X24666Y34199D01*
X27959D01*
X27968Y34177D01*
X28102Y34002D01*
X28277Y33868D01*
X28481Y33783D01*
X28700Y33755D01*
X28919Y33783D01*
X29123Y33868D01*
X29298Y34002D01*
X29432Y34177D01*
X29517Y34381D01*
X29545Y34600D01*
X29517Y34819D01*
X29432Y35023D01*
X29298Y35198D01*
X29123Y35332D01*
X28919Y35417D01*
X28700Y35445D01*
X28481Y35417D01*
X28277Y35332D01*
X28102Y35198D01*
X27968Y35023D01*
X27959Y35001D01*
X24500D01*
X24346Y34971D01*
X24216Y34884D01*
X22140Y32808D01*
X22119Y32817D01*
X21900Y32845D01*
X21681Y32817D01*
X21477Y32732D01*
X21400Y32673D01*
X21273Y32735D01*
Y39605D01*
X22960Y41292D01*
X22981Y41283D01*
X23200Y41255D01*
X23419Y41283D01*
X23623Y41368D01*
X23798Y41502D01*
X23932Y41677D01*
X24017Y41881D01*
X24045Y42100D01*
X24017Y42319D01*
X23932Y42523D01*
X23798Y42698D01*
X23623Y42832D01*
X23419Y42917D01*
X23200Y42945D01*
D02*
G37*
G36*
X35400Y43112D02*
X35138Y43077D01*
X34894Y42976D01*
X34685Y42815D01*
X34524Y42606D01*
X34423Y42362D01*
X34388Y42100D01*
X34423Y41838D01*
X34524Y41594D01*
X34685Y41385D01*
X34894Y41224D01*
X35138Y41123D01*
X35400Y41088D01*
X35662Y41123D01*
X35906Y41224D01*
X36115Y41385D01*
X36276Y41594D01*
X36377Y41838D01*
X36412Y42100D01*
X36377Y42362D01*
X36276Y42606D01*
X36115Y42815D01*
X35906Y42976D01*
X35662Y43077D01*
X35400Y43112D01*
D02*
G37*
G36*
X27460D02*
X27198Y43077D01*
X26954Y42976D01*
X26745Y42815D01*
X26584Y42606D01*
X26483Y42362D01*
X26448Y42100D01*
X26483Y41838D01*
X26584Y41594D01*
X26745Y41385D01*
X26954Y41224D01*
X27198Y41123D01*
X27460Y41088D01*
X27722Y41123D01*
X27966Y41224D01*
X28175Y41385D01*
X28336Y41594D01*
X28437Y41838D01*
X28472Y42100D01*
X28437Y42362D01*
X28336Y42606D01*
X28175Y42815D01*
X27966Y42976D01*
X27722Y43077D01*
X27460Y43112D01*
D02*
G37*
G36*
Y40572D02*
X27198Y40537D01*
X26954Y40436D01*
X26745Y40275D01*
X26584Y40066D01*
X26483Y39822D01*
X26448Y39560D01*
X26483Y39298D01*
X26584Y39054D01*
X26745Y38845D01*
X26954Y38684D01*
X27198Y38583D01*
X27460Y38548D01*
X27722Y38583D01*
X27966Y38684D01*
X28175Y38845D01*
X28336Y39054D01*
X28437Y39298D01*
X28472Y39560D01*
X28437Y39822D01*
X28336Y40066D01*
X28175Y40275D01*
X27966Y40436D01*
X27722Y40537D01*
X27460Y40572D01*
D02*
G37*
G36*
X5329Y38269D02*
X3271D01*
Y36211D01*
X5329D01*
Y38269D01*
D02*
G37*
G36*
X4300Y35738D02*
X4031Y35702D01*
X3781Y35599D01*
X3566Y35434D01*
X3401Y35219D01*
X3298Y34969D01*
X3262Y34700D01*
X3298Y34431D01*
X3401Y34181D01*
X3566Y33966D01*
X3781Y33801D01*
X4031Y33698D01*
X4300Y33662D01*
X4569Y33698D01*
X4819Y33801D01*
X5034Y33966D01*
X5199Y34181D01*
X5302Y34431D01*
X5338Y34700D01*
X5302Y34969D01*
X5199Y35219D01*
X5034Y35434D01*
X4819Y35599D01*
X4569Y35702D01*
X4300Y35738D01*
D02*
G37*
G36*
X4200Y31778D02*
X3931Y31742D01*
X3681Y31639D01*
X3466Y31474D01*
X3301Y31259D01*
X3198Y31009D01*
X3162Y30740D01*
X3198Y30471D01*
X3301Y30221D01*
X3466Y30006D01*
X3681Y29841D01*
X3931Y29738D01*
X4200Y29702D01*
X4469Y29738D01*
X4719Y29841D01*
X4934Y30006D01*
X5099Y30221D01*
X5202Y30471D01*
X5238Y30740D01*
X5202Y31009D01*
X5099Y31259D01*
X4934Y31474D01*
X4719Y31639D01*
X4469Y31742D01*
X4200Y31778D01*
D02*
G37*
G36*
X5229Y29229D02*
X3171D01*
Y27171D01*
X5229D01*
Y29229D01*
D02*
G37*
G36*
X44054Y26666D02*
Y26123D01*
X44597D01*
X44528Y26289D01*
X44394Y26463D01*
X44220Y26597D01*
X44054Y26666D01*
D02*
G37*
G36*
X43546Y26666D02*
X43380Y26597D01*
X43206Y26463D01*
X43072Y26289D01*
X43003Y26123D01*
X43546D01*
Y26666D01*
D02*
G37*
G36*
X51420Y26658D02*
X51216Y26632D01*
X51025Y26553D01*
X50862Y26427D01*
X50736Y26264D01*
X50657Y26073D01*
X50631Y25869D01*
X50657Y25665D01*
X50736Y25474D01*
X50862Y25311D01*
X51025Y25185D01*
X51216Y25106D01*
X51420Y25080D01*
X51624Y25106D01*
X51815Y25185D01*
X51978Y25311D01*
X52104Y25474D01*
X52183Y25665D01*
X52209Y25869D01*
X52183Y26073D01*
X52104Y26264D01*
X51978Y26427D01*
X51815Y26553D01*
X51624Y26632D01*
X51420Y26658D01*
D02*
G37*
G36*
X48880D02*
X48676Y26632D01*
X48485Y26553D01*
X48322Y26427D01*
X48196Y26264D01*
X48117Y26073D01*
X48091Y25869D01*
X48117Y25665D01*
X48196Y25474D01*
X48322Y25311D01*
X48485Y25185D01*
X48676Y25106D01*
X48880Y25080D01*
X49084Y25106D01*
X49275Y25185D01*
X49438Y25311D01*
X49564Y25474D01*
X49643Y25665D01*
X49669Y25869D01*
X49643Y26073D01*
X49564Y26264D01*
X49438Y26427D01*
X49275Y26553D01*
X49084Y26632D01*
X48880Y26658D01*
D02*
G37*
G36*
X46340D02*
X46136Y26632D01*
X45945Y26553D01*
X45782Y26427D01*
X45656Y26264D01*
X45577Y26073D01*
X45551Y25869D01*
X45577Y25665D01*
X45656Y25474D01*
X45782Y25311D01*
X45945Y25185D01*
X46136Y25106D01*
X46340Y25080D01*
X46544Y25106D01*
X46735Y25185D01*
X46898Y25311D01*
X47024Y25474D01*
X47103Y25665D01*
X47129Y25869D01*
X47103Y26073D01*
X47024Y26264D01*
X46898Y26427D01*
X46735Y26553D01*
X46544Y26632D01*
X46340Y26658D01*
D02*
G37*
G36*
X41260D02*
X41056Y26632D01*
X40865Y26553D01*
X40702Y26427D01*
X40576Y26264D01*
X40497Y26073D01*
X40471Y25869D01*
X40497Y25665D01*
X40576Y25474D01*
X40702Y25311D01*
X40865Y25185D01*
X41056Y25106D01*
X41260Y25080D01*
X41464Y25106D01*
X41655Y25185D01*
X41818Y25311D01*
X41944Y25474D01*
X42023Y25665D01*
X42049Y25869D01*
X42023Y26073D01*
X41944Y26264D01*
X41818Y26427D01*
X41655Y26553D01*
X41464Y26632D01*
X41260Y26658D01*
D02*
G37*
G36*
X38720D02*
X38516Y26632D01*
X38325Y26553D01*
X38162Y26427D01*
X38036Y26264D01*
X37957Y26073D01*
X37931Y25869D01*
X37957Y25665D01*
X38036Y25474D01*
X38162Y25311D01*
X38325Y25185D01*
X38516Y25106D01*
X38720Y25080D01*
X38924Y25106D01*
X39115Y25185D01*
X39278Y25311D01*
X39404Y25474D01*
X39483Y25665D01*
X39509Y25869D01*
X39483Y26073D01*
X39404Y26264D01*
X39278Y26427D01*
X39115Y26553D01*
X38924Y26632D01*
X38720Y26658D01*
D02*
G37*
G36*
X36180D02*
X35976Y26632D01*
X35785Y26553D01*
X35622Y26427D01*
X35496Y26264D01*
X35417Y26073D01*
X35391Y25869D01*
X35417Y25665D01*
X35496Y25474D01*
X35622Y25311D01*
X35785Y25185D01*
X35976Y25106D01*
X36180Y25080D01*
X36384Y25106D01*
X36575Y25185D01*
X36738Y25311D01*
X36864Y25474D01*
X36943Y25665D01*
X36969Y25869D01*
X36943Y26073D01*
X36864Y26264D01*
X36738Y26427D01*
X36575Y26553D01*
X36384Y26632D01*
X36180Y26658D01*
D02*
G37*
G36*
X44597Y25615D02*
X44054D01*
Y25072D01*
X44220Y25141D01*
X44394Y25275D01*
X44528Y25449D01*
X44597Y25615D01*
D02*
G37*
G36*
X43546D02*
X43003D01*
X43072Y25449D01*
X43206Y25275D01*
X43380Y25141D01*
X43546Y25072D01*
Y25615D01*
D02*
G37*
G36*
X30123Y26121D02*
X28557D01*
Y24555D01*
X30123D01*
Y26121D01*
D02*
G37*
G36*
X26800Y26127D02*
X26596Y26101D01*
X26405Y26022D01*
X26242Y25896D01*
X26116Y25733D01*
X26037Y25542D01*
X26011Y25338D01*
X26037Y25134D01*
X26116Y24943D01*
X26242Y24780D01*
X26405Y24654D01*
X26596Y24575D01*
X26800Y24549D01*
X27004Y24575D01*
X27195Y24654D01*
X27358Y24780D01*
X27484Y24943D01*
X27563Y25134D01*
X27589Y25338D01*
X27563Y25542D01*
X27484Y25733D01*
X27358Y25896D01*
X27195Y26022D01*
X27004Y26101D01*
X26800Y26127D01*
D02*
G37*
G36*
X24260D02*
X24056Y26101D01*
X23865Y26022D01*
X23702Y25896D01*
X23576Y25733D01*
X23497Y25542D01*
X23471Y25338D01*
X23497Y25134D01*
X23576Y24943D01*
X23702Y24780D01*
X23865Y24654D01*
X24056Y24575D01*
X24260Y24549D01*
X24464Y24575D01*
X24655Y24654D01*
X24818Y24780D01*
X24944Y24943D01*
X25023Y25134D01*
X25049Y25338D01*
X25023Y25542D01*
X24944Y25733D01*
X24818Y25896D01*
X24655Y26022D01*
X24464Y26101D01*
X24260Y26127D01*
D02*
G37*
G36*
X19180D02*
X18976Y26101D01*
X18785Y26022D01*
X18622Y25896D01*
X18496Y25733D01*
X18417Y25542D01*
X18391Y25338D01*
X18417Y25134D01*
X18496Y24943D01*
X18622Y24780D01*
X18785Y24654D01*
X18976Y24575D01*
X19180Y24549D01*
X19384Y24575D01*
X19575Y24654D01*
X19738Y24780D01*
X19864Y24943D01*
X19943Y25134D01*
X19969Y25338D01*
X19943Y25542D01*
X19864Y25733D01*
X19738Y25896D01*
X19575Y26022D01*
X19384Y26101D01*
X19180Y26127D01*
D02*
G37*
G36*
X16640D02*
X16436Y26101D01*
X16245Y26022D01*
X16082Y25896D01*
X15956Y25733D01*
X15877Y25542D01*
X15851Y25338D01*
X15877Y25134D01*
X15956Y24943D01*
X16082Y24780D01*
X16245Y24654D01*
X16436Y24575D01*
X16640Y24549D01*
X16844Y24575D01*
X17035Y24654D01*
X17198Y24780D01*
X17324Y24943D01*
X17403Y25134D01*
X17429Y25338D01*
X17403Y25542D01*
X17324Y25733D01*
X17198Y25896D01*
X17035Y26022D01*
X16844Y26101D01*
X16640Y26127D01*
D02*
G37*
G36*
X14100D02*
X13896Y26101D01*
X13705Y26022D01*
X13542Y25896D01*
X13416Y25733D01*
X13337Y25542D01*
X13311Y25338D01*
X13337Y25134D01*
X13416Y24943D01*
X13542Y24780D01*
X13705Y24654D01*
X13896Y24575D01*
X14100Y24549D01*
X14304Y24575D01*
X14495Y24654D01*
X14658Y24780D01*
X14784Y24943D01*
X14863Y25134D01*
X14889Y25338D01*
X14863Y25542D01*
X14784Y25733D01*
X14658Y25896D01*
X14495Y26022D01*
X14304Y26101D01*
X14100Y26127D01*
D02*
G37*
G36*
X60829Y26449D02*
X58771D01*
Y24391D01*
X60829D01*
Y26449D01*
D02*
G37*
G36*
X60054Y23935D02*
Y23134D01*
X60855D01*
X60852Y23162D01*
X60743Y23424D01*
X60570Y23650D01*
X60344Y23823D01*
X60082Y23932D01*
X60054Y23935D01*
D02*
G37*
G36*
X59546D02*
X59518Y23932D01*
X59256Y23823D01*
X59030Y23650D01*
X58857Y23424D01*
X58748Y23162D01*
X58745Y23134D01*
X59546D01*
Y23935D01*
D02*
G37*
G36*
X60855Y22626D02*
X60054D01*
Y21825D01*
X60082Y21828D01*
X60344Y21937D01*
X60570Y22110D01*
X60743Y22336D01*
X60852Y22598D01*
X60855Y22626D01*
D02*
G37*
G36*
X59546D02*
X58745D01*
X58748Y22598D01*
X58857Y22336D01*
X59030Y22110D01*
X59256Y21937D01*
X59518Y21828D01*
X59546Y21825D01*
Y22626D01*
D02*
G37*
G36*
X59800Y21378D02*
X59531Y21342D01*
X59281Y21239D01*
X59066Y21074D01*
X58901Y20859D01*
X58798Y20609D01*
X58762Y20340D01*
X58798Y20071D01*
X58901Y19821D01*
X59066Y19606D01*
X59281Y19441D01*
X59531Y19338D01*
X59800Y19302D01*
X60069Y19338D01*
X60319Y19441D01*
X60534Y19606D01*
X60699Y19821D01*
X60802Y20071D01*
X60838Y20340D01*
X60802Y20609D01*
X60699Y20859D01*
X60534Y21074D01*
X60319Y21239D01*
X60069Y21342D01*
X59800Y21378D01*
D02*
G37*
G36*
X42500Y20945D02*
X42281Y20917D01*
X42077Y20832D01*
X41902Y20698D01*
X41768Y20523D01*
X41683Y20319D01*
X41655Y20100D01*
X41683Y19881D01*
X41768Y19677D01*
X41902Y19502D01*
X42049Y19390D01*
Y18388D01*
X41922Y18355D01*
X41818Y18489D01*
X41655Y18615D01*
X41464Y18694D01*
X41260Y18720D01*
X41056Y18694D01*
X40865Y18615D01*
X40702Y18489D01*
X40576Y18326D01*
X40497Y18135D01*
X40471Y17931D01*
X40497Y17727D01*
X40576Y17536D01*
X40702Y17373D01*
X40865Y17247D01*
X41056Y17168D01*
X41260Y17142D01*
X41464Y17168D01*
X41480Y17175D01*
X41578Y17078D01*
X41555Y16900D01*
X41583Y16681D01*
X41668Y16477D01*
X41802Y16302D01*
X41977Y16168D01*
X42181Y16083D01*
X42400Y16055D01*
X42619Y16083D01*
X42823Y16168D01*
X42998Y16302D01*
X43132Y16477D01*
X43217Y16681D01*
X43245Y16900D01*
X43217Y17119D01*
X43144Y17294D01*
X43242Y17373D01*
X43405Y17247D01*
X43596Y17168D01*
X43800Y17142D01*
X44004Y17168D01*
X44195Y17247D01*
X44358Y17373D01*
X44484Y17536D01*
X44563Y17727D01*
X44589Y17931D01*
X44563Y18135D01*
X44484Y18326D01*
X44358Y18489D01*
X44195Y18615D01*
X44004Y18694D01*
X43800Y18720D01*
X43596Y18694D01*
X43405Y18615D01*
X43242Y18489D01*
X43116Y18326D01*
X43037Y18135D01*
X43011Y17931D01*
X43037Y17727D01*
X43102Y17570D01*
X42998Y17498D01*
X42851Y17610D01*
Y19338D01*
X42923Y19368D01*
X43098Y19502D01*
X43232Y19677D01*
X43317Y19881D01*
X43345Y20100D01*
X43317Y20319D01*
X43232Y20523D01*
X43098Y20698D01*
X42923Y20832D01*
X42719Y20917D01*
X42500Y20945D01*
D02*
G37*
G36*
X21466Y18197D02*
X21300Y18128D01*
X21126Y17994D01*
X20992Y17820D01*
X20923Y17654D01*
X21466D01*
Y18197D01*
D02*
G37*
G36*
X36963Y18714D02*
X35397D01*
Y17148D01*
X36963D01*
Y18714D01*
D02*
G37*
G36*
X51420Y18720D02*
X51216Y18694D01*
X51025Y18615D01*
X50862Y18489D01*
X50736Y18326D01*
X50657Y18135D01*
X50631Y17931D01*
X50657Y17727D01*
X50736Y17536D01*
X50862Y17373D01*
X51025Y17247D01*
X51216Y17168D01*
X51420Y17142D01*
X51624Y17168D01*
X51815Y17247D01*
X51978Y17373D01*
X52104Y17536D01*
X52183Y17727D01*
X52209Y17931D01*
X52183Y18135D01*
X52104Y18326D01*
X51978Y18489D01*
X51815Y18615D01*
X51624Y18694D01*
X51420Y18720D01*
D02*
G37*
G36*
X48880D02*
X48676Y18694D01*
X48485Y18615D01*
X48322Y18489D01*
X48196Y18326D01*
X48117Y18135D01*
X48091Y17931D01*
X48117Y17727D01*
X48196Y17536D01*
X48322Y17373D01*
X48485Y17247D01*
X48676Y17168D01*
X48880Y17142D01*
X49084Y17168D01*
X49275Y17247D01*
X49438Y17373D01*
X49564Y17536D01*
X49643Y17727D01*
X49669Y17931D01*
X49643Y18135D01*
X49564Y18326D01*
X49438Y18489D01*
X49275Y18615D01*
X49084Y18694D01*
X48880Y18720D01*
D02*
G37*
G36*
X46340D02*
X46136Y18694D01*
X45945Y18615D01*
X45782Y18489D01*
X45656Y18326D01*
X45577Y18135D01*
X45551Y17931D01*
X45577Y17727D01*
X45656Y17536D01*
X45782Y17373D01*
X45945Y17247D01*
X46136Y17168D01*
X46340Y17142D01*
X46544Y17168D01*
X46735Y17247D01*
X46898Y17373D01*
X47024Y17536D01*
X47103Y17727D01*
X47129Y17931D01*
X47103Y18135D01*
X47024Y18326D01*
X46898Y18489D01*
X46735Y18615D01*
X46544Y18694D01*
X46340Y18720D01*
D02*
G37*
G36*
X38720D02*
X38516Y18694D01*
X38325Y18615D01*
X38162Y18489D01*
X38036Y18326D01*
X37957Y18135D01*
X37931Y17931D01*
X37957Y17727D01*
X38036Y17536D01*
X38162Y17373D01*
X38325Y17247D01*
X38516Y17168D01*
X38720Y17142D01*
X38924Y17168D01*
X39115Y17247D01*
X39278Y17373D01*
X39404Y17536D01*
X39483Y17727D01*
X39509Y17931D01*
X39483Y18135D01*
X39404Y18326D01*
X39278Y18489D01*
X39115Y18615D01*
X38924Y18694D01*
X38720Y18720D01*
D02*
G37*
G36*
X55100Y18545D02*
X54881Y18517D01*
X54677Y18432D01*
X54502Y18298D01*
X54368Y18123D01*
X54283Y17919D01*
X54255Y17700D01*
X54283Y17481D01*
X54292Y17460D01*
X52334Y15501D01*
X46945D01*
X46792Y15471D01*
X46661Y15384D01*
X44179Y12901D01*
X40741D01*
X40732Y12923D01*
X40598Y13098D01*
X40423Y13232D01*
X40219Y13317D01*
X40000Y13345D01*
X39781Y13317D01*
X39577Y13232D01*
X39402Y13098D01*
X39268Y12923D01*
X39183Y12719D01*
X39155Y12500D01*
X39183Y12281D01*
X39268Y12077D01*
X39402Y11902D01*
X39577Y11768D01*
X39781Y11683D01*
X40000Y11655D01*
X40219Y11683D01*
X40423Y11768D01*
X40598Y11902D01*
X40732Y12077D01*
X40741Y12099D01*
X44345D01*
X44499Y12129D01*
X44629Y12216D01*
X47111Y14699D01*
X52500D01*
X52654Y14729D01*
X52784Y14816D01*
X54860Y16892D01*
X54881Y16883D01*
X55100Y16855D01*
X55319Y16883D01*
X55523Y16968D01*
X55698Y17102D01*
X55832Y17277D01*
X55917Y17481D01*
X55945Y17700D01*
X55917Y17919D01*
X55832Y18123D01*
X55698Y18298D01*
X55523Y18432D01*
X55319Y18517D01*
X55100Y18545D01*
D02*
G37*
G36*
X59800Y18838D02*
X59531Y18802D01*
X59281Y18699D01*
X59066Y18534D01*
X58901Y18319D01*
X58798Y18069D01*
X58762Y17800D01*
X58798Y17531D01*
X58901Y17281D01*
X59066Y17066D01*
X59281Y16901D01*
X59531Y16798D01*
X59800Y16762D01*
X60069Y16798D01*
X60319Y16901D01*
X60534Y17066D01*
X60699Y17281D01*
X60802Y17531D01*
X60838Y17800D01*
X60802Y18069D01*
X60699Y18319D01*
X60534Y18534D01*
X60319Y18699D01*
X60069Y18802D01*
X59800Y18838D01*
D02*
G37*
G36*
X29340Y18189D02*
X29136Y18163D01*
X28945Y18084D01*
X28782Y17958D01*
X28656Y17795D01*
X28577Y17604D01*
X28551Y17400D01*
X28577Y17196D01*
X28656Y17005D01*
X28782Y16842D01*
X28945Y16716D01*
X29136Y16637D01*
X29340Y16611D01*
X29544Y16637D01*
X29735Y16716D01*
X29898Y16842D01*
X30024Y17005D01*
X30103Y17196D01*
X30129Y17400D01*
X30103Y17604D01*
X30024Y17795D01*
X29898Y17958D01*
X29735Y18084D01*
X29544Y18163D01*
X29340Y18189D01*
D02*
G37*
G36*
X26800D02*
X26596Y18163D01*
X26405Y18084D01*
X26242Y17958D01*
X26116Y17795D01*
X26037Y17604D01*
X26011Y17400D01*
X26037Y17196D01*
X26116Y17005D01*
X26242Y16842D01*
X26405Y16716D01*
X26596Y16637D01*
X26800Y16611D01*
X27004Y16637D01*
X27195Y16716D01*
X27358Y16842D01*
X27484Y17005D01*
X27563Y17196D01*
X27589Y17400D01*
X27563Y17604D01*
X27484Y17795D01*
X27358Y17958D01*
X27195Y18084D01*
X27004Y18163D01*
X26800Y18189D01*
D02*
G37*
G36*
X24260D02*
X24056Y18163D01*
X23865Y18084D01*
X23702Y17958D01*
X23576Y17795D01*
X23497Y17604D01*
X23471Y17400D01*
X23497Y17196D01*
X23576Y17005D01*
X23702Y16842D01*
X23865Y16716D01*
X24056Y16637D01*
X24260Y16611D01*
X24464Y16637D01*
X24655Y16716D01*
X24818Y16842D01*
X24944Y17005D01*
X25023Y17196D01*
X25049Y17400D01*
X25023Y17604D01*
X24944Y17795D01*
X24818Y17958D01*
X24655Y18084D01*
X24464Y18163D01*
X24260Y18189D01*
D02*
G37*
G36*
X19180D02*
X18976Y18163D01*
X18785Y18084D01*
X18622Y17958D01*
X18496Y17795D01*
X18417Y17604D01*
X18391Y17400D01*
X18417Y17196D01*
X18496Y17005D01*
X18622Y16842D01*
X18785Y16716D01*
X18976Y16637D01*
X19180Y16611D01*
X19384Y16637D01*
X19575Y16716D01*
X19738Y16842D01*
X19864Y17005D01*
X19943Y17196D01*
X19969Y17400D01*
X19943Y17604D01*
X19864Y17795D01*
X19738Y17958D01*
X19575Y18084D01*
X19384Y18163D01*
X19180Y18189D01*
D02*
G37*
G36*
X16640D02*
X16436Y18163D01*
X16245Y18084D01*
X16082Y17958D01*
X15956Y17795D01*
X15877Y17604D01*
X15851Y17400D01*
X15877Y17196D01*
X15956Y17005D01*
X16082Y16842D01*
X16245Y16716D01*
X16436Y16637D01*
X16640Y16611D01*
X16844Y16637D01*
X17035Y16716D01*
X17198Y16842D01*
X17324Y17005D01*
X17403Y17196D01*
X17429Y17400D01*
X17403Y17604D01*
X17324Y17795D01*
X17198Y17958D01*
X17035Y18084D01*
X16844Y18163D01*
X16640Y18189D01*
D02*
G37*
G36*
X14100D02*
X13896Y18163D01*
X13705Y18084D01*
X13542Y17958D01*
X13416Y17795D01*
X13337Y17604D01*
X13311Y17400D01*
X13337Y17196D01*
X13416Y17005D01*
X13542Y16842D01*
X13705Y16716D01*
X13896Y16637D01*
X14100Y16611D01*
X14304Y16637D01*
X14495Y16716D01*
X14658Y16842D01*
X14784Y17005D01*
X14863Y17196D01*
X14889Y17400D01*
X14863Y17604D01*
X14784Y17795D01*
X14658Y17958D01*
X14495Y18084D01*
X14304Y18163D01*
X14100Y18189D01*
D02*
G37*
G36*
X21466Y17146D02*
X20923D01*
X20992Y16980D01*
X21126Y16806D01*
X21300Y16672D01*
X21466Y16603D01*
Y17146D01*
D02*
G37*
G36*
X60829Y14769D02*
X58771D01*
Y12711D01*
X60829D01*
Y14769D01*
D02*
G37*
G36*
X59800Y12238D02*
X59531Y12202D01*
X59281Y12099D01*
X59066Y11934D01*
X58901Y11719D01*
X58798Y11469D01*
X58762Y11200D01*
X58798Y10931D01*
X58901Y10681D01*
X59066Y10466D01*
X59281Y10301D01*
X59531Y10198D01*
X59800Y10162D01*
X60069Y10198D01*
X60319Y10301D01*
X60534Y10466D01*
X60699Y10681D01*
X60802Y10931D01*
X60838Y11200D01*
X60802Y11469D01*
X60699Y11719D01*
X60534Y11934D01*
X60319Y12099D01*
X60069Y12202D01*
X59800Y12238D01*
D02*
G37*
G36*
X5429Y10229D02*
X4854D01*
Y9654D01*
X5429D01*
Y10229D01*
D02*
G37*
G36*
X4346D02*
X3771D01*
Y9654D01*
X4346D01*
Y10229D01*
D02*
G37*
G36*
X60054Y9715D02*
Y8914D01*
X60855D01*
X60852Y8942D01*
X60743Y9204D01*
X60570Y9430D01*
X60344Y9603D01*
X60082Y9712D01*
X60054Y9715D01*
D02*
G37*
G36*
X59546D02*
X59518Y9712D01*
X59256Y9603D01*
X59030Y9430D01*
X58857Y9204D01*
X58748Y8942D01*
X58745Y8914D01*
X59546D01*
Y9715D01*
D02*
G37*
G36*
X2600Y10185D02*
X2397Y10158D01*
X2208Y10080D01*
X2045Y9955D01*
X1920Y9792D01*
X1842Y9603D01*
X1815Y9400D01*
X1842Y9197D01*
X1920Y9008D01*
X2045Y8845D01*
X2208Y8720D01*
X2397Y8642D01*
X2600Y8615D01*
X2803Y8642D01*
X2992Y8720D01*
X3155Y8845D01*
X3280Y9008D01*
X3358Y9197D01*
X3385Y9400D01*
X3358Y9603D01*
X3280Y9792D01*
X3155Y9955D01*
X2992Y10080D01*
X2803Y10158D01*
X2600Y10185D01*
D02*
G37*
G36*
X5429Y9146D02*
X4854D01*
Y8571D01*
X5429D01*
Y9146D01*
D02*
G37*
G36*
X4346D02*
X3771D01*
Y8571D01*
X4346D01*
Y9146D01*
D02*
G37*
G36*
X60855Y8406D02*
X60054D01*
Y7605D01*
X60082Y7608D01*
X60344Y7717D01*
X60570Y7890D01*
X60743Y8116D01*
X60852Y8378D01*
X60855Y8406D01*
D02*
G37*
G36*
X59546D02*
X58745D01*
X58748Y8378D01*
X58857Y8116D01*
X59030Y7890D01*
X59256Y7717D01*
X59518Y7608D01*
X59546Y7605D01*
Y8406D01*
D02*
G37*
G36*
X15929Y5879D02*
X15354D01*
Y5304D01*
X15929D01*
Y5879D01*
D02*
G37*
G36*
X14846D02*
X14271D01*
Y5304D01*
X14846D01*
Y5879D01*
D02*
G37*
G36*
X34429Y5479D02*
X33804D01*
Y4854D01*
X34429D01*
Y5479D01*
D02*
G37*
G36*
X33296D02*
X32671D01*
Y4854D01*
X33296D01*
Y5479D01*
D02*
G37*
G36*
X15929Y4796D02*
X15354D01*
Y4221D01*
X15929D01*
Y4796D01*
D02*
G37*
G36*
X14846D02*
X14271D01*
Y4221D01*
X14846D01*
Y4796D01*
D02*
G37*
G36*
X37050Y5435D02*
X36834Y5407D01*
X36632Y5323D01*
X36459Y5191D01*
X36327Y5018D01*
X36243Y4816D01*
X36215Y4600D01*
X36243Y4384D01*
X36327Y4182D01*
X36459Y4009D01*
X36632Y3877D01*
X36834Y3793D01*
X37050Y3765D01*
X37266Y3793D01*
X37468Y3877D01*
X37641Y4009D01*
X37773Y4182D01*
X37857Y4384D01*
X37885Y4600D01*
X37857Y4816D01*
X37773Y5018D01*
X37641Y5191D01*
X37468Y5323D01*
X37266Y5407D01*
X37050Y5435D01*
D02*
G37*
G36*
X34429Y4346D02*
X33804D01*
Y3721D01*
X34429D01*
Y4346D01*
D02*
G37*
G36*
X33296D02*
X32671D01*
Y3721D01*
X33296D01*
Y4346D01*
D02*
G37*
G36*
X60929Y5669D02*
X58871D01*
Y3611D01*
X60929D01*
Y5669D01*
D02*
G37*
G36*
X6054Y4380D02*
Y3554D01*
X6880D01*
X6876Y3588D01*
X6764Y3857D01*
X6587Y4087D01*
X6357Y4264D01*
X6088Y4376D01*
X6054Y4380D01*
D02*
G37*
G36*
X24914Y4380D02*
Y3554D01*
X25740D01*
X25736Y3588D01*
X25624Y3857D01*
X25447Y4087D01*
X25217Y4264D01*
X24948Y4376D01*
X24914Y4380D01*
D02*
G37*
G36*
X24406D02*
X24372Y4376D01*
X24103Y4264D01*
X23873Y4087D01*
X23696Y3857D01*
X23584Y3588D01*
X23580Y3554D01*
X24406D01*
Y4380D01*
D02*
G37*
G36*
X5546D02*
X5512Y4376D01*
X5243Y4264D01*
X5013Y4087D01*
X4836Y3857D01*
X4724Y3588D01*
X4720Y3554D01*
X5546D01*
Y4380D01*
D02*
G37*
G36*
X28253Y4353D02*
X26147D01*
Y2247D01*
X28253D01*
Y4353D01*
D02*
G37*
G36*
X9393D02*
X7287D01*
Y2247D01*
X9393D01*
Y4353D01*
D02*
G37*
G36*
X22120Y4362D02*
X21845Y4326D01*
X21589Y4220D01*
X21369Y4051D01*
X21200Y3831D01*
X21094Y3575D01*
X21058Y3300D01*
X21094Y3025D01*
X21200Y2769D01*
X21369Y2549D01*
X21589Y2380D01*
X21845Y2274D01*
X22120Y2238D01*
X22395Y2274D01*
X22651Y2380D01*
X22871Y2549D01*
X23040Y2769D01*
X23146Y3025D01*
X23182Y3300D01*
X23146Y3575D01*
X23040Y3831D01*
X22871Y4051D01*
X22651Y4220D01*
X22395Y4326D01*
X22120Y4362D01*
D02*
G37*
G36*
X3260D02*
X2985Y4326D01*
X2729Y4220D01*
X2509Y4051D01*
X2340Y3831D01*
X2234Y3575D01*
X2198Y3300D01*
X2234Y3025D01*
X2340Y2769D01*
X2509Y2549D01*
X2729Y2380D01*
X2985Y2274D01*
X3260Y2238D01*
X3535Y2274D01*
X3791Y2380D01*
X4011Y2549D01*
X4180Y2769D01*
X4286Y3025D01*
X4322Y3300D01*
X4286Y3575D01*
X4180Y3831D01*
X4011Y4051D01*
X3791Y4220D01*
X3535Y4326D01*
X3260Y4362D01*
D02*
G37*
G36*
X6880Y3046D02*
X6054D01*
Y2220D01*
X6088Y2224D01*
X6357Y2336D01*
X6587Y2513D01*
X6764Y2743D01*
X6876Y3012D01*
X6880Y3046D01*
D02*
G37*
G36*
X25740D02*
X24914D01*
Y2220D01*
X24948Y2224D01*
X25217Y2336D01*
X25447Y2513D01*
X25624Y2743D01*
X25736Y3012D01*
X25740Y3046D01*
D02*
G37*
G36*
X24406D02*
X23580D01*
X23584Y3012D01*
X23696Y2743D01*
X23873Y2513D01*
X24103Y2336D01*
X24372Y2224D01*
X24406Y2220D01*
Y3046D01*
D02*
G37*
G36*
X5546D02*
X4720D01*
X4724Y3012D01*
X4836Y2743D01*
X5013Y2513D01*
X5243Y2336D01*
X5512Y2224D01*
X5546Y2220D01*
Y3046D01*
D02*
G37*
G36*
X15100Y3335D02*
X14897Y3308D01*
X14708Y3230D01*
X14545Y3105D01*
X14420Y2942D01*
X14342Y2753D01*
X14315Y2550D01*
X14342Y2347D01*
X14420Y2158D01*
X14545Y1995D01*
X14708Y1870D01*
X14897Y1792D01*
X15100Y1765D01*
X15303Y1792D01*
X15492Y1870D01*
X15655Y1995D01*
X15780Y2158D01*
X15858Y2347D01*
X15885Y2550D01*
X15858Y2753D01*
X15780Y2942D01*
X15655Y3105D01*
X15492Y3230D01*
X15303Y3308D01*
X15100Y3335D01*
D02*
G37*
G36*
X59900Y3138D02*
X59631Y3102D01*
X59381Y2999D01*
X59166Y2834D01*
X59001Y2619D01*
X58898Y2369D01*
X58862Y2100D01*
X58898Y1831D01*
X59001Y1581D01*
X59166Y1366D01*
X59381Y1201D01*
X59631Y1098D01*
X59900Y1062D01*
X60169Y1098D01*
X60419Y1201D01*
X60634Y1366D01*
X60799Y1581D01*
X60902Y1831D01*
X60938Y2100D01*
X60902Y2369D01*
X60799Y2619D01*
X60634Y2834D01*
X60419Y2999D01*
X60169Y3102D01*
X59900Y3138D01*
D02*
G37*
%LPD*%
D34*
X4600Y9400D02*
D03*
D35*
X2600D02*
D03*
X15100Y2550D02*
D03*
D38*
Y5050D02*
D03*
D39*
X33550Y4600D02*
D03*
D40*
X37050D02*
D03*
D56*
X33000Y32100D02*
X34600Y30500D01*
X33000Y32100D02*
Y32300D01*
X34600Y30300D02*
Y30500D01*
X31844Y33844D02*
X42000Y44000D01*
X31844Y19256D02*
Y33844D01*
Y19256D02*
X33200Y17900D01*
X21900Y32000D02*
X24500Y34600D01*
X28700D01*
X20871Y39771D02*
X23200Y42100D01*
X20871Y27563D02*
Y39771D01*
Y27563D02*
X22829Y25606D01*
Y9698D02*
Y25606D01*
X22100Y8969D02*
X22829Y9698D01*
X22100Y6100D02*
Y8969D01*
X52500Y15100D02*
X55100Y17700D01*
X46945Y15100D02*
X52500D01*
X44345Y12500D02*
X46945Y15100D01*
X40000Y12500D02*
X44345D01*
X42450Y20050D02*
X42500Y20100D01*
X42450Y16950D02*
Y20050D01*
X42400Y16900D02*
X42450Y16950D01*
D57*
X35400Y39560D02*
D03*
D58*
Y42100D02*
D03*
Y44640D02*
D03*
Y47180D02*
D03*
X27460D02*
D03*
Y44640D02*
D03*
Y42100D02*
D03*
Y39560D02*
D03*
D59*
X34600Y30300D02*
D03*
X33000Y32300D02*
D03*
D60*
X36180Y17931D02*
D03*
X29340Y25338D02*
D03*
D61*
X38720Y17931D02*
D03*
X41260D02*
D03*
X43800D02*
D03*
X46340D02*
D03*
X48880D02*
D03*
X51420D02*
D03*
Y25869D02*
D03*
X48880D02*
D03*
X46340D02*
D03*
X43800D02*
D03*
X41260D02*
D03*
X38720D02*
D03*
X36180D02*
D03*
X29340Y17400D02*
D03*
X26800D02*
D03*
X24260D02*
D03*
X21720D02*
D03*
X19180D02*
D03*
X16640D02*
D03*
X14100D02*
D03*
Y25338D02*
D03*
X16640D02*
D03*
X19180D02*
D03*
X21720D02*
D03*
X24260D02*
D03*
X26800D02*
D03*
D62*
X27200Y3300D02*
D03*
X8340D02*
D03*
D63*
X24660D02*
D03*
X22120D02*
D03*
X5800D02*
D03*
X3260D02*
D03*
D64*
X4300Y45740D02*
D03*
Y34700D02*
D03*
X4200Y30740D02*
D03*
X59800Y8660D02*
D03*
Y11200D02*
D03*
Y22880D02*
D03*
Y20340D02*
D03*
Y17800D02*
D03*
X59900Y2100D02*
D03*
D65*
X4300Y43200D02*
D03*
Y37240D02*
D03*
X4200Y28200D02*
D03*
X59800Y13740D02*
D03*
Y25420D02*
D03*
X59900Y4640D02*
D03*
D66*
X47400Y38200D02*
D03*
X25200Y21300D02*
D03*
X28600Y36700D02*
D03*
X42200Y48700D02*
D03*
X48600Y32800D02*
D03*
X13200Y10100D02*
D03*
X25000Y32000D02*
D03*
X32600Y50500D02*
D03*
X1300Y40300D02*
D03*
X20600Y49700D02*
D03*
X28700Y34600D02*
D03*
X24900Y39300D02*
D03*
X23200Y42100D02*
D03*
X22100Y6100D02*
D03*
X21900Y32000D02*
D03*
X42000Y44000D02*
D03*
X33200Y17900D02*
D03*
X42700Y30000D02*
D03*
X19800Y32000D02*
D03*
X44300Y14100D02*
D03*
X45800Y12500D02*
D03*
X40000D02*
D03*
X55100Y17700D02*
D03*
X42400Y16900D02*
D03*
X42500Y20100D02*
D03*
M02*
