M48
;Layer_Color=9474304
;FILE_FORMAT=2:5
INCH,TZ
;TYPE=PLATED
T1F00S00C0.02559
T2F00S00C0.02800
T3F00S00C0.02953
T4F00S00C0.02988
T5F00S00C0.03000
T6F00S00C0.03543
T7F00S00C0.03937
T8F00S00C0.04331
%
T01
X59449Y10039
Y19882
X18110Y37008
X10236
T02
X87008Y24016
X157480Y49213
X180315
X174409Y55512
X166929Y66535
X167323Y79134
X168110Y118110
X191339Y129134
X186614Y150394
X165354Y173228
X216929Y69685
X130709Y70472
X99213Y83858
X98425Y125984
X86221
X77953
X112992Y136221
X112598Y144488
X98032Y154724
X91339Y165748
X5118Y158661
X51968Y39764
X81102Y195669
X128347Y198819
X166142Y191732
T03
X132087Y18110
X145866
T04
X142441Y70595
X152441
X162441
X172441
X182441
X192441
X202441
Y101847
X192441
X182441
X172441
X162441
X152441
X142441
X115512Y99756
X105512
X95512
X85512
X75512
X65512
X55512
Y68504
X65512
X75512
X85512
X95512
X105512
X115512
T05
X136221Y119291
X129921Y127165
T06
X235827Y8268
Y18268
X235433Y34095
Y44094
Y54094
Y70079
Y80079
Y90079
Y100079
X16535Y111024
Y121024
X16929Y136614
Y146614
Y170079
Y180079
T07
X139370Y155748
Y165748
Y175748
X108110
Y165748
Y155748
Y185748
X139370
T08
X12835Y12992
X22835
X32835
X87087
X97087
X107087
M30
