G04*
G04 #@! TF.GenerationSoftware,Altium Limited,Altium Designer,19.1.9 (167)*
G04*
G04 Layer_Physical_Order=1*
G04 Layer_Color=255*
%FSLAX43Y43*%
%MOMM*%
G71*
G01*
G75*
%ADD16C,0.300*%
%ADD34R,1.150X1.150*%
%ADD35C,1.150*%
%ADD38R,1.150X1.150*%
%ADD39R,1.250X1.250*%
%ADD40C,1.250*%
%ADD44R,0.900X0.700*%
%ADD45R,2.000X3.500*%
%ADD46R,0.900X0.800*%
%ADD47R,0.600X0.700*%
%ADD48R,0.700X0.900*%
%ADD49R,0.700X0.600*%
%ADD50R,3.500X2.000*%
%ADD51R,0.800X0.900*%
%ADD52R,0.800X0.800*%
%ADD53R,1.000X1.800*%
%ADD54R,1.300X1.800*%
%ADD55R,1.000X0.600*%
%ADD56C,0.381*%
%ADD57R,1.600X1.600*%
%ADD58C,1.600*%
%ADD59C,1.524*%
%ADD60R,1.159X1.159*%
%ADD61C,1.159*%
%ADD62R,1.700X1.700*%
%ADD63C,1.700*%
%ADD64C,1.651*%
%ADD65R,1.651X1.651*%
%ADD66C,1.270*%
G36*
X63796Y6732D02*
X53014D01*
X51600Y8146D01*
X51532Y8191D01*
X51453Y8207D01*
X51453Y8207D01*
X44503D01*
Y11453D01*
X42097D01*
Y7547D01*
X42849D01*
Y6953D01*
X42697D01*
Y6701D01*
X38800D01*
X38646Y6671D01*
X38516Y6584D01*
X37318Y5386D01*
X37266Y5407D01*
X37050Y5435D01*
X36834Y5407D01*
X36818Y5400D01*
X34734Y7484D01*
X34604Y7571D01*
X34450Y7601D01*
X30453D01*
Y7797D01*
X30503D01*
Y10003D01*
X29097D01*
Y7797D01*
X29147D01*
Y6597D01*
X30453D01*
Y6799D01*
X34284D01*
X36250Y4832D01*
X36243Y4816D01*
X36215Y4600D01*
X36243Y4384D01*
X36327Y4182D01*
X36459Y4009D01*
X36632Y3877D01*
X36834Y3793D01*
X37050Y3765D01*
X37266Y3793D01*
X37468Y3877D01*
X37641Y4009D01*
X37773Y4182D01*
X37857Y4384D01*
X37885Y4600D01*
X37860Y4792D01*
X38966Y5899D01*
X42697D01*
Y5647D01*
X43743D01*
Y5426D01*
X43301Y4908D01*
X39950D01*
X39871Y4892D01*
X39803Y4847D01*
X39759Y4780D01*
X39743Y4701D01*
X39743Y1753D01*
X38797D01*
Y1501D01*
X37216D01*
X34378Y4339D01*
Y5428D01*
X33289D01*
X32634Y6084D01*
X32504Y6171D01*
X32350Y6201D01*
X30453D01*
Y6403D01*
X29147D01*
Y5197D01*
X30453D01*
Y5399D01*
X32184D01*
X32722Y4861D01*
Y3772D01*
X33811D01*
X36766Y816D01*
X36896Y729D01*
X37050Y699D01*
X38797D01*
Y447D01*
X39743D01*
Y204D01*
X204D01*
X204Y53496D01*
X63796D01*
Y6732D01*
D02*
G37*
G36*
X52928Y6525D02*
X63796D01*
Y204D01*
X39950D01*
X39950Y4701D01*
X43397D01*
X43950Y5350D01*
Y6750D01*
X44301Y7547D01*
X44503D01*
Y8000D01*
X51453D01*
X52928Y6525D01*
D02*
G37*
%LPC*%
G36*
X25453Y51903D02*
X21547D01*
Y49903D01*
X21420Y49895D01*
X21417Y49919D01*
X21332Y50123D01*
X21198Y50298D01*
X21023Y50432D01*
X20819Y50517D01*
X20600Y50545D01*
X20381Y50517D01*
X20177Y50432D01*
X20002Y50298D01*
X19868Y50123D01*
X19783Y49919D01*
X19755Y49700D01*
X19783Y49481D01*
X19868Y49277D01*
X20002Y49102D01*
X20177Y48968D01*
X20381Y48883D01*
X20599Y48855D01*
Y48653D01*
X20297D01*
Y47647D01*
X21703D01*
Y48653D01*
X21401D01*
Y49059D01*
X21371Y49213D01*
X21330Y49274D01*
X21332Y49277D01*
X21417Y49481D01*
X21420Y49505D01*
X21547Y49497D01*
Y49497D01*
X23149D01*
Y46880D01*
X23053Y46803D01*
X23022Y46803D01*
X21747D01*
Y46803D01*
X21703Y46753D01*
X20297D01*
Y45747D01*
X21703D01*
X21747Y45697D01*
Y45697D01*
X23022D01*
X23053Y45697D01*
X23149Y45620D01*
Y45353D01*
X22997D01*
Y45303D01*
X21747D01*
Y44197D01*
X22997D01*
Y44047D01*
X24103D01*
Y45353D01*
X23951D01*
Y49497D01*
X25453D01*
Y51903D01*
D02*
G37*
G36*
X46253Y52603D02*
X42347D01*
Y50614D01*
X41910Y50177D01*
X41823Y50047D01*
X41792Y49894D01*
Y49438D01*
X41777Y49432D01*
X41602Y49298D01*
X41468Y49123D01*
X41383Y48919D01*
X41355Y48700D01*
X41381Y48499D01*
X40936Y48053D01*
X40297D01*
Y46747D01*
X40416D01*
X40497Y46653D01*
X40497Y46620D01*
Y45347D01*
X41603D01*
Y45599D01*
X45634D01*
X50099Y41134D01*
Y31903D01*
X49880D01*
X49847Y31903D01*
X49720Y31903D01*
X49501D01*
Y32300D01*
X49471Y32454D01*
X49405Y32553D01*
X49417Y32581D01*
X49445Y32800D01*
X49417Y33019D01*
X49332Y33223D01*
X49198Y33398D01*
X49023Y33532D01*
X48819Y33617D01*
X48600Y33645D01*
X48381Y33617D01*
X48177Y33532D01*
X48002Y33398D01*
X47868Y33223D01*
X47783Y33019D01*
X47755Y32800D01*
X47783Y32581D01*
X47868Y32377D01*
X48002Y32202D01*
X48177Y32068D01*
X48357Y31993D01*
X48447Y31903D01*
Y30797D01*
X49720D01*
X49753Y30797D01*
X49880Y30797D01*
X51153D01*
Y31903D01*
X50901D01*
Y41300D01*
X50871Y41454D01*
X50784Y41584D01*
X46084Y46284D01*
X45954Y46371D01*
X45800Y46401D01*
X41603D01*
Y46653D01*
X41584D01*
X41503Y46747D01*
X41503Y46780D01*
Y47486D01*
X41925Y47907D01*
X41981Y47883D01*
X42200Y47855D01*
X42419Y47883D01*
X42623Y47968D01*
X42798Y48102D01*
X42932Y48277D01*
X43017Y48481D01*
X43045Y48700D01*
X43017Y48919D01*
X42932Y49123D01*
X42798Y49298D01*
X42623Y49432D01*
X42595Y49444D01*
Y49727D01*
X43064Y50197D01*
X46253D01*
Y52603D01*
D02*
G37*
G36*
X16503Y47853D02*
X15397D01*
Y46547D01*
X16503D01*
Y46799D01*
X16847D01*
Y46597D01*
X18153D01*
Y46799D01*
X18297D01*
Y46697D01*
X19703D01*
Y47703D01*
X18297D01*
Y47601D01*
X18153D01*
Y47703D01*
X16847D01*
Y47601D01*
X16503D01*
Y47853D01*
D02*
G37*
G36*
X31553Y52003D02*
X27647D01*
Y49597D01*
X30986D01*
X31595Y48987D01*
X31725Y48900D01*
X31879Y48870D01*
X34999D01*
Y48100D01*
X34894Y48056D01*
X34685Y47895D01*
X34524Y47686D01*
X34423Y47442D01*
X34388Y47180D01*
X34423Y46918D01*
X34466Y46814D01*
X32316Y44664D01*
X32229Y44534D01*
X32199Y44380D01*
Y36253D01*
X31947D01*
Y35714D01*
X30940Y34708D01*
X30703D01*
Y35603D01*
X30278D01*
X30218Y35678D01*
X30270Y35797D01*
X30703D01*
Y36903D01*
X30601D01*
Y38100D01*
X30571Y38254D01*
X30484Y38384D01*
X29084Y39784D01*
X28954Y39871D01*
X28800Y39901D01*
X28404D01*
X28336Y40066D01*
X28175Y40275D01*
X27966Y40436D01*
X27722Y40537D01*
X27460Y40572D01*
X27198Y40537D01*
X26954Y40436D01*
X26745Y40275D01*
X26584Y40066D01*
X26483Y39822D01*
X26448Y39560D01*
X26483Y39298D01*
X26584Y39054D01*
X26745Y38845D01*
X26954Y38684D01*
X27198Y38583D01*
X27460Y38548D01*
X27722Y38583D01*
X27966Y38684D01*
X28175Y38845D01*
X28336Y39054D01*
X28355Y39099D01*
X28634D01*
X29799Y37934D01*
Y36903D01*
X29697D01*
Y36337D01*
X29579Y36288D01*
X29408Y36460D01*
X29417Y36481D01*
X29445Y36700D01*
X29417Y36919D01*
X29332Y37123D01*
X29198Y37298D01*
X29023Y37432D01*
X28819Y37517D01*
X28600Y37545D01*
X28381Y37517D01*
X28177Y37432D01*
X28002Y37298D01*
X27868Y37123D01*
X27783Y36919D01*
X27755Y36700D01*
X27783Y36481D01*
X27868Y36277D01*
X28002Y36102D01*
X28177Y35968D01*
X28381Y35883D01*
X28600Y35855D01*
X28819Y35883D01*
X28840Y35892D01*
X29628Y35104D01*
X29582Y34982D01*
X29570Y34976D01*
X29443Y35001D01*
X29441D01*
X29432Y35023D01*
X29298Y35198D01*
X29123Y35332D01*
X28919Y35417D01*
X28700Y35445D01*
X28481Y35417D01*
X28277Y35332D01*
X28102Y35198D01*
X27968Y35023D01*
X27883Y34819D01*
X27855Y34600D01*
X27883Y34381D01*
X27968Y34177D01*
X28102Y34002D01*
X28126Y33984D01*
X28083Y33857D01*
X18406D01*
X18252Y33827D01*
X18122Y33740D01*
X14186Y29803D01*
X13447D01*
Y28697D01*
X14753D01*
Y29236D01*
X18572Y33054D01*
X32202D01*
X32265Y32927D01*
X32157Y32787D01*
X32122Y32701D01*
X30050D01*
X29896Y32671D01*
X29766Y32584D01*
X27086Y29903D01*
X26347D01*
Y28797D01*
X27653D01*
Y29336D01*
X30216Y31899D01*
X32122D01*
X32157Y31813D01*
X32312Y31612D01*
X32513Y31457D01*
X32748Y31360D01*
X32982Y31329D01*
X33051Y31219D01*
X31534Y29701D01*
X29953D01*
Y29853D01*
X28647D01*
Y28747D01*
X29953D01*
Y28899D01*
X31700D01*
X31854Y28929D01*
X31984Y29016D01*
X33533Y30566D01*
X33654Y30506D01*
X33626Y30300D01*
X33660Y30048D01*
X33757Y29813D01*
X33912Y29612D01*
X34113Y29457D01*
X34298Y29380D01*
X34273Y29253D01*
X34097D01*
Y27947D01*
X34249D01*
Y25050D01*
X34279Y24896D01*
X34366Y24766D01*
X39316Y19816D01*
X39446Y19729D01*
X39600Y19699D01*
X41759D01*
X41768Y19677D01*
X41902Y19502D01*
X41993Y19433D01*
X41950Y19306D01*
X37904D01*
X37751Y19275D01*
X37620Y19188D01*
X37090Y18657D01*
X36963Y18710D01*
Y18714D01*
X35397D01*
Y18301D01*
X33941D01*
X33932Y18323D01*
X33798Y18498D01*
X33623Y18632D01*
X33419Y18717D01*
X33200Y18745D01*
X32981Y18717D01*
X32777Y18632D01*
X32602Y18498D01*
X32468Y18323D01*
X32383Y18119D01*
X32355Y17900D01*
X32383Y17681D01*
X32468Y17477D01*
X32602Y17302D01*
X32777Y17168D01*
X32981Y17083D01*
X33200Y17055D01*
X33419Y17083D01*
X33623Y17168D01*
X33798Y17302D01*
X33932Y17477D01*
X33941Y17499D01*
X35397D01*
Y17148D01*
X35779D01*
Y14420D01*
X35809Y14266D01*
X35896Y14136D01*
X36316Y13716D01*
X36446Y13629D01*
X36600Y13599D01*
X36697D01*
Y13347D01*
X37803D01*
Y14647D01*
X37803D01*
Y15953D01*
X37651D01*
Y18084D01*
X37903Y18335D01*
X38010Y18263D01*
X37957Y18135D01*
X37931Y17931D01*
X37957Y17727D01*
X38036Y17536D01*
X38162Y17373D01*
X38325Y17247D01*
X38334Y17244D01*
Y15953D01*
X38197D01*
Y14653D01*
X38197D01*
Y13347D01*
X39303D01*
Y13347D01*
X39409Y13397D01*
X39599D01*
Y13241D01*
X39577Y13232D01*
X39402Y13098D01*
X39268Y12923D01*
X39183Y12719D01*
X39155Y12500D01*
X39183Y12281D01*
X39268Y12077D01*
X39402Y11902D01*
X39577Y11768D01*
X39599Y11759D01*
Y11453D01*
X38797D01*
Y7547D01*
X41203D01*
Y11453D01*
X40401D01*
Y11759D01*
X40423Y11768D01*
X40598Y11902D01*
X40732Y12077D01*
X40817Y12281D01*
X40845Y12500D01*
X40817Y12719D01*
X40732Y12923D01*
X40598Y13098D01*
X40423Y13232D01*
X40401Y13241D01*
Y13397D01*
X41953D01*
Y13936D01*
X42614Y14596D01*
X42946D01*
Y15300D01*
X43200D01*
Y15554D01*
X43854D01*
Y16004D01*
X43673D01*
Y16155D01*
X44014Y16496D01*
X44101Y16626D01*
X44131Y16780D01*
Y17166D01*
X44220Y17203D01*
X44394Y17337D01*
X44528Y17511D01*
X44597Y17677D01*
X43800D01*
Y18185D01*
X44597D01*
X44528Y18351D01*
X44499Y18389D01*
X44555Y18503D01*
X45632D01*
X45695Y18376D01*
X45656Y18326D01*
X45577Y18135D01*
X45551Y17931D01*
X45577Y17727D01*
X45656Y17536D01*
X45782Y17373D01*
X45945Y17247D01*
X46136Y17168D01*
X46340Y17142D01*
X46441Y17155D01*
X46699Y16897D01*
Y15903D01*
X45203D01*
Y15953D01*
X43997D01*
Y15017D01*
X43981Y15009D01*
X43919Y15046D01*
X43454D01*
Y14596D01*
X43475D01*
X43546Y14469D01*
X43483Y14319D01*
X43454Y14100D01*
X43483Y13881D01*
X43568Y13677D01*
X43702Y13502D01*
X43877Y13368D01*
X44081Y13283D01*
X44300Y13255D01*
X44519Y13283D01*
X44723Y13368D01*
X44898Y13502D01*
X45020Y13661D01*
X45077Y13657D01*
X45147Y13626D01*
Y13297D01*
X45253D01*
X45296Y13170D01*
X45202Y13098D01*
X45068Y12923D01*
X44983Y12719D01*
X44955Y12500D01*
X44983Y12281D01*
X45068Y12077D01*
X45202Y11902D01*
X45377Y11768D01*
X45581Y11683D01*
X45800Y11655D01*
X46019Y11683D01*
X46223Y11768D01*
X46398Y11902D01*
X46532Y12077D01*
X46617Y12281D01*
X46645Y12500D01*
X46617Y12719D01*
X46532Y12923D01*
X46398Y13098D01*
X46304Y13170D01*
X46347Y13297D01*
X47747D01*
Y13297D01*
X49053D01*
Y13449D01*
X56984D01*
X58846Y11586D01*
X58798Y11469D01*
X58762Y11200D01*
X58798Y10931D01*
X58901Y10681D01*
X59066Y10466D01*
X59281Y10301D01*
X59531Y10198D01*
X59800Y10162D01*
X60069Y10198D01*
X60319Y10301D01*
X60534Y10466D01*
X60699Y10681D01*
X60802Y10931D01*
X60838Y11200D01*
X60802Y11469D01*
X60699Y11719D01*
X60534Y11934D01*
X60319Y12099D01*
X60069Y12202D01*
X59800Y12238D01*
X59531Y12202D01*
X59414Y12154D01*
X59025Y12543D01*
X59073Y12660D01*
X59546D01*
Y13486D01*
X58721D01*
Y13013D01*
X58603Y12965D01*
X57434Y14134D01*
X57304Y14221D01*
X57150Y14251D01*
X49053D01*
Y14403D01*
X47753D01*
Y14403D01*
X45219D01*
X45147Y14403D01*
X45051Y14478D01*
X45032Y14523D01*
X45024Y14533D01*
X45080Y14647D01*
X45203D01*
Y14797D01*
X47747D01*
Y14797D01*
X49053D01*
Y15563D01*
X49171Y15612D01*
X49397Y15386D01*
Y14647D01*
X50503D01*
Y15953D01*
X49964D01*
X48901Y17016D01*
X48947Y17150D01*
X49084Y17168D01*
X49275Y17247D01*
X49438Y17373D01*
X49559Y17530D01*
X50741D01*
X50862Y17373D01*
X51009Y17260D01*
Y15953D01*
X50897D01*
Y14647D01*
X52003D01*
Y15953D01*
X51811D01*
Y17246D01*
X51815Y17247D01*
X51978Y17373D01*
X52104Y17536D01*
X52183Y17727D01*
X52209Y17931D01*
X52183Y18135D01*
X52104Y18326D01*
X51978Y18489D01*
X51815Y18615D01*
X51624Y18694D01*
X51420Y18720D01*
X51216Y18694D01*
X51025Y18615D01*
X50862Y18489D01*
X50741Y18332D01*
X49559D01*
X49438Y18489D01*
X49275Y18615D01*
X49084Y18694D01*
X48880Y18720D01*
X48676Y18694D01*
X48485Y18615D01*
X48322Y18489D01*
X48274Y18427D01*
X48118Y18432D01*
X48084Y18484D01*
X47380Y19188D01*
X47249Y19275D01*
X47096Y19306D01*
X43050D01*
X43007Y19433D01*
X43098Y19502D01*
X43232Y19677D01*
X43317Y19881D01*
X43345Y20100D01*
X43317Y20319D01*
X43232Y20523D01*
X43098Y20698D01*
X42923Y20832D01*
X42719Y20917D01*
X42500Y20945D01*
X42281Y20917D01*
X42077Y20832D01*
X41902Y20698D01*
X41768Y20523D01*
X41759Y20501D01*
X39766D01*
X35051Y25216D01*
Y27947D01*
X35203D01*
Y29253D01*
X34927D01*
X34902Y29380D01*
X35087Y29457D01*
X35288Y29612D01*
X35443Y29813D01*
X35520Y29998D01*
X35647Y29997D01*
Y29997D01*
X39036D01*
X39499Y29534D01*
Y26349D01*
X39372Y26306D01*
X39278Y26427D01*
X39115Y26553D01*
X38924Y26632D01*
X38720Y26658D01*
X38516Y26632D01*
X38325Y26553D01*
X38162Y26427D01*
X38041Y26270D01*
X36859D01*
X36738Y26427D01*
X36575Y26553D01*
X36566Y26556D01*
Y27947D01*
X36703D01*
Y29253D01*
X35597D01*
Y27947D01*
X35764D01*
Y26536D01*
X35622Y26427D01*
X35496Y26264D01*
X35417Y26073D01*
X35391Y25869D01*
X35417Y25665D01*
X35496Y25474D01*
X35622Y25311D01*
X35785Y25185D01*
X35976Y25106D01*
X36180Y25080D01*
X36384Y25106D01*
X36575Y25185D01*
X36738Y25311D01*
X36859Y25468D01*
X38041D01*
X38162Y25311D01*
X38325Y25185D01*
X38516Y25106D01*
X38720Y25080D01*
X38924Y25106D01*
X39115Y25185D01*
X39278Y25311D01*
X39404Y25474D01*
X39451Y25588D01*
X39594Y25602D01*
X39616Y25569D01*
X45129Y20056D01*
X45259Y19969D01*
X45413Y19939D01*
X58853D01*
X58901Y19821D01*
X59066Y19606D01*
X59281Y19441D01*
X59531Y19338D01*
X59800Y19302D01*
X60069Y19338D01*
X60319Y19441D01*
X60534Y19606D01*
X60699Y19821D01*
X60802Y20071D01*
X60838Y20340D01*
X60802Y20609D01*
X60699Y20859D01*
X60534Y21074D01*
X60319Y21239D01*
X60069Y21342D01*
X59800Y21378D01*
X59531Y21342D01*
X59281Y21239D01*
X59066Y21074D01*
X58901Y20859D01*
X58853Y20741D01*
X45579D01*
X41356Y24964D01*
X41402Y25098D01*
X41464Y25106D01*
X41655Y25185D01*
X41818Y25311D01*
X41944Y25474D01*
X42023Y25665D01*
X42049Y25869D01*
X42023Y26073D01*
X41944Y26264D01*
X41818Y26427D01*
X41681Y26532D01*
Y27947D01*
X41903D01*
Y29197D01*
X41953D01*
Y29281D01*
X42080Y29336D01*
X42111Y29307D01*
X42097Y29253D01*
X42097D01*
Y27947D01*
X43303D01*
Y29253D01*
X43303D01*
X43269Y29380D01*
X43298Y29402D01*
X43432Y29577D01*
X43517Y29781D01*
X43545Y30000D01*
X43517Y30219D01*
X43432Y30423D01*
X43298Y30598D01*
X43123Y30732D01*
X42919Y30817D01*
X42700Y30845D01*
X42481Y30817D01*
X42277Y30732D01*
X42102Y30598D01*
X41968Y30423D01*
X41918Y30303D01*
X40647D01*
Y29197D01*
X40697D01*
Y27947D01*
X40879D01*
Y26558D01*
X40865Y26553D01*
X40702Y26427D01*
X40576Y26264D01*
X40497Y26073D01*
X40364Y26025D01*
X40301Y26074D01*
Y29700D01*
X40271Y29854D01*
X40184Y29984D01*
X39553Y30614D01*
Y30849D01*
X40647D01*
Y30697D01*
X41953D01*
Y31803D01*
X40647D01*
Y31651D01*
X39553D01*
Y32199D01*
X43034D01*
X44602Y30630D01*
X44550Y30503D01*
X44447D01*
Y29397D01*
X47053D01*
Y30503D01*
X46801D01*
Y30700D01*
X46771Y30854D01*
X46684Y30984D01*
X43928Y33740D01*
X43798Y33827D01*
X43644Y33857D01*
X31371D01*
X31333Y33984D01*
X31390Y34022D01*
X32514Y35147D01*
X33253D01*
Y36253D01*
X33001D01*
Y44214D01*
X35034Y46246D01*
X35138Y46203D01*
X35400Y46168D01*
X35662Y46203D01*
X35906Y46304D01*
X36115Y46465D01*
X36276Y46674D01*
X36377Y46918D01*
X36412Y47180D01*
X36377Y47442D01*
X36276Y47686D01*
X36115Y47895D01*
X35906Y48056D01*
X35801Y48100D01*
Y49300D01*
Y49647D01*
X36003D01*
Y50953D01*
X34797D01*
Y49673D01*
X34603D01*
Y50953D01*
X33397D01*
X33397Y50953D01*
Y50953D01*
X33281Y50990D01*
X33198Y51098D01*
X33023Y51232D01*
X32819Y51317D01*
X32600Y51345D01*
X32381Y51317D01*
X32177Y51232D01*
X32002Y51098D01*
X31868Y50923D01*
X31783Y50719D01*
X31755Y50500D01*
X31783Y50281D01*
X31868Y50077D01*
X32002Y49902D01*
X32032Y49880D01*
X32002Y49742D01*
X31980Y49737D01*
X31553Y50164D01*
Y52003D01*
D02*
G37*
G36*
X27460Y48192D02*
X27198Y48157D01*
X26954Y48056D01*
X26745Y47895D01*
X26584Y47686D01*
X26483Y47442D01*
X26448Y47180D01*
X26483Y46918D01*
X26584Y46674D01*
X26745Y46465D01*
X26954Y46304D01*
X27198Y46203D01*
X27460Y46168D01*
X27722Y46203D01*
X27966Y46304D01*
X28175Y46465D01*
X28336Y46674D01*
X28437Y46918D01*
X28472Y47180D01*
X28437Y47442D01*
X28336Y47686D01*
X28175Y47895D01*
X27966Y48056D01*
X27722Y48157D01*
X27460Y48192D01*
D02*
G37*
G36*
Y45652D02*
X27198Y45617D01*
X26954Y45516D01*
X26745Y45355D01*
X26584Y45146D01*
X26553Y45071D01*
X25603D01*
Y45353D01*
X24497D01*
Y44047D01*
X25603D01*
Y44269D01*
X26528D01*
X26584Y44134D01*
X26745Y43925D01*
X26954Y43764D01*
X27198Y43663D01*
X27460Y43628D01*
X27722Y43663D01*
X27966Y43764D01*
X28175Y43925D01*
X28336Y44134D01*
X28437Y44378D01*
X28472Y44640D01*
X28437Y44902D01*
X28336Y45146D01*
X28175Y45355D01*
X27966Y45516D01*
X27722Y45617D01*
X27460Y45652D01*
D02*
G37*
G36*
X40553Y52903D02*
X36647D01*
Y50497D01*
X37599D01*
Y45253D01*
X37497D01*
Y45021D01*
X36328D01*
X36276Y45146D01*
X36115Y45355D01*
X35906Y45516D01*
X35662Y45617D01*
X35400Y45652D01*
X35138Y45617D01*
X34894Y45516D01*
X34685Y45355D01*
X34524Y45146D01*
X34423Y44902D01*
X34388Y44640D01*
X34423Y44378D01*
X34524Y44134D01*
X34685Y43925D01*
X34894Y43764D01*
X35138Y43663D01*
X35400Y43628D01*
X35662Y43663D01*
X35906Y43764D01*
X36115Y43925D01*
X36276Y44134D01*
X36311Y44219D01*
X37497D01*
Y43947D01*
X38603D01*
Y45253D01*
X38401D01*
Y50497D01*
X40553D01*
Y52903D01*
D02*
G37*
G36*
X40103Y48053D02*
X38897D01*
Y46747D01*
X38916D01*
X38997Y46653D01*
Y45347D01*
X38997D01*
X38997Y45253D01*
X38997D01*
Y43947D01*
X40103D01*
Y45253D01*
X40103D01*
X40103Y45347D01*
X40103D01*
Y46653D01*
X40103D01*
Y46747D01*
X40103D01*
Y48053D01*
D02*
G37*
G36*
X3303Y52753D02*
X897D01*
Y48847D01*
X1699D01*
Y45876D01*
X1729Y45722D01*
X1816Y45592D01*
X3264Y44145D01*
Y43495D01*
X3271Y43456D01*
Y42171D01*
X5329D01*
Y44229D01*
X4066D01*
Y44311D01*
X4036Y44464D01*
X3949Y44595D01*
X3881Y44663D01*
X3953Y44770D01*
X4031Y44738D01*
X4300Y44702D01*
X4569Y44738D01*
X4819Y44841D01*
X5034Y45006D01*
X5199Y45221D01*
X5247Y45339D01*
X9540D01*
X9694Y45369D01*
X9824Y45456D01*
X11166Y46799D01*
X13897D01*
Y46547D01*
X14049D01*
Y45928D01*
X12497D01*
Y43522D01*
X16403D01*
Y45928D01*
X14851D01*
Y46547D01*
X15003D01*
Y47853D01*
X13897D01*
Y47601D01*
X11000D01*
X10846Y47571D01*
X10716Y47484D01*
X9374Y46141D01*
X5247D01*
X5199Y46259D01*
X5034Y46474D01*
X4819Y46639D01*
X4569Y46742D01*
X4300Y46778D01*
X4031Y46742D01*
X3781Y46639D01*
X3566Y46474D01*
X3401Y46259D01*
X3298Y46009D01*
X3262Y45740D01*
X3298Y45471D01*
X3330Y45393D01*
X3223Y45321D01*
X2501Y46042D01*
Y48847D01*
X3303D01*
Y52753D01*
D02*
G37*
G36*
X42000Y44845D02*
X41781Y44817D01*
X41577Y44732D01*
X41402Y44598D01*
X41268Y44423D01*
X41183Y44219D01*
X41155Y44000D01*
X41183Y43781D01*
X41268Y43577D01*
X41402Y43402D01*
X41577Y43268D01*
X41781Y43183D01*
X42000Y43155D01*
X42219Y43183D01*
X42423Y43268D01*
X42598Y43402D01*
X42732Y43577D01*
X42751Y43624D01*
X42947D01*
Y43497D01*
X44253D01*
Y44603D01*
X42947D01*
Y44426D01*
X42729D01*
X42598Y44598D01*
X42423Y44732D01*
X42219Y44817D01*
X42000Y44845D01*
D02*
G37*
G36*
X35400Y43112D02*
X35138Y43077D01*
X34894Y42976D01*
X34685Y42815D01*
X34524Y42606D01*
X34423Y42362D01*
X34388Y42100D01*
X34423Y41838D01*
X34524Y41594D01*
X34685Y41385D01*
X34894Y41224D01*
X35138Y41123D01*
X35400Y41088D01*
X35662Y41123D01*
X35906Y41224D01*
X36115Y41385D01*
X36276Y41594D01*
X36299Y41649D01*
X41850D01*
X42004Y41679D01*
X42134Y41766D01*
X42466Y42099D01*
X42947D01*
Y41997D01*
X44253D01*
Y42099D01*
X44697D01*
Y41997D01*
X45803D01*
Y43003D01*
X44697D01*
Y42901D01*
X44253D01*
Y43103D01*
X42947D01*
Y42901D01*
X42300D01*
X42146Y42871D01*
X42016Y42784D01*
X41684Y42451D01*
X36340D01*
X36276Y42606D01*
X36115Y42815D01*
X35906Y42976D01*
X35662Y43077D01*
X35400Y43112D01*
D02*
G37*
G36*
X18153Y46203D02*
X16847D01*
Y45097D01*
X18153D01*
Y45200D01*
X18280Y45252D01*
X19599Y43934D01*
Y43303D01*
X18047D01*
Y40897D01*
X21953D01*
Y41699D01*
X22459D01*
X22468Y41677D01*
X22602Y41502D01*
X22777Y41368D01*
X22981Y41283D01*
X23200Y41255D01*
X23419Y41283D01*
X23623Y41368D01*
X23798Y41502D01*
X23932Y41677D01*
X23941Y41699D01*
X24247D01*
Y41497D01*
X25553D01*
Y41699D01*
X26540D01*
X26584Y41594D01*
X26745Y41385D01*
X26954Y41224D01*
X27198Y41123D01*
X27460Y41088D01*
X27722Y41123D01*
X27966Y41224D01*
X28175Y41385D01*
X28336Y41594D01*
X28437Y41838D01*
X28472Y42100D01*
X28437Y42362D01*
X28336Y42606D01*
X28175Y42815D01*
X27966Y42976D01*
X27722Y43077D01*
X27460Y43112D01*
X27198Y43077D01*
X26954Y42976D01*
X26745Y42815D01*
X26584Y42606D01*
X26540Y42501D01*
X25553D01*
Y42703D01*
X24247D01*
Y42501D01*
X23941D01*
X23932Y42523D01*
X23798Y42698D01*
X23623Y42832D01*
X23419Y42917D01*
X23200Y42945D01*
X22981Y42917D01*
X22777Y42832D01*
X22602Y42698D01*
X22468Y42523D01*
X22459Y42501D01*
X21953D01*
Y43303D01*
X20401D01*
Y44100D01*
X20371Y44254D01*
X20284Y44384D01*
X18684Y45984D01*
X18554Y46071D01*
X18400Y46101D01*
X18153D01*
Y46203D01*
D02*
G37*
G36*
X46453Y40753D02*
X45347D01*
Y40526D01*
X44103D01*
Y40703D01*
X43097D01*
Y39597D01*
X44103D01*
Y39724D01*
X45347D01*
Y39447D01*
X46453D01*
Y40753D01*
D02*
G37*
G36*
X1300Y41145D02*
X1081Y41117D01*
X877Y41032D01*
X702Y40898D01*
X568Y40723D01*
X483Y40519D01*
X455Y40300D01*
X483Y40081D01*
X568Y39877D01*
X702Y39702D01*
X877Y39568D01*
X1081Y39483D01*
X1300Y39455D01*
X1519Y39483D01*
X1723Y39568D01*
X1893Y39699D01*
X2297D01*
Y39447D01*
X3403D01*
Y40753D01*
X2297D01*
Y40501D01*
X2119D01*
X2117Y40519D01*
X2032Y40723D01*
X1898Y40898D01*
X1723Y41032D01*
X1519Y41117D01*
X1300Y41145D01*
D02*
G37*
G36*
X40003Y40153D02*
X38797D01*
Y38847D01*
X40003D01*
Y39099D01*
X40547D01*
Y38947D01*
X41853D01*
Y40053D01*
X40547D01*
Y39901D01*
X40003D01*
Y40153D01*
D02*
G37*
G36*
X36403Y40563D02*
X34397D01*
Y38557D01*
X36403D01*
Y39099D01*
X37397D01*
Y38847D01*
X38603D01*
Y40153D01*
X37397D01*
Y39901D01*
X36403D01*
Y40563D01*
D02*
G37*
G36*
X47103Y43003D02*
X45997D01*
Y41997D01*
X46436D01*
X46999Y41434D01*
Y38941D01*
X46977Y38932D01*
X46802Y38798D01*
X46668Y38623D01*
X46659Y38601D01*
X44366D01*
X44103Y38864D01*
Y39403D01*
X43097D01*
Y38297D01*
X43536D01*
X43916Y37916D01*
X44046Y37829D01*
X44200Y37799D01*
X46659D01*
X46668Y37777D01*
X46802Y37602D01*
X46977Y37468D01*
X47181Y37383D01*
X47400Y37355D01*
X47619Y37383D01*
X47823Y37468D01*
X47998Y37602D01*
X48132Y37777D01*
X48217Y37981D01*
X48245Y38200D01*
X48217Y38419D01*
X48132Y38623D01*
X47998Y38798D01*
X47823Y38932D01*
X47801Y38941D01*
Y41600D01*
X47771Y41754D01*
X47684Y41884D01*
X47103Y42464D01*
Y43003D01*
D02*
G37*
G36*
X25553Y41303D02*
X24247D01*
Y40097D01*
X24353D01*
X24396Y39970D01*
X24302Y39898D01*
X24168Y39723D01*
X24083Y39519D01*
X24055Y39300D01*
X24083Y39081D01*
X24092Y39060D01*
X23234Y38201D01*
X19253D01*
Y39003D01*
X15347D01*
Y36597D01*
X19253D01*
Y37399D01*
X23400D01*
X23554Y37429D01*
X23684Y37516D01*
X24660Y38492D01*
X24681Y38483D01*
X24900Y38455D01*
X25119Y38483D01*
X25323Y38568D01*
X25498Y38702D01*
X25632Y38877D01*
X25717Y39081D01*
X25745Y39300D01*
X25717Y39519D01*
X25632Y39723D01*
X25498Y39898D01*
X25404Y39970D01*
X25447Y40097D01*
X25553D01*
Y41303D01*
D02*
G37*
G36*
X4903Y40753D02*
X3797D01*
Y39447D01*
X3949D01*
Y38269D01*
X3271D01*
Y36211D01*
X5329D01*
Y38269D01*
X4751D01*
Y39447D01*
X4903D01*
Y40753D01*
D02*
G37*
G36*
X4200Y31778D02*
X3931Y31742D01*
X3681Y31639D01*
X3466Y31474D01*
X3301Y31259D01*
X3198Y31009D01*
X3162Y30740D01*
X3198Y30471D01*
X3246Y30354D01*
X766Y27874D01*
X679Y27744D01*
X649Y27590D01*
Y16853D01*
X497D01*
Y15547D01*
X1603D01*
Y16853D01*
X1451D01*
Y27424D01*
X3054Y29026D01*
X3171Y28978D01*
Y27171D01*
X3799D01*
Y25300D01*
X3829Y25146D01*
X3916Y25016D01*
X10649Y18284D01*
Y13953D01*
X10497D01*
Y12647D01*
X11603D01*
Y13953D01*
X11451D01*
Y18450D01*
X11421Y18604D01*
X11334Y18734D01*
X4601Y25466D01*
Y27171D01*
X5229D01*
Y29229D01*
X3422D01*
X3374Y29346D01*
X3814Y29786D01*
X3931Y29738D01*
X4200Y29702D01*
X4469Y29738D01*
X4719Y29841D01*
X4934Y30006D01*
X5099Y30221D01*
X5202Y30471D01*
X5238Y30740D01*
X5202Y31009D01*
X5099Y31259D01*
X4934Y31474D01*
X4719Y31639D01*
X4469Y31742D01*
X4200Y31778D01*
D02*
G37*
G36*
X25000Y32845D02*
X24781Y32817D01*
X24577Y32732D01*
X24402Y32598D01*
X24268Y32423D01*
X24183Y32219D01*
X24155Y32000D01*
X24183Y31781D01*
X24268Y31577D01*
X24402Y31402D01*
X24499Y31328D01*
Y30953D01*
X24347D01*
Y29647D01*
X25453D01*
Y30953D01*
X25301D01*
Y31218D01*
X25423Y31268D01*
X25598Y31402D01*
X25732Y31577D01*
X25817Y31781D01*
X25845Y32000D01*
X25817Y32219D01*
X25732Y32423D01*
X25598Y32598D01*
X25423Y32732D01*
X25219Y32817D01*
X25000Y32845D01*
D02*
G37*
G36*
X19800D02*
X19581Y32817D01*
X19377Y32732D01*
X19202Y32598D01*
X19068Y32423D01*
X18983Y32219D01*
X18955Y32000D01*
X18983Y31781D01*
X19068Y31577D01*
X19202Y31402D01*
X19377Y31268D01*
X19399Y31259D01*
Y30953D01*
X19247D01*
Y29647D01*
X20353D01*
Y30953D01*
X20201D01*
Y31259D01*
X20223Y31268D01*
X20398Y31402D01*
X20532Y31577D01*
X20617Y31781D01*
X20645Y32000D01*
X20617Y32219D01*
X20532Y32423D01*
X20398Y32598D01*
X20223Y32732D01*
X20019Y32817D01*
X19800Y32845D01*
D02*
G37*
G36*
X21900D02*
X21681Y32817D01*
X21477Y32732D01*
X21302Y32598D01*
X21168Y32423D01*
X21083Y32219D01*
X21055Y32000D01*
X21083Y31781D01*
X21168Y31577D01*
X21302Y31402D01*
X21477Y31268D01*
X21499Y31259D01*
Y30003D01*
X21247D01*
Y28897D01*
X22553D01*
Y30003D01*
X22301D01*
Y31259D01*
X22323Y31268D01*
X22498Y31402D01*
X22632Y31577D01*
X22717Y31781D01*
X22745Y32000D01*
X22717Y32219D01*
X22632Y32423D01*
X22498Y32598D01*
X22323Y32732D01*
X22119Y32817D01*
X21900Y32845D01*
D02*
G37*
G36*
X22553Y28503D02*
X21247D01*
Y28326D01*
X21003D01*
Y28403D01*
X19897D01*
Y27397D01*
X21003D01*
Y27524D01*
X21247D01*
Y27397D01*
X22553D01*
Y28503D01*
D02*
G37*
G36*
X26103Y28403D02*
X24997D01*
Y27397D01*
X26103D01*
Y27499D01*
X26347D01*
Y27297D01*
X27653D01*
Y28403D01*
X26347D01*
Y28301D01*
X26103D01*
Y28403D01*
D02*
G37*
G36*
X29953Y28353D02*
X28647D01*
Y27247D01*
X28899D01*
Y26121D01*
X28557D01*
Y25739D01*
X27479D01*
X27358Y25896D01*
X27195Y26022D01*
X27004Y26101D01*
X26800Y26127D01*
X26596Y26101D01*
X26405Y26022D01*
X26242Y25896D01*
X26116Y25733D01*
X26037Y25542D01*
X26011Y25338D01*
X26037Y25134D01*
X26116Y24943D01*
X26242Y24780D01*
X26405Y24654D01*
X26596Y24575D01*
X26800Y24549D01*
X27004Y24575D01*
X27195Y24654D01*
X27358Y24780D01*
X27479Y24937D01*
X28557D01*
Y24555D01*
X30123D01*
Y26121D01*
X29701D01*
Y27247D01*
X29953D01*
Y28353D01*
D02*
G37*
G36*
X60880Y26500D02*
X60054D01*
Y25674D01*
X60880D01*
Y26500D01*
D02*
G37*
G36*
X59546D02*
X58721D01*
Y25674D01*
X59546D01*
Y26500D01*
D02*
G37*
G36*
X21974Y26135D02*
Y25592D01*
X22517D01*
X22448Y25758D01*
X22314Y25932D01*
X22140Y26066D01*
X21974Y26135D01*
D02*
G37*
G36*
X21466D02*
X21300Y26066D01*
X21126Y25932D01*
X20992Y25758D01*
X20923Y25592D01*
X21466D01*
Y26135D01*
D02*
G37*
G36*
X49847Y30403D02*
X49720Y30403D01*
X48447D01*
Y29297D01*
X48397Y29253D01*
X48397D01*
Y27947D01*
X48514D01*
Y26564D01*
X48485Y26553D01*
X48322Y26427D01*
X48196Y26264D01*
X48117Y26073D01*
X48091Y25869D01*
X48117Y25665D01*
X48196Y25474D01*
X48322Y25311D01*
X48485Y25185D01*
X48676Y25106D01*
X48880Y25080D01*
X49084Y25106D01*
X49275Y25185D01*
X49438Y25311D01*
X49564Y25474D01*
X49643Y25665D01*
X49669Y25869D01*
X49643Y26073D01*
X49564Y26264D01*
X49438Y26427D01*
X49316Y26521D01*
Y27947D01*
X49503D01*
Y29253D01*
X49612Y29297D01*
X49788Y29297D01*
X49897Y29191D01*
Y27947D01*
X50099D01*
Y26789D01*
X50129Y26635D01*
X50216Y26505D01*
X50656Y26065D01*
X50631Y25869D01*
X50657Y25665D01*
X50736Y25474D01*
X50862Y25311D01*
X51025Y25185D01*
X51216Y25106D01*
X51420Y25080D01*
X51624Y25106D01*
X51815Y25185D01*
X51978Y25311D01*
X52104Y25474D01*
X52183Y25665D01*
X52209Y25869D01*
X52183Y26073D01*
X52104Y26264D01*
X51978Y26427D01*
X51815Y26553D01*
X51624Y26632D01*
X51420Y26658D01*
X51224Y26633D01*
X50901Y26955D01*
Y27947D01*
X51003D01*
Y29253D01*
X51112Y29297D01*
X51153D01*
Y30403D01*
X49880D01*
X49847Y30403D01*
D02*
G37*
G36*
X47053Y29003D02*
X44447D01*
Y27897D01*
X45969D01*
Y26562D01*
X45945Y26553D01*
X45782Y26427D01*
X45656Y26264D01*
X45577Y26073D01*
X45551Y25869D01*
X45577Y25665D01*
X45656Y25474D01*
X45782Y25311D01*
X45945Y25185D01*
X46136Y25106D01*
X46340Y25080D01*
X46544Y25106D01*
X46735Y25185D01*
X46898Y25311D01*
X47024Y25474D01*
X47103Y25665D01*
X47129Y25869D01*
X47103Y26073D01*
X47024Y26264D01*
X46898Y26427D01*
X46771Y26525D01*
Y27897D01*
X47053D01*
Y29003D01*
D02*
G37*
G36*
X43800Y26658D02*
X43596Y26632D01*
X43405Y26553D01*
X43242Y26427D01*
X43116Y26264D01*
X43037Y26073D01*
X43011Y25869D01*
X43037Y25665D01*
X43116Y25474D01*
X43242Y25311D01*
X43405Y25185D01*
X43596Y25106D01*
X43800Y25080D01*
X44004Y25106D01*
X44195Y25185D01*
X44358Y25311D01*
X44484Y25474D01*
X44563Y25665D01*
X44589Y25869D01*
X44563Y26073D01*
X44484Y26264D01*
X44358Y26427D01*
X44195Y26553D01*
X44004Y26632D01*
X43800Y26658D01*
D02*
G37*
G36*
X63003Y31953D02*
X60597D01*
Y28047D01*
X61399D01*
Y25046D01*
X60997Y24645D01*
X60880Y24693D01*
Y25166D01*
X60054D01*
Y24340D01*
X60527D01*
X60575Y24223D01*
X60186Y23834D01*
X60069Y23882D01*
X59800Y23918D01*
X59531Y23882D01*
X59281Y23779D01*
X59066Y23614D01*
X58901Y23399D01*
X58798Y23149D01*
X58762Y22880D01*
X58798Y22611D01*
X58901Y22361D01*
X59066Y22146D01*
X59281Y21981D01*
X59531Y21878D01*
X59800Y21842D01*
X60069Y21878D01*
X60319Y21981D01*
X60534Y22146D01*
X60699Y22361D01*
X60802Y22611D01*
X60838Y22880D01*
X60802Y23149D01*
X60754Y23266D01*
X62084Y24596D01*
X62171Y24726D01*
X62201Y24880D01*
Y28047D01*
X63003D01*
Y31953D01*
D02*
G37*
G36*
X24803Y28403D02*
X23697D01*
Y27397D01*
X23854D01*
Y26013D01*
X23702Y25896D01*
X23576Y25733D01*
X23497Y25542D01*
X23471Y25338D01*
X23497Y25134D01*
X23576Y24943D01*
X23702Y24780D01*
X23865Y24654D01*
X24056Y24575D01*
X24260Y24549D01*
X24464Y24575D01*
X24655Y24654D01*
X24818Y24780D01*
X24944Y24943D01*
X25023Y25134D01*
X25049Y25338D01*
X25023Y25542D01*
X24944Y25733D01*
X24818Y25896D01*
X24656Y26020D01*
Y27397D01*
X24803D01*
Y28403D01*
D02*
G37*
G36*
X19703D02*
X18597D01*
Y27397D01*
X18764D01*
Y26005D01*
X18622Y25896D01*
X18496Y25733D01*
X18417Y25542D01*
X18391Y25338D01*
X18417Y25134D01*
X18496Y24943D01*
X18622Y24780D01*
X18785Y24654D01*
X18976Y24575D01*
X19180Y24549D01*
X19384Y24575D01*
X19575Y24654D01*
X19738Y24780D01*
X19864Y24943D01*
X19943Y25134D01*
X19969Y25338D01*
X19943Y25542D01*
X19864Y25733D01*
X19738Y25896D01*
X19575Y26022D01*
X19566Y26025D01*
Y27397D01*
X19703D01*
Y28403D01*
D02*
G37*
G36*
X14753Y28303D02*
X13447D01*
Y27197D01*
X13699D01*
Y26017D01*
X13542Y25896D01*
X13416Y25733D01*
X13337Y25542D01*
X13311Y25338D01*
X13337Y25134D01*
X13416Y24943D01*
X13542Y24780D01*
X13705Y24654D01*
X13896Y24575D01*
X14100Y24549D01*
X14304Y24575D01*
X14495Y24654D01*
X14658Y24780D01*
X14779Y24937D01*
X15961D01*
X16082Y24780D01*
X16245Y24654D01*
X16436Y24575D01*
X16640Y24549D01*
X16844Y24575D01*
X17035Y24654D01*
X17198Y24780D01*
X17324Y24943D01*
X17403Y25134D01*
X17429Y25338D01*
X17403Y25542D01*
X17324Y25733D01*
X17198Y25896D01*
X17035Y26022D01*
X16844Y26101D01*
X16640Y26127D01*
X16436Y26101D01*
X16245Y26022D01*
X16082Y25896D01*
X15961Y25739D01*
X14779D01*
X14658Y25896D01*
X14501Y26017D01*
Y27197D01*
X14753D01*
Y28303D01*
D02*
G37*
G36*
X22517Y25084D02*
X21974D01*
Y24541D01*
X22140Y24610D01*
X22314Y24744D01*
X22448Y24918D01*
X22517Y25084D01*
D02*
G37*
G36*
X21466D02*
X20923D01*
X20992Y24918D01*
X21126Y24744D01*
X21300Y24610D01*
X21466Y24541D01*
Y25084D01*
D02*
G37*
G36*
X59546Y25166D02*
X58721D01*
Y24340D01*
X59546D01*
Y25166D01*
D02*
G37*
G36*
X25200Y22145D02*
X24981Y22117D01*
X24777Y22032D01*
X24602Y21898D01*
X24468Y21723D01*
X24383Y21519D01*
X24355Y21300D01*
X24383Y21081D01*
X24468Y20877D01*
X24602Y20702D01*
X24777Y20568D01*
X24981Y20483D01*
X25200Y20455D01*
X25419Y20483D01*
X25623Y20568D01*
X25798Y20702D01*
X25932Y20877D01*
X26017Y21081D01*
X26045Y21300D01*
X26017Y21519D01*
X25932Y21723D01*
X25798Y21898D01*
X25623Y22032D01*
X25419Y22117D01*
X25200Y22145D01*
D02*
G37*
G36*
X22123Y18775D02*
X18257D01*
X18103Y18744D01*
X17973Y18657D01*
X17650Y18334D01*
X17327Y18657D01*
X17197Y18744D01*
X17043Y18775D01*
X15073D01*
X14920Y18744D01*
X14789Y18657D01*
X14296Y18164D01*
X14100Y18189D01*
X13896Y18163D01*
X13705Y18084D01*
X13542Y17958D01*
X13416Y17795D01*
X13337Y17604D01*
X13311Y17400D01*
X13337Y17196D01*
X13416Y17005D01*
X13542Y16842D01*
X13705Y16716D01*
X13896Y16637D01*
X14100Y16611D01*
X14304Y16637D01*
X14495Y16716D01*
X14658Y16842D01*
X14784Y17005D01*
X14863Y17196D01*
X14889Y17400D01*
X14864Y17596D01*
X15239Y17972D01*
X15932D01*
X15995Y17845D01*
X15956Y17795D01*
X15877Y17604D01*
X15851Y17400D01*
X15877Y17196D01*
X15956Y17005D01*
X16082Y16842D01*
X16199Y16752D01*
Y16466D01*
X16116Y16384D01*
X16029Y16254D01*
X15999Y16100D01*
Y15353D01*
X15753D01*
Y15403D01*
X14453D01*
Y15403D01*
X13147D01*
Y14297D01*
X14447D01*
Y14197D01*
X15753D01*
Y14247D01*
X17053D01*
X17097Y14138D01*
Y14047D01*
X18203D01*
Y15353D01*
X18051D01*
Y17600D01*
X18361Y17910D01*
X18418Y17901D01*
X18448Y17861D01*
X18483Y17762D01*
X18417Y17604D01*
X18391Y17400D01*
X18417Y17196D01*
X18496Y17005D01*
X18622Y16842D01*
X18764Y16733D01*
Y15353D01*
X18597D01*
Y14047D01*
X19538D01*
X19647Y14003D01*
Y12897D01*
X20953D01*
Y14003D01*
X20912D01*
X20803Y14047D01*
Y15353D01*
X19566D01*
Y16713D01*
X19575Y16716D01*
X19738Y16842D01*
X19864Y17005D01*
X19943Y17196D01*
X19969Y17400D01*
X19943Y17604D01*
X19864Y17795D01*
X19825Y17845D01*
X19888Y17972D01*
X21012D01*
X21075Y17845D01*
X21036Y17795D01*
X20957Y17604D01*
X20931Y17400D01*
X20957Y17196D01*
X21036Y17005D01*
X21162Y16842D01*
X21325Y16716D01*
X21334Y16713D01*
Y15353D01*
X21197D01*
Y14047D01*
X22303D01*
Y14047D01*
X23403D01*
Y15353D01*
X23251D01*
Y17646D01*
X23221Y17800D01*
X23134Y17930D01*
X22407Y18657D01*
X22277Y18744D01*
X22123Y18775D01*
D02*
G37*
G36*
X59800Y18838D02*
X59531Y18802D01*
X59281Y18699D01*
X59066Y18534D01*
X58901Y18319D01*
X58832Y18151D01*
X55810D01*
X55698Y18298D01*
X55523Y18432D01*
X55319Y18517D01*
X55100Y18545D01*
X54881Y18517D01*
X54677Y18432D01*
X54502Y18298D01*
X54368Y18123D01*
X54283Y17919D01*
X54255Y17700D01*
X54283Y17481D01*
X54368Y17277D01*
X54502Y17102D01*
X54677Y16968D01*
X54881Y16883D01*
X55100Y16855D01*
X55319Y16883D01*
X55523Y16968D01*
X55698Y17102D01*
X55832Y17277D01*
X55862Y17349D01*
X58874D01*
X58901Y17281D01*
X59066Y17066D01*
X59281Y16901D01*
X59531Y16798D01*
X59800Y16762D01*
X60069Y16798D01*
X60319Y16901D01*
X60534Y17066D01*
X60699Y17281D01*
X60802Y17531D01*
X60838Y17800D01*
X60802Y18069D01*
X60699Y18319D01*
X60534Y18534D01*
X60319Y18699D01*
X60069Y18802D01*
X59800Y18838D01*
D02*
G37*
G36*
X3154Y16904D02*
X2804D01*
Y16454D01*
X3154D01*
Y16904D01*
D02*
G37*
G36*
X2296D02*
X1946D01*
Y16454D01*
X2296D01*
Y16904D01*
D02*
G37*
G36*
X3154Y15946D02*
X2550D01*
X1946D01*
Y15496D01*
X1946D01*
Y15154D01*
X2550D01*
X3154D01*
Y15604D01*
X3154D01*
Y15946D01*
D02*
G37*
G36*
X4300Y35738D02*
X4031Y35702D01*
X3781Y35599D01*
X3566Y35434D01*
X3401Y35219D01*
X3298Y34969D01*
X3262Y34700D01*
X3298Y34431D01*
X3401Y34181D01*
X3566Y33966D01*
X3781Y33801D01*
X3899Y33753D01*
Y33200D01*
X3929Y33046D01*
X4016Y32916D01*
X14616Y22316D01*
X14746Y22229D01*
X14900Y22199D01*
X20270D01*
X24164Y18305D01*
X24118Y18171D01*
X24056Y18163D01*
X23865Y18084D01*
X23702Y17958D01*
X23576Y17795D01*
X23497Y17604D01*
X23471Y17400D01*
X23497Y17196D01*
X23576Y17005D01*
X23702Y16842D01*
X23854Y16725D01*
Y15353D01*
X23797D01*
Y14047D01*
X24903D01*
Y15353D01*
X24656D01*
Y16718D01*
X24818Y16842D01*
X24944Y17005D01*
X25023Y17196D01*
X25029Y17248D01*
X25144Y17289D01*
X25238Y17212D01*
Y16461D01*
X25269Y16307D01*
X25356Y16177D01*
X26916Y14616D01*
X27046Y14529D01*
X27200Y14499D01*
X27347D01*
Y14297D01*
X28647D01*
Y14297D01*
X29953D01*
Y15403D01*
X29721D01*
Y16711D01*
X29735Y16716D01*
X29898Y16842D01*
X30024Y17005D01*
X30103Y17196D01*
X30129Y17400D01*
X30103Y17604D01*
X30024Y17795D01*
X29898Y17958D01*
X29735Y18084D01*
X29544Y18163D01*
X29340Y18189D01*
X29136Y18163D01*
X28945Y18084D01*
X28782Y17958D01*
X28661Y17801D01*
X27479D01*
X27358Y17958D01*
X27195Y18084D01*
X27004Y18163D01*
X26800Y18189D01*
X26596Y18163D01*
X26405Y18084D01*
X26242Y17958D01*
X26116Y17795D01*
X26072Y17687D01*
X25928Y17673D01*
X25923Y17681D01*
X20720Y22884D01*
X20590Y22971D01*
X20436Y23001D01*
X15066D01*
X4701Y33366D01*
Y33753D01*
X4819Y33801D01*
X5034Y33966D01*
X5199Y34181D01*
X5302Y34431D01*
X5338Y34700D01*
X5302Y34969D01*
X5199Y35219D01*
X5034Y35434D01*
X4819Y35599D01*
X4569Y35702D01*
X4300Y35738D01*
D02*
G37*
G36*
X4603Y15553D02*
X3497D01*
Y14247D01*
X4603D01*
Y14297D01*
X5803D01*
Y15503D01*
X4603D01*
Y15553D01*
D02*
G37*
G36*
X60880Y14819D02*
X60054D01*
Y13994D01*
X60880D01*
Y14819D01*
D02*
G37*
G36*
X59546D02*
X58721D01*
Y13994D01*
X59546D01*
Y14819D01*
D02*
G37*
G36*
X15753Y14003D02*
X14447D01*
Y13903D01*
X13147D01*
X13103Y13953D01*
Y13953D01*
X11997D01*
Y12647D01*
X13103D01*
Y12688D01*
X13147Y12797D01*
X14447D01*
Y12797D01*
X15747D01*
Y12747D01*
X15999D01*
Y12353D01*
X14797D01*
Y10901D01*
X13600D01*
X13502Y10882D01*
X13419Y10917D01*
X13200Y10945D01*
X12981Y10917D01*
X12777Y10832D01*
X12602Y10698D01*
X12468Y10523D01*
X12383Y10319D01*
X12355Y10100D01*
X12383Y9881D01*
X12468Y9677D01*
X12602Y9502D01*
X12777Y9368D01*
X12981Y9283D01*
X13200Y9255D01*
X13419Y9283D01*
X13623Y9368D01*
X13798Y9502D01*
X13932Y9677D01*
X14017Y9881D01*
X14045Y10099D01*
X14797D01*
Y8447D01*
X17203D01*
Y12353D01*
X16801D01*
Y12747D01*
X17053D01*
Y13853D01*
X15753D01*
Y14003D01*
D02*
G37*
G36*
X3154Y14646D02*
X2550D01*
X1946D01*
Y14196D01*
X2199D01*
Y13904D01*
X1946D01*
Y13454D01*
X2600D01*
X3254D01*
Y13904D01*
X3001D01*
Y14196D01*
X3154D01*
Y14646D01*
D02*
G37*
G36*
X28653Y13903D02*
X27347D01*
Y12797D01*
X28647D01*
Y12797D01*
X29953D01*
Y13903D01*
X28653D01*
Y13903D01*
D02*
G37*
G36*
X60880Y13486D02*
X60054D01*
Y12660D01*
X60880D01*
Y13486D01*
D02*
G37*
G36*
X21004Y12554D02*
X20554D01*
Y12204D01*
X21004D01*
Y12554D01*
D02*
G37*
G36*
X20046D02*
X19596D01*
Y12204D01*
X20046D01*
Y12554D01*
D02*
G37*
G36*
X21004Y11696D02*
X20554D01*
Y11346D01*
X21004D01*
Y11696D01*
D02*
G37*
G36*
X20046D02*
X19596D01*
Y11346D01*
X20046D01*
Y11696D01*
D02*
G37*
G36*
X3254Y12946D02*
X2600D01*
X1946D01*
Y12496D01*
X2199D01*
Y10131D01*
X2182Y10124D01*
X2009Y9991D01*
X1876Y9818D01*
X1808Y9654D01*
X2600D01*
X3392D01*
X3324Y9818D01*
X3191Y9991D01*
X3018Y10124D01*
X3001Y10131D01*
Y12496D01*
X3254D01*
Y12946D01*
D02*
G37*
G36*
X22404Y10554D02*
X20654D01*
Y9554D01*
X22404D01*
Y10554D01*
D02*
G37*
G36*
X20146D02*
X18396D01*
Y9554D01*
X20146D01*
Y10554D01*
D02*
G37*
G36*
X5803Y13903D02*
X4597D01*
Y13853D01*
X3397D01*
Y12547D01*
X3599D01*
Y11200D01*
X3629Y11046D01*
X3716Y10916D01*
X4199Y10434D01*
Y10178D01*
X3822D01*
Y8622D01*
X5378D01*
Y10178D01*
X5001D01*
Y10600D01*
X4971Y10754D01*
X4884Y10884D01*
X4401Y11366D01*
Y12547D01*
X4603D01*
Y12697D01*
X5803D01*
Y13903D01*
D02*
G37*
G36*
X22404Y9046D02*
X20654D01*
Y8046D01*
X22404D01*
Y9046D01*
D02*
G37*
G36*
X20146D02*
X18396D01*
Y8046D01*
X20146D01*
Y9046D01*
D02*
G37*
G36*
X59800Y9698D02*
X59531Y9662D01*
X59281Y9559D01*
X59066Y9394D01*
X58901Y9179D01*
X58798Y8929D01*
X58762Y8660D01*
X58798Y8391D01*
X58901Y8141D01*
X59066Y7926D01*
X59281Y7761D01*
X59531Y7658D01*
X59800Y7622D01*
X60069Y7658D01*
X60319Y7761D01*
X60534Y7926D01*
X60699Y8141D01*
X60802Y8391D01*
X60838Y8660D01*
X60802Y8929D01*
X60699Y9179D01*
X60534Y9394D01*
X60319Y9559D01*
X60069Y9662D01*
X59800Y9698D01*
D02*
G37*
G36*
X15878Y5828D02*
X14322D01*
Y4272D01*
X15878D01*
Y5828D01*
D02*
G37*
G36*
X3392Y9146D02*
X2600D01*
X1808D01*
X1876Y8982D01*
X2009Y8809D01*
X2182Y8676D01*
X2199Y8669D01*
Y8000D01*
X2229Y7846D01*
X2316Y7716D01*
X2859Y7174D01*
Y4329D01*
X2703Y4264D01*
X2473Y4087D01*
X2296Y3857D01*
X2184Y3588D01*
X2180Y3554D01*
X3260D01*
Y3300D01*
D01*
Y3554D01*
X4340D01*
X4336Y3588D01*
X4224Y3857D01*
X4047Y4087D01*
X3817Y4264D01*
X3661Y4329D01*
Y7340D01*
X3631Y7494D01*
X3544Y7624D01*
X3001Y8166D01*
Y8669D01*
X3018Y8676D01*
X3191Y8809D01*
X3324Y8982D01*
X3392Y9146D01*
D02*
G37*
G36*
X22100Y6945D02*
X21881Y6917D01*
X21677Y6832D01*
X21502Y6698D01*
X21368Y6523D01*
X21283Y6319D01*
X21255Y6100D01*
X21283Y5881D01*
X21368Y5677D01*
X21502Y5502D01*
X21677Y5368D01*
X21709Y5355D01*
Y4270D01*
X21589Y4220D01*
X21369Y4051D01*
X21200Y3831D01*
X21146Y3701D01*
X18500D01*
X18346Y3671D01*
X18216Y3584D01*
X17584Y2951D01*
X15773D01*
X15655Y3105D01*
X15492Y3230D01*
X15303Y3308D01*
X15100Y3335D01*
X14897Y3308D01*
X14708Y3230D01*
X14545Y3105D01*
X14427Y2951D01*
X10916D01*
X10284Y3584D01*
X10154Y3671D01*
X10000Y3701D01*
X9393D01*
Y4353D01*
X8701D01*
Y5247D01*
X8903D01*
Y6553D01*
X7697D01*
Y5247D01*
X7899D01*
Y4353D01*
X7287D01*
Y2247D01*
X9393D01*
Y2899D01*
X9834D01*
X10466Y2266D01*
X10596Y2179D01*
X10750Y2149D01*
X14427D01*
X14545Y1995D01*
X14708Y1870D01*
X14897Y1792D01*
X15100Y1765D01*
X15303Y1792D01*
X15492Y1870D01*
X15655Y1995D01*
X15773Y2149D01*
X17750D01*
X17904Y2179D01*
X18034Y2266D01*
X18666Y2899D01*
X21146D01*
X21200Y2769D01*
X21369Y2549D01*
X21589Y2380D01*
X21845Y2274D01*
X22120Y2238D01*
X22395Y2274D01*
X22651Y2380D01*
X22871Y2549D01*
X23040Y2769D01*
X23146Y3025D01*
X23182Y3300D01*
X23146Y3575D01*
X23040Y3831D01*
X22871Y4051D01*
X22651Y4220D01*
X22511Y4278D01*
Y5363D01*
X22523Y5368D01*
X22698Y5502D01*
X22832Y5677D01*
X22917Y5881D01*
X22945Y6100D01*
X22917Y6319D01*
X22832Y6523D01*
X22698Y6698D01*
X22523Y6832D01*
X22319Y6917D01*
X22100Y6945D01*
D02*
G37*
G36*
X27503Y10003D02*
X26097D01*
Y7797D01*
X26399D01*
Y6400D01*
X26429Y6246D01*
X26516Y6116D01*
X26799Y5834D01*
Y4353D01*
X26147D01*
Y2247D01*
X28253D01*
Y4353D01*
X27601D01*
Y6000D01*
X27571Y6154D01*
X27484Y6284D01*
X27201Y6566D01*
Y7797D01*
X27503D01*
Y10003D01*
D02*
G37*
G36*
X24660Y4362D02*
X24385Y4326D01*
X24129Y4220D01*
X23909Y4051D01*
X23740Y3831D01*
X23634Y3575D01*
X23598Y3300D01*
X23634Y3025D01*
X23740Y2769D01*
X23909Y2549D01*
X24129Y2380D01*
X24385Y2274D01*
X24660Y2238D01*
X24935Y2274D01*
X25191Y2380D01*
X25411Y2549D01*
X25580Y2769D01*
X25686Y3025D01*
X25722Y3300D01*
X25686Y3575D01*
X25580Y3831D01*
X25411Y4051D01*
X25191Y4220D01*
X24935Y4326D01*
X24660Y4362D01*
D02*
G37*
G36*
X7503Y6553D02*
X6297D01*
Y5814D01*
X5516Y5034D01*
X5429Y4904D01*
X5399Y4750D01*
Y4274D01*
X5269Y4220D01*
X5049Y4051D01*
X4880Y3831D01*
X4774Y3575D01*
X4738Y3300D01*
X4774Y3025D01*
X4880Y2769D01*
X5049Y2549D01*
X5269Y2380D01*
X5525Y2274D01*
X5800Y2238D01*
X6075Y2274D01*
X6331Y2380D01*
X6551Y2549D01*
X6720Y2769D01*
X6826Y3025D01*
X6862Y3300D01*
X6826Y3575D01*
X6720Y3831D01*
X6551Y4051D01*
X6331Y4220D01*
X6201Y4274D01*
Y4584D01*
X6864Y5247D01*
X7503D01*
Y6553D01*
D02*
G37*
G36*
X4340Y3046D02*
X3514D01*
Y2220D01*
X3548Y2224D01*
X3817Y2336D01*
X4047Y2513D01*
X4224Y2743D01*
X4336Y3012D01*
X4340Y3046D01*
D02*
G37*
G36*
X3006D02*
X2180D01*
X2184Y3012D01*
X2296Y2743D01*
X2473Y2513D01*
X2703Y2336D01*
X2972Y2224D01*
X3006Y2220D01*
Y3046D01*
D02*
G37*
%LPD*%
G36*
X40615Y18376D02*
X40576Y18326D01*
X40497Y18135D01*
X40471Y17931D01*
X40497Y17727D01*
X40576Y17536D01*
X40702Y17373D01*
X40865Y17247D01*
X40879Y17242D01*
Y16003D01*
X39347D01*
Y16003D01*
X39303Y15953D01*
X39136D01*
Y17264D01*
X39278Y17373D01*
X39404Y17536D01*
X39483Y17727D01*
X39509Y17931D01*
X39483Y18135D01*
X39404Y18326D01*
X39365Y18376D01*
X39428Y18503D01*
X40552D01*
X40615Y18376D01*
D02*
G37*
G36*
X28782Y16842D02*
X28919Y16737D01*
Y15403D01*
X28653D01*
Y15403D01*
X27347D01*
X27347Y15403D01*
Y15403D01*
X27230Y15438D01*
X26041Y16627D01*
Y16895D01*
X26168Y16938D01*
X26242Y16842D01*
X26405Y16716D01*
X26596Y16637D01*
X26800Y16611D01*
X27004Y16637D01*
X27195Y16716D01*
X27358Y16842D01*
X27479Y16999D01*
X28661D01*
X28782Y16842D01*
D02*
G37*
%LPC*%
G36*
X48053Y7403D02*
X46347D01*
Y6701D01*
X45303D01*
Y6953D01*
X44197D01*
Y5647D01*
X45303D01*
Y5899D01*
X46347D01*
Y5197D01*
X48053D01*
Y7403D01*
D02*
G37*
G36*
X60979Y5720D02*
X60154D01*
Y4894D01*
X60979D01*
Y5720D01*
D02*
G37*
G36*
X59646D02*
X58820D01*
Y4894D01*
X59646D01*
Y5720D01*
D02*
G37*
G36*
X41604Y4354D02*
X41154D01*
Y4004D01*
X41604D01*
Y4354D01*
D02*
G37*
G36*
X40646D02*
X40196D01*
Y4004D01*
X40646D01*
Y4354D01*
D02*
G37*
G36*
X60979Y4386D02*
X60154D01*
Y3560D01*
X60979D01*
Y4386D01*
D02*
G37*
G36*
X59646D02*
X58820D01*
Y3560D01*
X59646D01*
Y4386D01*
D02*
G37*
G36*
X41604Y3496D02*
X41154D01*
Y3146D01*
X41604D01*
Y3496D01*
D02*
G37*
G36*
X40646D02*
X40196D01*
Y3146D01*
X40646D01*
Y3496D01*
D02*
G37*
G36*
X50953Y7403D02*
X49247D01*
Y5197D01*
X49740D01*
Y4650D01*
X49767Y4512D01*
X49845Y4395D01*
X50120Y4121D01*
X50072Y4003D01*
X49447D01*
Y2897D01*
X50747D01*
Y2797D01*
X51531D01*
X51591Y2722D01*
X51538Y2603D01*
X50747D01*
Y2503D01*
X49447D01*
X49447Y2503D01*
Y2503D01*
X49346Y2563D01*
X49255Y2655D01*
X49138Y2733D01*
X49000Y2760D01*
X48803D01*
Y2803D01*
X47397D01*
Y2660D01*
X46894D01*
X46803Y2747D01*
Y3753D01*
X45397D01*
X45397Y3753D01*
X45303D01*
Y3753D01*
X45270Y3753D01*
X43897D01*
Y2747D01*
X44794D01*
X45495Y2045D01*
X45593Y1980D01*
X45587Y1897D01*
X45572Y1853D01*
X45397D01*
Y1853D01*
X45303D01*
Y1853D01*
X43897D01*
Y1610D01*
X43150D01*
X43012Y1583D01*
X42895Y1505D01*
X42851Y1460D01*
X41403D01*
Y1697D01*
X41553D01*
Y1865D01*
X41897D01*
Y1797D01*
X43303D01*
Y2803D01*
X41897D01*
Y2585D01*
X41553D01*
Y2803D01*
X40247D01*
Y1697D01*
X40297D01*
Y447D01*
X41403D01*
Y740D01*
X43000D01*
X43138Y767D01*
X43255Y845D01*
X43299Y890D01*
X43897D01*
Y847D01*
X45303D01*
Y847D01*
X45397D01*
Y847D01*
X46803D01*
Y1813D01*
X46803Y1853D01*
X46894Y1940D01*
X47397D01*
Y1797D01*
X48803D01*
Y1908D01*
X48930Y1961D01*
X49145Y1745D01*
X49262Y1667D01*
X49400Y1640D01*
X49447D01*
Y1397D01*
X52053D01*
Y2122D01*
X52171Y2170D01*
X52497Y1844D01*
Y1047D01*
X53603D01*
Y2353D01*
X53006D01*
X52053Y3306D01*
Y4003D01*
X51256D01*
X50460Y4799D01*
Y5197D01*
X50953D01*
Y7403D01*
D02*
G37*
G36*
X59900Y3138D02*
X59631Y3102D01*
X59381Y2999D01*
X59166Y2834D01*
X59001Y2619D01*
X58936Y2460D01*
X58100D01*
X57962Y2433D01*
X57845Y2355D01*
X57551Y2060D01*
X55103D01*
Y2353D01*
X53997D01*
Y1047D01*
X55103D01*
Y1340D01*
X57700D01*
X57838Y1367D01*
X57955Y1445D01*
X58249Y1740D01*
X58936D01*
X59001Y1581D01*
X59166Y1366D01*
X59381Y1201D01*
X59631Y1098D01*
X59900Y1062D01*
X60169Y1098D01*
X60419Y1201D01*
X60634Y1366D01*
X60799Y1581D01*
X60902Y1831D01*
X60938Y2100D01*
X60902Y2369D01*
X60799Y2619D01*
X60634Y2834D01*
X60419Y2999D01*
X60169Y3102D01*
X59900Y3138D01*
D02*
G37*
%LPD*%
D16*
X40925Y2225D02*
X42575D01*
X40900Y2250D02*
X40925Y2225D01*
X42575D02*
X42600Y2200D01*
X44600Y1250D02*
X46100D01*
X46100Y1350D01*
X43150Y1250D02*
X44600D01*
X49400Y2000D02*
X50050D01*
X49000Y2400D02*
X49400Y2000D01*
X48200Y2400D02*
X49000D01*
X50050Y2000D02*
X50100Y1950D01*
X40850Y1100D02*
X43000D01*
X43150Y1250D01*
X44800Y3250D02*
X45750Y2300D01*
X44600Y3150D02*
X44800D01*
X45750Y2300D02*
X48100D01*
X48200Y2400D01*
X50100Y1950D02*
X50125Y1975D01*
X51375D01*
X51400Y2000D01*
X50125Y3425D02*
X51325D01*
X51350Y3400D01*
X50100Y4650D02*
X51325Y3425D01*
X51350Y3400D02*
X51400D01*
X50100Y4650D02*
Y6300D01*
X50100Y3450D02*
X50125Y3425D01*
X51400Y3400D02*
X51450D01*
X51660Y3191D01*
Y3190D02*
Y3191D01*
Y3190D02*
X53050Y1800D01*
Y1700D02*
Y1800D01*
X54550Y1700D02*
X57700D01*
X58100Y2100D01*
X59900D01*
D34*
X4600Y9400D02*
D03*
D35*
X2600D02*
D03*
X15100Y2550D02*
D03*
D38*
Y5050D02*
D03*
D39*
X33550Y4600D02*
D03*
D40*
X37050D02*
D03*
D44*
X20300Y13450D02*
D03*
Y11950D02*
D03*
X32600Y35700D02*
D03*
X41200Y39500D02*
D03*
X28000Y13350D02*
D03*
Y14850D02*
D03*
X16400Y14800D02*
D03*
Y13300D02*
D03*
X13800Y13350D02*
D03*
Y14850D02*
D03*
X22400Y46250D02*
D03*
Y44750D02*
D03*
X43600Y42550D02*
D03*
Y44050D02*
D03*
X29300Y14850D02*
D03*
Y13350D02*
D03*
X21900Y27950D02*
D03*
Y29450D02*
D03*
X47100Y15350D02*
D03*
Y13850D02*
D03*
X48400Y13850D02*
D03*
Y15350D02*
D03*
X49100Y29850D02*
D03*
Y31350D02*
D03*
X50500Y31350D02*
D03*
Y29850D02*
D03*
X46400Y28450D02*
D03*
Y29950D02*
D03*
X45100Y28450D02*
D03*
Y29950D02*
D03*
X45800Y15350D02*
D03*
Y13850D02*
D03*
X40000Y15450D02*
D03*
Y13950D02*
D03*
X41300Y15450D02*
D03*
Y13950D02*
D03*
X41300Y31250D02*
D03*
Y29750D02*
D03*
X50100Y3450D02*
D03*
Y1950D02*
D03*
X40900Y2250D02*
D03*
Y3750D02*
D03*
X29300Y27800D02*
D03*
Y29300D02*
D03*
X27000Y29350D02*
D03*
Y27850D02*
D03*
X14100Y27750D02*
D03*
Y29250D02*
D03*
X17500Y47150D02*
D03*
Y45650D02*
D03*
D45*
X61800Y30000D02*
D03*
X43300Y9500D02*
D03*
X40000D02*
D03*
X16000Y10400D02*
D03*
X2100Y50800D02*
D03*
D46*
X24900Y42100D02*
D03*
Y40700D02*
D03*
X15100Y13400D02*
D03*
Y14800D02*
D03*
X29800Y7200D02*
D03*
Y5800D02*
D03*
X51400Y2000D02*
D03*
Y3400D02*
D03*
D47*
X30200Y35050D02*
D03*
Y36350D02*
D03*
X43600Y40150D02*
D03*
Y38850D02*
D03*
D48*
X45900Y40100D02*
D03*
X38050Y44600D02*
D03*
X39550D02*
D03*
X39550Y46000D02*
D03*
X41050D02*
D03*
X38750Y15300D02*
D03*
X37250D02*
D03*
X22850Y14700D02*
D03*
X24350D02*
D03*
X21750Y14700D02*
D03*
X20250D02*
D03*
X12550Y13300D02*
D03*
X11050D02*
D03*
X23550Y44700D02*
D03*
X25050D02*
D03*
X19800Y30300D02*
D03*
X2850Y40100D02*
D03*
X4350D02*
D03*
X24900Y30300D02*
D03*
X49950Y15300D02*
D03*
X51450D02*
D03*
X50450Y28600D02*
D03*
X48950D02*
D03*
X37250Y14000D02*
D03*
X38750D02*
D03*
X34650Y28600D02*
D03*
X36150D02*
D03*
X19150Y14700D02*
D03*
X17650D02*
D03*
X4050Y14900D02*
D03*
X2550D02*
D03*
X40850Y1100D02*
D03*
X39350D02*
D03*
X43250Y6300D02*
D03*
X44750D02*
D03*
X53050Y1700D02*
D03*
X54550D02*
D03*
X2550Y16200D02*
D03*
X1050D02*
D03*
X15950Y47200D02*
D03*
X14450D02*
D03*
D49*
X45250Y42500D02*
D03*
X46550D02*
D03*
X20450Y27900D02*
D03*
X19150D02*
D03*
X25550D02*
D03*
X24250D02*
D03*
D50*
X20400Y9300D02*
D03*
X17300Y37800D02*
D03*
X20000Y42100D02*
D03*
X29600Y50800D02*
D03*
X23500Y50700D02*
D03*
X44300Y51400D02*
D03*
X14450Y44725D02*
D03*
X38600Y51700D02*
D03*
X37600Y31200D02*
D03*
D51*
X40900Y47400D02*
D03*
X39500D02*
D03*
X35400Y50300D02*
D03*
X34000D02*
D03*
X38000Y39500D02*
D03*
X39400D02*
D03*
X43200Y15300D02*
D03*
X44600D02*
D03*
X42700Y28600D02*
D03*
X41300D02*
D03*
X2600Y13200D02*
D03*
X4000D02*
D03*
X8300Y5900D02*
D03*
X6900D02*
D03*
D52*
X5200Y13300D02*
D03*
Y14900D02*
D03*
D53*
X26800Y8900D02*
D03*
X29800D02*
D03*
D54*
X50100Y6300D02*
D03*
X47200D02*
D03*
D55*
X48100Y2300D02*
D03*
X46100Y3250D02*
D03*
Y1350D02*
D03*
X42600Y2300D02*
D03*
X44600Y1350D02*
D03*
Y3250D02*
D03*
X21000Y46250D02*
D03*
Y48150D02*
D03*
X19000Y47200D02*
D03*
D56*
X28600Y36700D02*
X30200Y35100D01*
X27400Y39500D02*
X28800D01*
X30200Y36350D02*
Y38100D01*
X28800Y39500D02*
X30200Y38100D01*
X39100Y30500D02*
X39900Y29700D01*
Y25853D02*
Y29700D01*
X37650Y31250D02*
X41300D01*
X42194Y49894D02*
X43300Y51000D01*
X40900Y47450D02*
X42194Y48743D01*
Y49894D01*
Y48707D02*
Y48743D01*
Y48707D02*
X42200Y48700D01*
X40900Y47400D02*
Y47450D01*
X42200Y48800D02*
X42400Y49000D01*
X44200Y38200D02*
X47400D01*
X43600Y38800D02*
X44200Y38200D01*
X43600Y38800D02*
Y38850D01*
X38000Y44700D02*
Y51100D01*
X20436Y22600D02*
X25639Y17397D01*
X14900Y22600D02*
X20436D01*
X4300Y33200D02*
X14900Y22600D01*
X47400Y38200D02*
Y41600D01*
X46500Y42500D02*
X47400Y41600D01*
X30200Y35050D02*
Y35100D01*
X46500Y42500D02*
X46550D01*
X49100Y31350D02*
Y32300D01*
X48600Y32800D02*
X49100Y32300D01*
X13600Y10500D02*
X15900D01*
X13200Y10100D02*
X13600Y10500D01*
X15900D02*
X16000Y10400D01*
X24900Y31900D02*
X25000Y32000D01*
X24900Y30300D02*
Y31900D01*
X33550Y4600D02*
X37050Y1100D01*
X39350D01*
X32800Y50300D02*
X34000D01*
X32600Y50500D02*
X32800Y50300D01*
X1500Y40100D02*
X2850D01*
X1300Y40300D02*
X1500Y40100D01*
X47200Y6300D02*
X47200Y6300D01*
X44750Y6300D02*
X47200D01*
X21000Y48150D02*
Y49059D01*
X20600Y49459D02*
X21000Y49059D01*
X20600Y49459D02*
Y49700D01*
X21000Y48150D02*
X21000Y48150D01*
X39525Y46000D02*
Y47375D01*
X16400Y14800D02*
Y16100D01*
X16600Y16300D01*
X13825Y14825D02*
X16375D01*
X16600Y16300D02*
Y17360D01*
X38000Y51100D02*
X38600Y51700D01*
X30050Y32300D02*
X33000D01*
X27100Y29350D02*
X30050Y32300D01*
X27000Y29350D02*
X27100D01*
X35400Y31200D02*
X37600D01*
X34600Y30400D02*
X35400Y31200D01*
X34600Y30300D02*
Y30400D01*
X43644Y33456D02*
X46400Y30700D01*
X18406Y33456D02*
X43644D01*
X14200Y29250D02*
X18406Y33456D01*
X46400Y29900D02*
Y30700D01*
X29737Y34306D02*
X31106D01*
X29443Y34600D02*
X29737Y34306D01*
X28700Y34600D02*
X29443D01*
X31106Y34306D02*
X32500Y35700D01*
X4300Y33200D02*
Y34700D01*
X14100Y25338D02*
X16640D01*
X4200Y25300D02*
Y28200D01*
Y25300D02*
X11050Y18450D01*
Y13300D02*
Y18450D01*
X1050Y27590D02*
X4200Y30740D01*
X1050Y16200D02*
Y27590D01*
X11000Y47200D02*
X14450D01*
X14450Y47200D01*
X9540Y45740D02*
X11000Y47200D01*
X4300Y45740D02*
X9540D01*
X3665Y43495D02*
X4300Y42860D01*
X2100Y45876D02*
Y50800D01*
Y45876D02*
X3665Y44311D01*
Y43495D02*
Y44311D01*
X23400Y37800D02*
X24900Y39300D01*
X17300Y37800D02*
X23400D01*
X61800Y24880D02*
Y30000D01*
X59800Y22880D02*
X61800Y24880D01*
X38050Y44600D02*
Y44700D01*
X35400Y49300D02*
Y50300D01*
Y47180D02*
Y49300D01*
X35371Y49271D02*
X35400Y49300D01*
X31879Y49271D02*
X35371D01*
X30350Y50800D02*
X31879Y49271D01*
X29600Y50800D02*
X30350D01*
X14450Y44725D02*
Y47200D01*
X23500Y50700D02*
X23550Y50650D01*
Y44700D02*
Y50650D01*
X21000Y46250D02*
X21000Y46250D01*
X22400D01*
X23525Y44725D02*
X23550Y44700D01*
X22425Y44725D02*
X23525D01*
X22400Y44750D02*
X22425Y44725D01*
X27430Y44670D02*
X27460Y44640D01*
X25080Y44670D02*
X27430D01*
X25050Y44700D02*
X25080Y44670D01*
X15950Y47200D02*
X19000D01*
X17550Y45700D02*
X18400D01*
X20000Y44100D01*
X17500Y45650D02*
X17550Y45700D01*
X20000Y42100D02*
Y44100D01*
Y42100D02*
X23200D01*
X24900Y39300D02*
X24900Y39300D01*
Y40700D01*
Y42100D02*
X27460D01*
X23200D02*
X24900D01*
X22100Y6100D02*
X22110Y6090D01*
Y3310D02*
Y6090D01*
Y3310D02*
X22120Y3300D01*
X32500Y35700D02*
X32600D01*
X21900Y29650D02*
Y32000D01*
Y29650D02*
X22000Y29550D01*
X21900Y29450D02*
X22000Y29550D01*
X45100Y29900D02*
Y30700D01*
X43200Y32600D02*
X45100Y30700D01*
X35000Y32600D02*
X43200D01*
X31700Y29300D02*
X35000Y32600D01*
X41050Y46000D02*
X45800D01*
X41050Y46000D02*
X41050Y46000D01*
X45800D02*
X50500Y41300D01*
Y31350D02*
Y41300D01*
X42000Y44000D02*
X42025Y44025D01*
X43575D01*
X36149Y17900D02*
X36180Y17931D01*
X33200Y17900D02*
X36149D01*
X34650Y25050D02*
X39600Y20100D01*
X34650Y25050D02*
Y28600D01*
X36165Y25884D02*
X36180Y25869D01*
X36165Y25884D02*
Y28585D01*
X45100Y28450D02*
X46400D01*
X42700Y30000D02*
X42700Y30000D01*
X42700Y28500D02*
Y30000D01*
X35400Y44640D02*
X35420Y44620D01*
X38030D01*
X38050Y44600D01*
X39525Y44625D02*
Y46000D01*
Y44625D02*
X39550Y44600D01*
X39500Y47400D02*
X39525Y47375D01*
X32600Y35700D02*
Y44380D01*
X35400Y47180D01*
X35450Y42050D02*
X38100D01*
X41850D01*
X35400Y42100D02*
X35450Y42050D01*
X41850D02*
X42300Y42500D01*
X45250D01*
X35400Y39560D02*
X35460Y39500D01*
X38000D01*
X39400D02*
X41200D01*
X43600Y40150D02*
X43625Y40125D01*
X45875D01*
X45900Y40100D01*
X27230Y47310D02*
X27235Y47305D01*
X14100Y29250D02*
X14200D01*
X29300Y29300D02*
X31700D01*
X39900Y25853D02*
X45413Y20340D01*
X46370Y25899D02*
Y28370D01*
X46340Y25869D02*
X46370Y25899D01*
X32350Y5800D02*
X33550Y4600D01*
X29800Y5800D02*
X32350D01*
X29800Y7200D02*
X34450D01*
X29800Y7200D02*
X29800Y7200D01*
X34450D02*
X37050Y4600D01*
X29800Y8900D02*
X29800Y8900D01*
Y7200D02*
Y8900D01*
X43250Y9450D02*
X43300Y9500D01*
X43250Y6300D02*
Y9450D01*
X4350Y37290D02*
Y40100D01*
Y37290D02*
X4400Y37240D01*
X27200Y14900D02*
X27950D01*
X28000Y14850D01*
X25639Y16461D02*
X27200Y14900D01*
X25639Y16461D02*
Y17397D01*
X24255Y25343D02*
Y27895D01*
X29300Y13350D02*
X29300Y13350D01*
X28000Y13350D02*
X29300D01*
X2550Y16200D02*
X2550Y16200D01*
Y14900D02*
Y16200D01*
Y14900D02*
X2550Y14900D01*
X12550Y13300D02*
X12575Y13325D01*
X13775D01*
X13800Y13350D01*
X16350Y13350D02*
X16400Y13300D01*
Y10800D02*
Y13300D01*
X16000Y10400D02*
X16400Y10800D01*
X20300Y11950D02*
X20325Y11925D01*
X15150Y13350D02*
X16350D01*
X15100Y13400D02*
X15150Y13350D01*
X20250Y14700D02*
X20275Y14675D01*
Y13475D02*
Y14675D01*
Y13475D02*
X20300Y13450D01*
X17650Y17766D02*
X18257Y18373D01*
X22123D01*
X22850Y17646D01*
Y14700D02*
Y17646D01*
X19150Y14700D02*
X20250D01*
X21735Y14715D02*
X21750Y14700D01*
X21735Y14715D02*
Y17385D01*
X21720Y17400D02*
X21735Y17385D01*
X16375Y14825D02*
X16400Y14800D01*
X13800Y14850D02*
X13825Y14825D01*
X16600Y17360D02*
X16640Y17400D01*
X17650Y14600D02*
Y14700D01*
X14100Y17400D02*
X15073Y18373D01*
X17043D01*
X17650Y17766D01*
Y14700D02*
Y17766D01*
X19165Y17385D02*
X19180Y17400D01*
X19165Y14715D02*
Y17385D01*
X19150Y14700D02*
X19165Y14715D01*
X22850Y14600D02*
Y14700D01*
X24255Y17395D02*
X24260Y17400D01*
X24255Y14605D02*
Y17395D01*
X24250Y14600D02*
X24255Y14605D01*
X29300Y14850D02*
X29320Y14870D01*
Y17380D01*
X29340Y17400D01*
X26800D02*
X29340D01*
X14100Y27750D02*
X14100Y27750D01*
Y25338D02*
Y27750D01*
X19800Y32000D02*
X19800Y32000D01*
Y30300D02*
Y32000D01*
X19150Y27900D02*
X19165Y27885D01*
Y25353D02*
Y27885D01*
Y25353D02*
X19180Y25338D01*
X20450Y27900D02*
X20475Y27925D01*
X21875D01*
X21900Y27950D01*
X26800Y25338D02*
X29340D01*
X29300Y25378D02*
Y27800D01*
Y25378D02*
X29340Y25338D01*
X24250Y27900D02*
X24255Y27895D01*
Y25343D02*
X24260Y25338D01*
X26950Y27900D02*
X27000Y27850D01*
X25550Y27900D02*
X26950D01*
X37600Y31200D02*
X37650Y31250D01*
X40000Y9500D02*
Y12500D01*
X45413Y20340D02*
X59800D01*
X44300Y14100D02*
X44450Y14250D01*
Y15150D01*
X44600Y15300D01*
X45800Y12500D02*
X45800Y12500D01*
X45800Y12500D02*
Y13850D01*
X40000Y12500D02*
Y13950D01*
X55100Y17700D02*
X55150Y17750D01*
X59750D01*
X59800Y17800D01*
X48400Y13850D02*
X57150D01*
X59800Y11200D01*
X47100Y13850D02*
X48400D01*
X48400Y13850D01*
X37904Y18904D02*
X47096D01*
X47800Y18200D01*
Y17550D02*
Y18200D01*
Y17550D02*
X49950Y15400D01*
Y15300D02*
Y15400D01*
X39600Y20100D02*
X42500D01*
X42400Y14950D02*
Y16900D01*
X41400Y13950D02*
X42400Y14950D01*
X41300Y13950D02*
X41400D01*
X36180Y14420D02*
X36600Y14000D01*
X36180Y14420D02*
Y17931D01*
X36600Y14000D02*
X37250D01*
X37250Y14000D01*
X37250Y18250D02*
X37904Y18904D01*
X43730Y16780D02*
Y17861D01*
X43272Y16322D02*
X43730Y16780D01*
X43272Y15372D02*
Y16322D01*
X43730Y17861D02*
X43800Y17931D01*
X37250Y15300D02*
Y18250D01*
X38735Y14015D02*
Y17916D01*
X38720Y17931D02*
X38735Y17916D01*
Y14015D02*
X38750Y14000D01*
Y15300D02*
X38750Y15300D01*
X48880Y17931D02*
X51420D01*
X51410Y17921D02*
X51420Y17931D01*
X51410Y15360D02*
Y17921D01*
X51400Y15350D02*
X51410Y15360D01*
X46340Y17823D02*
Y17931D01*
Y17823D02*
X47100Y17063D01*
Y15350D02*
Y17063D01*
X45800Y15350D02*
X47100D01*
X48400D01*
X48400Y15350D01*
X50475Y29825D02*
X50500Y29850D01*
X50475Y28475D02*
Y29825D01*
X50450Y28450D02*
X50475Y28475D01*
X50500Y26789D02*
X51420Y25869D01*
X50450Y28450D02*
X50500Y28400D01*
Y26789D02*
Y28400D01*
X48975Y29775D02*
X49000Y29800D01*
X48975Y28475D02*
Y29775D01*
X48950Y28450D02*
X48975Y28475D01*
X48880Y25869D02*
X48915Y25904D01*
Y28415D02*
X48950Y28450D01*
X48915Y25904D02*
Y28415D01*
X36180Y25869D02*
X38720D01*
X41280Y28480D02*
X41300Y28500D01*
X41280Y25889D02*
Y28480D01*
X41260Y25869D02*
X41280Y25889D01*
X6700Y5850D02*
Y5900D01*
X5500Y3340D02*
X5800D01*
X43200Y15300D02*
X43272Y15372D01*
X40000Y15450D02*
X41300D01*
X41280Y15470D02*
X41300Y15450D01*
X41280Y15470D02*
Y17911D01*
X41260Y17931D02*
X41280Y17911D01*
X37250Y14000D02*
Y14100D01*
X43700Y17831D02*
X43800Y17931D01*
X21720Y17400D02*
X21730Y17410D01*
X41300Y28500D02*
Y29750D01*
X5200Y14900D02*
X5200Y14900D01*
X4050Y14900D02*
X5200D01*
X4600Y9400D02*
Y10600D01*
X4000Y11200D02*
X4600Y10600D01*
X4000Y11200D02*
Y13200D01*
X4050Y13250D01*
X5150D01*
X5200Y13300D01*
X2550Y14900D02*
X2600Y14850D01*
Y13200D02*
Y14850D01*
Y9400D02*
Y13200D01*
X2600Y9400D02*
X2600Y9400D01*
X2600Y8000D02*
Y9400D01*
Y8000D02*
X3260Y7340D01*
Y3300D02*
Y7340D01*
X5800Y3340D02*
Y4750D01*
X6900Y5850D01*
X8100Y5900D02*
Y5950D01*
Y3320D02*
X8340Y3080D01*
Y3300D01*
X10000D01*
X8300Y3320D02*
Y5900D01*
X10000Y3300D02*
X10750Y2550D01*
X15100D01*
X17750D01*
X18500Y3300D01*
X22120D01*
X27200D02*
Y6000D01*
X26800Y6400D02*
X27200Y6000D01*
X26800Y6400D02*
Y8900D01*
X37050Y4600D02*
X37100D01*
X38800Y6300D02*
X43250D01*
X37100Y4600D02*
X38800Y6300D01*
D57*
X35400Y39560D02*
D03*
D58*
Y42100D02*
D03*
Y44640D02*
D03*
Y47180D02*
D03*
X27460D02*
D03*
Y44640D02*
D03*
Y42100D02*
D03*
Y39560D02*
D03*
D59*
X34600Y30300D02*
D03*
X33000Y32300D02*
D03*
D60*
X36180Y17931D02*
D03*
X29340Y25338D02*
D03*
D61*
X38720Y17931D02*
D03*
X41260D02*
D03*
X43800D02*
D03*
X46340D02*
D03*
X48880D02*
D03*
X51420D02*
D03*
Y25869D02*
D03*
X48880D02*
D03*
X46340D02*
D03*
X43800D02*
D03*
X41260D02*
D03*
X38720D02*
D03*
X36180D02*
D03*
X29340Y17400D02*
D03*
X26800D02*
D03*
X24260D02*
D03*
X21720D02*
D03*
X19180D02*
D03*
X16640D02*
D03*
X14100D02*
D03*
Y25338D02*
D03*
X16640D02*
D03*
X19180D02*
D03*
X21720D02*
D03*
X24260D02*
D03*
X26800D02*
D03*
D62*
X27200Y3300D02*
D03*
X8340D02*
D03*
D63*
X24660D02*
D03*
X22120D02*
D03*
X5800D02*
D03*
X3260D02*
D03*
D64*
X4300Y45740D02*
D03*
Y34700D02*
D03*
X4200Y30740D02*
D03*
X59800Y8660D02*
D03*
Y11200D02*
D03*
Y22880D02*
D03*
Y20340D02*
D03*
Y17800D02*
D03*
X59900Y2100D02*
D03*
D65*
X4300Y43200D02*
D03*
Y37240D02*
D03*
X4200Y28200D02*
D03*
X59800Y13740D02*
D03*
Y25420D02*
D03*
X59900Y4640D02*
D03*
D66*
X47400Y38200D02*
D03*
X25200Y21300D02*
D03*
X28600Y36700D02*
D03*
X42200Y48700D02*
D03*
X48600Y32800D02*
D03*
X13200Y10100D02*
D03*
X25000Y32000D02*
D03*
X32600Y50500D02*
D03*
X1300Y40300D02*
D03*
X20600Y49700D02*
D03*
X28700Y34600D02*
D03*
X24900Y39300D02*
D03*
X23200Y42100D02*
D03*
X22100Y6100D02*
D03*
X21900Y32000D02*
D03*
X42000Y44000D02*
D03*
X33200Y17900D02*
D03*
X42700Y30000D02*
D03*
X19800Y32000D02*
D03*
X44300Y14100D02*
D03*
X45800Y12500D02*
D03*
X40000D02*
D03*
X55100Y17700D02*
D03*
X42400Y16900D02*
D03*
X42500Y20100D02*
D03*
M02*
