G04*
G04 #@! TF.GenerationSoftware,Altium Limited,Altium Designer,19.1.9 (167)*
G04*
G04 Layer_Color=65535*
%FSLAX43Y43*%
%MOMM*%
G71*
G01*
G75*
%ADD10C,0.200*%
%ADD11C,0.500*%
%ADD12C,0.250*%
%ADD13C,0.150*%
%ADD14C,0.100*%
%ADD15C,0.305*%
%ADD16C,0.300*%
D10*
X31754Y35700D02*
G03*
X31754Y35700I-354J0D01*
G01*
X42754Y39500D02*
G03*
X42754Y39500I-354J0D01*
G01*
X46254Y41300D02*
G03*
X46254Y41300I-354J0D01*
G01*
X20154Y29100D02*
G03*
X20154Y29100I-354J0D01*
G01*
X25254D02*
G03*
X25254Y29100I-354J0D01*
G01*
X13400Y43000D02*
X15100D01*
X32450Y36500D02*
Y36750D01*
Y34700D02*
Y34900D01*
X30950Y36750D02*
X32450D01*
X30950Y34700D02*
X32450D01*
X41350Y38450D02*
Y38700D01*
Y40300D02*
Y40500D01*
Y38450D02*
X42850D01*
X41350Y40500D02*
X42850D01*
X46700Y40250D02*
X46950D01*
X44900D02*
X45100D01*
X46950D02*
Y41750D01*
X44900Y40250D02*
Y41750D01*
X28580Y48170D02*
X34280D01*
X28580Y38570D02*
Y48170D01*
Y38570D02*
X34280D01*
Y48170D01*
X18750Y30150D02*
X19000D01*
X20600D02*
X20800D01*
X18750Y28650D02*
Y30150D01*
X20800Y28650D02*
Y30150D01*
X34212Y17352D02*
Y25202D01*
X53388Y18598D02*
Y25202D01*
X23850Y30150D02*
X24100D01*
X25700D02*
X25900D01*
X23850Y28650D02*
Y30150D01*
X25900Y28650D02*
Y30150D01*
X12132Y18067D02*
Y24671D01*
X31308Y18067D02*
Y25917D01*
X4850Y12450D02*
X5550D01*
X5775Y7900D02*
Y10900D01*
X19460Y450D02*
X29860D01*
X19460D02*
Y5050D01*
X29860D01*
X29860Y450D02*
Y5050D01*
X19460Y950D02*
X29860D01*
X13100Y6450D02*
X17100D01*
X600Y450D02*
X11000D01*
X600D02*
Y5050D01*
X11000D01*
X11000Y450D02*
Y5050D01*
X600Y950D02*
X11000D01*
X27750Y9700D02*
X28850D01*
X27750Y8100D02*
X28850D01*
X47800Y3050D02*
Y3800D01*
X47050D02*
X47800D01*
Y800D02*
Y1550D01*
X47050Y800D02*
X47800D01*
X42900Y800D02*
Y1550D01*
Y800D02*
X43650D01*
X42900Y3050D02*
Y3800D01*
X43650D01*
X19300Y45700D02*
X20050D01*
X19300D02*
Y46450D01*
Y48700D02*
X20050D01*
X19300Y47950D02*
Y48700D01*
X31975Y2100D02*
Y7100D01*
X54857Y34762D02*
Y34000D01*
X56000D01*
Y34762D01*
X55429Y34000D02*
Y34381D01*
X56000Y35143D02*
X54857D01*
X56000Y35904D01*
X54857D01*
Y37047D02*
Y36285D01*
X56000D01*
Y37047D01*
X55429Y36285D02*
Y36666D01*
X54857Y37428D02*
X56000D01*
Y38190D01*
Y39142D02*
X54857D01*
X55429Y38571D01*
Y39332D01*
X54857Y39713D02*
Y40475D01*
X55048D01*
X55810Y39713D01*
X56000D01*
Y40856D02*
Y41237D01*
Y41046D01*
X54857D01*
X55048Y40856D01*
D11*
X33530Y39570D02*
G03*
X33530Y39570I-250J0D01*
G01*
D12*
X36055Y38220D02*
G03*
X36055Y38220I-125J0D01*
G01*
X29335Y4400D02*
G03*
X29335Y4400I-125J0D01*
G01*
X10475D02*
G03*
X10475Y4400I-125J0D01*
G01*
X46225Y500D02*
G03*
X46225Y500I-125J0D01*
G01*
X44725Y4100D02*
G03*
X44725Y4100I-125J0D01*
G01*
X21125Y45400D02*
G03*
X21125Y45400I-125J0D01*
G01*
D13*
X6350Y9400D02*
G03*
X6350Y9400I-2750J0D01*
G01*
X18500Y3800D02*
G03*
X18500Y3800I-3400J0D01*
G01*
X39550Y4600D02*
G03*
X39550Y4600I-4250J0D01*
G01*
D14*
X31150Y35700D02*
X31650D01*
X31400Y35450D02*
Y35950D01*
X42150Y39500D02*
X42650D01*
X42400Y39250D02*
Y39750D01*
X45900Y41050D02*
Y41550D01*
X45650Y41300D02*
X46150D01*
X19800Y28850D02*
Y29350D01*
X19550Y29100D02*
X20050D01*
X24900Y28850D02*
Y29350D01*
X24650Y29100D02*
X25150D01*
X60857Y34000D02*
X62000D01*
Y34571D01*
X61810Y34762D01*
X61048D01*
X60857Y34571D01*
Y34000D01*
X61238Y35333D02*
Y35714D01*
X61429Y35904D01*
X62000D01*
Y35333D01*
X61810Y35143D01*
X61619Y35333D01*
Y35904D01*
X62000Y36285D02*
X61238D01*
Y36857D01*
X61429Y37047D01*
X62000D01*
Y37428D02*
Y37809D01*
Y37618D01*
X61238D01*
Y37428D01*
X62000Y38951D02*
Y38571D01*
X61810Y38380D01*
X61429D01*
X61238Y38571D01*
Y38951D01*
X61429Y39142D01*
X61619D01*
Y38380D01*
X62000Y39523D02*
Y39904D01*
Y39713D01*
X60857D01*
Y39523D01*
X62000Y41618D02*
X60857D01*
Y42189D01*
X61048Y42379D01*
X61429D01*
X61619Y42189D01*
Y41618D01*
X61238Y42951D02*
Y43331D01*
X61429Y43522D01*
X62000D01*
Y42951D01*
X61810Y42760D01*
X61619Y42951D01*
Y43522D01*
X62381Y44284D02*
Y44474D01*
X62190Y44665D01*
X61238D01*
Y44093D01*
X61429Y43903D01*
X61810D01*
X62000Y44093D01*
Y44665D01*
Y45617D02*
Y45236D01*
X61810Y45045D01*
X61429D01*
X61238Y45236D01*
Y45617D01*
X61429Y45807D01*
X61619D01*
Y45045D01*
X60000Y34000D02*
X59238D01*
X58857Y34381D01*
X59238Y34762D01*
X60000D01*
X59429D01*
Y34000D01*
X58857Y35143D02*
X60000D01*
Y35714D01*
X59810Y35904D01*
X59619D01*
X59429D01*
X59238Y35714D01*
Y35143D01*
X58857Y37047D02*
X60000D01*
Y36476D01*
X59810Y36285D01*
X59429D01*
X59238Y36476D01*
Y37047D01*
Y37428D02*
X59810D01*
X60000Y37618D01*
Y38190D01*
X59238D01*
X60000Y38571D02*
Y38951D01*
Y38761D01*
X58857D01*
Y38571D01*
X60000Y39523D02*
Y39904D01*
Y39713D01*
X58857D01*
Y39523D01*
X59238Y40665D02*
Y41046D01*
X59429Y41237D01*
X60000D01*
Y40665D01*
X59810Y40475D01*
X59619Y40665D01*
Y41237D01*
X58857Y41618D02*
X60000D01*
X59429D01*
X59238Y41808D01*
Y42189D01*
X59429Y42379D01*
X60000D01*
Y43903D02*
X58857D01*
X60000Y44665D01*
X58857D01*
X59238Y45236D02*
Y45617D01*
X59429Y45807D01*
X60000D01*
Y45236D01*
X59810Y45045D01*
X59619Y45236D01*
Y45807D01*
X60000Y46759D02*
Y46379D01*
X59810Y46188D01*
X59429D01*
X59238Y46379D01*
Y46759D01*
X59429Y46950D01*
X59619D01*
Y46188D01*
X60000Y47902D02*
Y47521D01*
X59810Y47331D01*
X59429D01*
X59238Y47521D01*
Y47902D01*
X59429Y48092D01*
X59619D01*
Y47331D01*
X60000Y48473D02*
X59238D01*
Y48664D01*
X59429Y48854D01*
X60000D01*
X59429D01*
X59238Y49045D01*
X59429Y49235D01*
X60000D01*
X56857Y34000D02*
X58000D01*
X57429D01*
Y34762D01*
X56857D01*
X58000D01*
X57238Y35333D02*
Y35714D01*
X57429Y35904D01*
X58000D01*
Y35333D01*
X57810Y35143D01*
X57619Y35333D01*
Y35904D01*
X58000Y36285D02*
Y36857D01*
X57810Y37047D01*
X57619Y36857D01*
Y36476D01*
X57429Y36285D01*
X57238Y36476D01*
Y37047D01*
X58000Y37428D02*
Y37999D01*
X57810Y38190D01*
X57619Y37999D01*
Y37618D01*
X57429Y37428D01*
X57238Y37618D01*
Y38190D01*
Y38761D02*
Y39142D01*
X57429Y39332D01*
X58000D01*
Y38761D01*
X57810Y38571D01*
X57619Y38761D01*
Y39332D01*
X58000Y39713D02*
X57238D01*
Y40284D01*
X57429Y40475D01*
X58000D01*
Y41998D02*
X57238D01*
X56857Y42379D01*
X57238Y42760D01*
X58000D01*
X57429D01*
Y41998D01*
X58000Y43141D02*
Y43522D01*
Y43331D01*
X56857D01*
Y43141D01*
Y44093D02*
X58000D01*
X57429D01*
X57238Y44284D01*
Y44665D01*
X57429Y44855D01*
X58000D01*
X57238Y45236D02*
X57810D01*
X58000Y45426D01*
Y45998D01*
X57238D01*
X58381Y46379D02*
Y46569D01*
X58190Y46759D01*
X57238D01*
X56857Y47521D02*
X58000D01*
X57429D01*
X57238Y47712D01*
Y48092D01*
X57429Y48283D01*
X58000D01*
Y48854D02*
Y49235D01*
X57810Y49426D01*
X57429D01*
X57238Y49235D01*
Y48854D01*
X57429Y48664D01*
X57810D01*
X58000Y48854D01*
X58381Y49806D02*
Y49997D01*
X58190Y50187D01*
X57238D01*
X13600Y42200D02*
Y42700D01*
X13850D01*
X13933Y42617D01*
Y42450D01*
X13850Y42367D01*
X13600D01*
X14100Y42700D02*
Y42200D01*
X14266Y42367D01*
X14433Y42200D01*
Y42700D01*
X14600Y42200D02*
Y42700D01*
X14766Y42533D01*
X14933Y42700D01*
Y42200D01*
X19500Y6000D02*
Y5583D01*
X19583Y5500D01*
X19750D01*
X19833Y5583D01*
Y6000D01*
X20000Y5500D02*
X20166D01*
X20083D01*
Y6000D01*
X20000Y5917D01*
X40200Y1900D02*
X39700D01*
Y2150D01*
X39783Y2233D01*
X39950D01*
X40033Y2150D01*
Y1900D01*
Y2067D02*
X40200Y2233D01*
Y2650D02*
X39700D01*
X39950Y2400D01*
Y2733D01*
X39783Y2900D02*
X39700Y2983D01*
Y3150D01*
X39783Y3233D01*
X39867D01*
X39950Y3150D01*
Y3066D01*
Y3150D01*
X40033Y3233D01*
X40117D01*
X40200Y3150D01*
Y2983D01*
X40117Y2900D01*
X9000Y13000D02*
Y13500D01*
X9250D01*
X9333Y13417D01*
Y13250D01*
X9250Y13167D01*
X9000D01*
X9167D02*
X9333Y13000D01*
X9500Y13417D02*
X9583Y13500D01*
X9750D01*
X9833Y13417D01*
Y13333D01*
X9750Y13250D01*
X9666D01*
X9750D01*
X9833Y13167D01*
Y13083D01*
X9750Y13000D01*
X9583D01*
X9500Y13083D01*
X10000Y13417D02*
X10083Y13500D01*
X10250D01*
X10333Y13417D01*
Y13333D01*
X10250Y13250D01*
X10333Y13167D01*
Y13083D01*
X10250Y13000D01*
X10083D01*
X10000Y13083D01*
Y13167D01*
X10083Y13250D01*
X10000Y13333D01*
Y13417D01*
X10083Y13250D02*
X10250D01*
X5100Y40000D02*
Y40500D01*
X5350D01*
X5433Y40417D01*
Y40250D01*
X5350Y40167D01*
X5100D01*
X5267D02*
X5433Y40000D01*
X5600Y40417D02*
X5683Y40500D01*
X5850D01*
X5933Y40417D01*
Y40333D01*
X5850Y40250D01*
X5766D01*
X5850D01*
X5933Y40167D01*
Y40083D01*
X5850Y40000D01*
X5683D01*
X5600Y40083D01*
X6100Y40500D02*
X6433D01*
Y40417D01*
X6100Y40083D01*
Y40000D01*
X650Y17402D02*
Y17901D01*
X900D01*
X983Y17818D01*
Y17652D01*
X900Y17568D01*
X650D01*
X817D02*
X983Y17402D01*
X1150Y17818D02*
X1233Y17901D01*
X1400D01*
X1483Y17818D01*
Y17735D01*
X1400Y17652D01*
X1317D01*
X1400D01*
X1483Y17568D01*
Y17485D01*
X1400Y17402D01*
X1233D01*
X1150Y17485D01*
X1983Y17901D02*
X1816Y17818D01*
X1650Y17652D01*
Y17485D01*
X1733Y17402D01*
X1900D01*
X1983Y17485D01*
Y17568D01*
X1900Y17652D01*
X1650D01*
X25800Y14700D02*
Y15200D01*
X26050D01*
X26133Y15117D01*
Y14950D01*
X26050Y14867D01*
X25800D01*
X25967D02*
X26133Y14700D01*
X26300Y15117D02*
X26383Y15200D01*
X26550D01*
X26633Y15117D01*
Y15033D01*
X26550Y14950D01*
X26466D01*
X26550D01*
X26633Y14867D01*
Y14783D01*
X26550Y14700D01*
X26383D01*
X26300Y14783D01*
X27133Y15200D02*
X26800D01*
Y14950D01*
X26966Y15033D01*
X27050D01*
X27133Y14950D01*
Y14783D01*
X27050Y14700D01*
X26883D01*
X26800Y14783D01*
X19800Y15500D02*
Y16000D01*
X20050D01*
X20133Y15917D01*
Y15750D01*
X20050Y15667D01*
X19800D01*
X19967D02*
X20133Y15500D01*
X20633D02*
X20300D01*
X20633Y15833D01*
Y15917D01*
X20550Y16000D01*
X20383D01*
X20300Y15917D01*
X20800D02*
X20883Y16000D01*
X21050D01*
X21133Y15917D01*
Y15583D01*
X21050Y15500D01*
X20883D01*
X20800Y15583D01*
Y15917D01*
X17900Y12700D02*
X17400D01*
Y12950D01*
X17483Y13033D01*
X17650D01*
X17733Y12950D01*
Y12700D01*
Y12867D02*
X17900Y13033D01*
Y13200D02*
Y13366D01*
Y13283D01*
X17400D01*
X17483Y13200D01*
Y13616D02*
X17400Y13700D01*
Y13866D01*
X17483Y13950D01*
X17567D01*
X17650Y13866D01*
X17733Y13950D01*
X17817D01*
X17900Y13866D01*
Y13700D01*
X17817Y13616D01*
X17733D01*
X17650Y13700D01*
X17567Y13616D01*
X17483D01*
X17650Y13700D02*
Y13866D01*
X22500Y15500D02*
Y16000D01*
X22750D01*
X22833Y15917D01*
Y15750D01*
X22750Y15667D01*
X22500D01*
X22667D02*
X22833Y15500D01*
X23000D02*
X23166D01*
X23083D01*
Y16000D01*
X23000Y15917D01*
X23416Y16000D02*
X23750D01*
Y15917D01*
X23416Y15583D01*
Y15500D01*
X30200Y13100D02*
Y13600D01*
X30450D01*
X30533Y13517D01*
Y13350D01*
X30450Y13267D01*
X30200D01*
X30367D02*
X30533Y13100D01*
X30700D02*
X30866D01*
X30783D01*
Y13600D01*
X30700Y13517D01*
X31450Y13600D02*
X31283Y13517D01*
X31116Y13350D01*
Y13183D01*
X31200Y13100D01*
X31366D01*
X31450Y13183D01*
Y13267D01*
X31366Y13350D01*
X31116D01*
X21200Y13200D02*
Y13700D01*
X21450D01*
X21533Y13617D01*
Y13450D01*
X21450Y13367D01*
X21200D01*
X21367D02*
X21533Y13200D01*
X21700D02*
X21866D01*
X21783D01*
Y13700D01*
X21700Y13617D01*
X22450Y13700D02*
X22116D01*
Y13450D01*
X22283Y13533D01*
X22366D01*
X22450Y13450D01*
Y13283D01*
X22366Y13200D01*
X22200D01*
X22116Y13283D01*
X16000Y15500D02*
Y16000D01*
X16250D01*
X16333Y15917D01*
Y15750D01*
X16250Y15667D01*
X16000D01*
X16167D02*
X16333Y15500D01*
X16500D02*
X16666D01*
X16583D01*
Y16000D01*
X16500Y15917D01*
X16916D02*
X17000Y16000D01*
X17166D01*
X17250Y15917D01*
Y15833D01*
X17166Y15750D01*
X17083D01*
X17166D01*
X17250Y15667D01*
Y15583D01*
X17166Y15500D01*
X17000D01*
X16916Y15583D01*
X11900Y14800D02*
Y15300D01*
X12150D01*
X12233Y15217D01*
Y15050D01*
X12150Y14967D01*
X11900D01*
X12067D02*
X12233Y14800D01*
X12400D02*
X12566D01*
X12483D01*
Y15300D01*
X12400Y15217D01*
X12816Y14800D02*
X12983D01*
X12900D01*
Y15300D01*
X12816Y15217D01*
X9900Y21800D02*
X10067D01*
X9983D01*
Y21300D01*
X9900D01*
X10067D01*
X10650Y21717D02*
X10566Y21800D01*
X10400D01*
X10317Y21717D01*
Y21383D01*
X10400Y21300D01*
X10566D01*
X10650Y21383D01*
X11150Y21300D02*
X10816D01*
X11150Y21633D01*
Y21717D01*
X11066Y21800D01*
X10900D01*
X10816Y21717D01*
X14933Y15917D02*
X14850Y16000D01*
X14683D01*
X14600Y15917D01*
Y15583D01*
X14683Y15500D01*
X14850D01*
X14933Y15583D01*
X15100D02*
X15183Y15500D01*
X15350D01*
X15433Y15583D01*
Y15917D01*
X15350Y16000D01*
X15183D01*
X15100Y15917D01*
Y15833D01*
X15183Y15750D01*
X15433D01*
X18784Y49532D02*
Y49865D01*
X18701Y49949D01*
X18535D01*
X18451Y49865D01*
Y49532D01*
X18535Y49449D01*
X18701D01*
X18618Y49615D02*
X18784Y49449D01*
X18701D02*
X18784Y49532D01*
X18951Y49449D02*
X19118D01*
X19034D01*
Y49949D01*
X18951Y49865D01*
X40300Y4500D02*
Y5000D01*
X40550D01*
X40633Y4917D01*
Y4750D01*
X40550Y4667D01*
X40300D01*
X40467D02*
X40633Y4500D01*
X41050D02*
Y5000D01*
X40800Y4750D01*
X41133D01*
X41633Y4500D02*
X41300D01*
X41633Y4833D01*
Y4917D01*
X41550Y5000D01*
X41383D01*
X41300Y4917D01*
X53400Y2500D02*
Y3000D01*
X53650D01*
X53733Y2917D01*
Y2750D01*
X53650Y2667D01*
X53400D01*
X53567D02*
X53733Y2500D01*
X53900Y2917D02*
X53983Y3000D01*
X54150D01*
X54233Y2917D01*
Y2833D01*
X54150Y2750D01*
X54066D01*
X54150D01*
X54233Y2667D01*
Y2583D01*
X54150Y2500D01*
X53983D01*
X53900Y2583D01*
X54400D02*
X54483Y2500D01*
X54650D01*
X54733Y2583D01*
Y2917D01*
X54650Y3000D01*
X54483D01*
X54400Y2917D01*
Y2833D01*
X54483Y2750D01*
X54733D01*
X45200Y7100D02*
X44700D01*
Y7350D01*
X44783Y7433D01*
X44950D01*
X45033Y7350D01*
Y7100D01*
Y7267D02*
X45200Y7433D01*
Y7850D02*
X44700D01*
X44950Y7600D01*
Y7933D01*
X44783Y8100D02*
X44700Y8183D01*
Y8350D01*
X44783Y8433D01*
X45117D01*
X45200Y8350D01*
Y8183D01*
X45117Y8100D01*
X44783D01*
X36900Y28400D02*
Y28900D01*
X37150D01*
X37233Y28817D01*
Y28650D01*
X37150Y28567D01*
X36900D01*
X37067D02*
X37233Y28400D01*
X37650D02*
Y28900D01*
X37400Y28650D01*
X37733D01*
X24100Y45500D02*
Y46000D01*
X24350D01*
X24433Y45917D01*
Y45750D01*
X24350Y45667D01*
X24100D01*
X24267D02*
X24433Y45500D01*
X24600Y45917D02*
X24683Y46000D01*
X24850D01*
X24933Y45917D01*
Y45833D01*
X24850Y45750D01*
X24766D01*
X24850D01*
X24933Y45667D01*
Y45583D01*
X24850Y45500D01*
X24683D01*
X24600Y45583D01*
X25100Y45917D02*
X25183Y46000D01*
X25350D01*
X25433Y45917D01*
Y45583D01*
X25350Y45500D01*
X25183D01*
X25100Y45583D01*
Y45917D01*
X40400Y44300D02*
Y44800D01*
X40650D01*
X40733Y44717D01*
Y44550D01*
X40650Y44467D01*
X40400D01*
X40567D02*
X40733Y44300D01*
X41233D02*
X40900D01*
X41233Y44633D01*
Y44717D01*
X41150Y44800D01*
X40983D01*
X40900Y44717D01*
X44500Y44000D02*
Y44500D01*
X44750D01*
X44833Y44417D01*
Y44250D01*
X44750Y44167D01*
X44500D01*
X44667D02*
X44833Y44000D01*
X45000Y44417D02*
X45083Y44500D01*
X45250D01*
X45333Y44417D01*
Y44333D01*
X45250Y44250D01*
X45166D01*
X45250D01*
X45333Y44167D01*
Y44083D01*
X45250Y44000D01*
X45083D01*
X45000Y44083D01*
X45833Y44000D02*
X45500D01*
X45833Y44333D01*
Y44417D01*
X45750Y44500D01*
X45583D01*
X45500Y44417D01*
X52400Y15100D02*
Y15600D01*
X52650D01*
X52733Y15517D01*
Y15350D01*
X52650Y15267D01*
X52400D01*
X52567D02*
X52733Y15100D01*
X53233D02*
X52900D01*
X53233Y15433D01*
Y15517D01*
X53150Y15600D01*
X52983D01*
X52900Y15517D01*
X53400D02*
X53483Y15600D01*
X53650D01*
X53733Y15517D01*
Y15433D01*
X53650Y15350D01*
X53566D01*
X53650D01*
X53733Y15267D01*
Y15183D01*
X53650Y15100D01*
X53483D01*
X53400Y15183D01*
X39400Y16000D02*
Y16500D01*
X39650D01*
X39733Y16417D01*
Y16250D01*
X39650Y16167D01*
X39400D01*
X39567D02*
X39733Y16000D01*
X39900Y16417D02*
X39983Y16500D01*
X40150D01*
X40233Y16417D01*
Y16333D01*
X40150Y16250D01*
X40066D01*
X40150D01*
X40233Y16167D01*
Y16083D01*
X40150Y16000D01*
X39983D01*
X39900Y16083D01*
X40650Y16000D02*
Y16500D01*
X40400Y16250D01*
X40733D01*
X36800Y16000D02*
Y16500D01*
X37050D01*
X37133Y16417D01*
Y16250D01*
X37050Y16167D01*
X36800D01*
X36967D02*
X37133Y16000D01*
X37300Y16417D02*
X37383Y16500D01*
X37550D01*
X37633Y16417D01*
Y16333D01*
X37550Y16250D01*
X37466D01*
X37550D01*
X37633Y16167D01*
Y16083D01*
X37550Y16000D01*
X37383D01*
X37300Y16083D01*
X37800Y16000D02*
X37966D01*
X37883D01*
Y16500D01*
X37800Y16417D01*
X36800Y12700D02*
Y13200D01*
X37050D01*
X37133Y13117D01*
Y12950D01*
X37050Y12867D01*
X36800D01*
X36967D02*
X37133Y12700D01*
X37633D02*
X37300D01*
X37633Y13033D01*
Y13117D01*
X37550Y13200D01*
X37383D01*
X37300Y13117D01*
X37800D02*
X37883Y13200D01*
X38050D01*
X38133Y13117D01*
Y13033D01*
X38050Y12950D01*
X38133Y12867D01*
Y12783D01*
X38050Y12700D01*
X37883D01*
X37800Y12783D01*
Y12867D01*
X37883Y12950D01*
X37800Y13033D01*
Y13117D01*
X37883Y12950D02*
X38050D01*
X17000Y30500D02*
Y31000D01*
X17250D01*
X17333Y30917D01*
Y30750D01*
X17250Y30667D01*
X17000D01*
X17167D02*
X17333Y30500D01*
X17500Y31000D02*
Y30667D01*
X17666Y30500D01*
X17833Y30667D01*
Y31000D01*
X18333Y30500D02*
X18000D01*
X18333Y30833D01*
Y30917D01*
X18250Y31000D01*
X18083D01*
X18000Y30917D01*
X23400Y30100D02*
X22900D01*
Y30350D01*
X22983Y30433D01*
X23150D01*
X23233Y30350D01*
Y30100D01*
Y30267D02*
X23400Y30433D01*
X22900Y30600D02*
X23233D01*
X23400Y30766D01*
X23233Y30933D01*
X22900D01*
X23400Y31100D02*
Y31266D01*
Y31183D01*
X22900D01*
X22983Y31100D01*
X23200Y28450D02*
X22700D01*
Y28700D01*
X22783Y28783D01*
X22950D01*
X23033Y28700D01*
Y28450D01*
Y28617D02*
X23200Y28783D01*
Y29283D02*
Y28950D01*
X22867Y29283D01*
X22783D01*
X22700Y29200D01*
Y29033D01*
X22783Y28950D01*
X23200Y29450D02*
Y29616D01*
Y29533D01*
X22700D01*
X22783Y29450D01*
X26500Y30467D02*
Y30967D01*
X26750D01*
X26833Y30884D01*
Y30717D01*
X26750Y30634D01*
X26500D01*
X26667D02*
X26833Y30467D01*
X27000Y30967D02*
X27333D01*
Y30884D01*
X27000Y30551D01*
Y30467D01*
X7133Y9617D02*
X7050Y9700D01*
X6883D01*
X6800Y9617D01*
Y9283D01*
X6883Y9200D01*
X7050D01*
X7133Y9283D01*
X7550Y9200D02*
Y9700D01*
X7300Y9450D01*
X7633D01*
X1260Y5500D02*
X1677D01*
X1760Y5583D01*
Y5750D01*
X1677Y5833D01*
X1260D01*
X1760Y6333D02*
Y6000D01*
X1427Y6333D01*
X1343D01*
X1260Y6250D01*
Y6083D01*
X1343Y6000D01*
X13433Y38117D02*
X13350Y38200D01*
X13183D01*
X13100Y38117D01*
Y37783D01*
X13183Y37700D01*
X13350D01*
X13433Y37783D01*
Y37950D01*
X13267D01*
X13600Y37700D02*
Y38200D01*
X13933Y37700D01*
Y38200D01*
X14100D02*
Y37700D01*
X14350D01*
X14433Y37783D01*
Y38117D01*
X14350Y38200D01*
X14100D01*
X14933D02*
X14600D01*
Y37950D01*
X14766Y38033D01*
X14849D01*
X14933Y37950D01*
Y37783D01*
X14849Y37700D01*
X14683D01*
X14600Y37783D01*
X34400Y10500D02*
Y10167D01*
X34567Y10000D01*
X34733Y10167D01*
Y10500D01*
X34900Y10333D02*
Y10000D01*
Y10167D01*
X34983Y10250D01*
X35066Y10333D01*
X35150D01*
X35650Y10000D02*
X35483D01*
X35400Y10083D01*
Y10250D01*
X35483Y10333D01*
X35650D01*
X35733Y10250D01*
Y10167D01*
X35400D01*
X35983Y10000D02*
Y10417D01*
Y10250D01*
X35900D01*
X36066D01*
X35983D01*
Y10417D01*
X36066Y10500D01*
X36316Y9917D02*
X36649D01*
X36816Y10500D02*
Y10000D01*
X37149D01*
X37649Y10500D02*
X37316D01*
Y10000D01*
X37649D01*
X37316Y10250D02*
X37482D01*
X37816Y10000D02*
Y10500D01*
X37982Y10333D01*
X38149Y10500D01*
Y10000D01*
X27500Y52700D02*
Y53200D01*
X27750D01*
X27833Y53117D01*
Y52950D01*
X27750Y52867D01*
X27500D01*
X27667D02*
X27833Y52700D01*
X28000Y53200D02*
X28333D01*
X28166D01*
Y52700D01*
X28500D02*
X28833Y53033D01*
X29333Y53117D02*
X29249Y53200D01*
X29083D01*
X29000Y53117D01*
Y52783D01*
X29083Y52700D01*
X29249D01*
X29333Y52783D01*
X29499Y53200D02*
X29833D01*
X29666D01*
Y52700D01*
X4333Y51117D02*
X4250Y51200D01*
X4083D01*
X4000Y51117D01*
Y50783D01*
X4083Y50700D01*
X4250D01*
X4333Y50783D01*
Y50950D01*
X4167D01*
X4500Y50700D02*
Y51200D01*
X4833Y50700D01*
Y51200D01*
X5000D02*
Y50700D01*
X5250D01*
X5333Y50783D01*
Y51117D01*
X5250Y51200D01*
X5000D01*
X5749Y50700D02*
Y51200D01*
X5500Y50950D01*
X5833D01*
X35650Y34032D02*
Y33699D01*
X35817Y33533D01*
X35984Y33699D01*
Y34032D01*
X36234Y33533D02*
X36400D01*
X36483Y33616D01*
Y33783D01*
X36400Y33866D01*
X36234D01*
X36150Y33783D01*
Y33616D01*
X36234Y33533D01*
X36650Y33866D02*
Y33616D01*
X36733Y33533D01*
X36983D01*
Y33866D01*
X37233Y33949D02*
Y33866D01*
X37150D01*
X37317D01*
X37233D01*
Y33616D01*
X37317Y33533D01*
X37566Y33449D02*
X37900D01*
X38066Y34032D02*
Y33533D01*
X38400D01*
X38899Y34032D02*
X38566D01*
Y33533D01*
X38899D01*
X38566Y33783D02*
X38733D01*
X39066Y33533D02*
Y34032D01*
X39233Y33866D01*
X39399Y34032D01*
Y33533D01*
X40800Y52300D02*
X40967D01*
X40883D01*
Y51800D01*
X40800D01*
X40967D01*
X41217Y51717D02*
X41550D01*
X41716Y51800D02*
X41966D01*
X42050Y51883D01*
X41966Y51967D01*
X41800D01*
X41716Y52050D01*
X41800Y52133D01*
X42050D01*
X42466Y51800D02*
X42300D01*
X42216Y51883D01*
Y52050D01*
X42300Y52133D01*
X42466D01*
X42549Y52050D01*
Y51967D01*
X42216D01*
X42716Y51800D02*
Y52133D01*
X42966D01*
X43049Y52050D01*
Y51800D01*
X43216D02*
X43466D01*
X43549Y51883D01*
X43466Y51967D01*
X43299D01*
X43216Y52050D01*
X43299Y52133D01*
X43549D01*
X43966Y51800D02*
X43799D01*
X43716Y51883D01*
Y52050D01*
X43799Y52133D01*
X43966D01*
X44049Y52050D01*
Y51967D01*
X43716D01*
X58533Y30217D02*
X58450Y30300D01*
X58283D01*
X58200Y30217D01*
Y29883D01*
X58283Y29800D01*
X58450D01*
X58533Y29883D01*
Y30050D01*
X58367D01*
X58700Y29800D02*
Y30300D01*
X59033Y29800D01*
Y30300D01*
X59200D02*
Y29800D01*
X59450D01*
X59533Y29883D01*
Y30217D01*
X59450Y30300D01*
X59200D01*
X59700Y30217D02*
X59783Y30300D01*
X59949D01*
X60033Y30217D01*
Y30133D01*
X59949Y30050D01*
X59866D01*
X59949D01*
X60033Y29967D01*
Y29883D01*
X59949Y29800D01*
X59783D01*
X59700Y29883D01*
X20233Y11100D02*
X19900D01*
Y10850D01*
X20067Y10933D01*
X20150D01*
X20233Y10850D01*
Y10683D01*
X20150Y10600D01*
X19983D01*
X19900Y10683D01*
X20400Y11100D02*
Y10767D01*
X20566Y10600D01*
X20733Y10767D01*
Y11100D01*
X46833Y51517D02*
X46750Y51600D01*
X46583D01*
X46500Y51517D01*
Y51183D01*
X46583Y51100D01*
X46750D01*
X46833Y51183D01*
Y51350D01*
X46667D01*
X47000Y51100D02*
Y51600D01*
X47333Y51100D01*
Y51600D01*
X47500D02*
Y51100D01*
X47750D01*
X47833Y51183D01*
Y51517D01*
X47750Y51600D01*
X47500D01*
X48333Y51100D02*
X48000D01*
X48333Y51433D01*
Y51517D01*
X48249Y51600D01*
X48083D01*
X48000Y51517D01*
X16500Y41900D02*
X16667D01*
X16583D01*
Y42400D01*
X16500Y42317D01*
X17250Y42400D02*
X16917D01*
Y42150D01*
X17083Y42233D01*
X17166D01*
X17250Y42150D01*
Y41983D01*
X17166Y41900D01*
X17000D01*
X16917Y41983D01*
X17416Y42400D02*
Y42067D01*
X17583Y41900D01*
X17750Y42067D01*
Y42400D01*
X12833Y8917D02*
X12750Y9000D01*
X12583D01*
X12500Y8917D01*
Y8583D01*
X12583Y8500D01*
X12750D01*
X12833Y8583D01*
Y8750D01*
X12667D01*
X13000Y8500D02*
Y9000D01*
X13333Y8500D01*
Y9000D01*
X13500D02*
Y8500D01*
X13750D01*
X13833Y8583D01*
Y8917D01*
X13750Y9000D01*
X13500D01*
X14000Y8500D02*
X14166D01*
X14083D01*
Y9000D01*
X14000Y8917D01*
X45733Y10000D02*
X45400D01*
X45733Y10333D01*
Y10417D01*
X45650Y10500D01*
X45483D01*
X45400Y10417D01*
X46150Y10000D02*
Y10500D01*
X45900Y10250D01*
X46233D01*
X46400Y10500D02*
Y10167D01*
X46566Y10000D01*
X46733Y10167D01*
Y10500D01*
X20000Y51800D02*
Y52300D01*
X20250D01*
X20333Y52217D01*
Y52050D01*
X20250Y51967D01*
X20000D01*
X20500Y52300D02*
Y51800D01*
X20666Y51967D01*
X20833Y51800D01*
Y52300D01*
X21000Y51800D02*
Y52300D01*
X21166Y52133D01*
X21333Y52300D01*
Y51800D01*
X42900Y4700D02*
X43233D01*
X43067D01*
Y4200D01*
X43400D02*
X43566D01*
X43483D01*
Y4700D01*
X43400Y4617D01*
X41400Y37400D02*
Y37900D01*
X41650D01*
X41733Y37817D01*
Y37650D01*
X41650Y37567D01*
X41400D01*
X41567D02*
X41733Y37400D01*
X41900Y37900D02*
Y37567D01*
X42066Y37400D01*
X42233Y37567D01*
Y37900D01*
X42733D02*
X42400D01*
Y37650D01*
X42566Y37733D01*
X42650D01*
X42733Y37650D01*
Y37483D01*
X42650Y37400D01*
X42483D01*
X42400Y37483D01*
X47600Y40200D02*
Y40700D01*
X47850D01*
X47933Y40617D01*
Y40450D01*
X47850Y40367D01*
X47600D01*
X47767D02*
X47933Y40200D01*
X48100Y40700D02*
Y40367D01*
X48266Y40200D01*
X48433Y40367D01*
Y40700D01*
X48850Y40200D02*
Y40700D01*
X48600Y40450D01*
X48933D01*
X33500Y36300D02*
Y36800D01*
X33750D01*
X33833Y36717D01*
Y36550D01*
X33750Y36467D01*
X33500D01*
X33667D02*
X33833Y36300D01*
X34000Y36800D02*
Y36467D01*
X34166Y36300D01*
X34333Y36467D01*
Y36800D01*
X34500Y36717D02*
X34583Y36800D01*
X34750D01*
X34833Y36717D01*
Y36633D01*
X34750Y36550D01*
X34666D01*
X34750D01*
X34833Y36467D01*
Y36383D01*
X34750Y36300D01*
X34583D01*
X34500Y36383D01*
X49000Y4200D02*
Y4700D01*
X49250D01*
X49333Y4617D01*
Y4450D01*
X49250Y4367D01*
X49000D01*
X49167D02*
X49333Y4200D01*
X49750D02*
Y4700D01*
X49500Y4450D01*
X49833D01*
X50000Y4200D02*
X50166D01*
X50083D01*
Y4700D01*
X50000Y4617D01*
X21900Y47100D02*
Y47600D01*
X22150D01*
X22233Y47517D01*
Y47350D01*
X22150Y47267D01*
X21900D01*
X22067D02*
X22233Y47100D01*
X22733D02*
X22400D01*
X22733Y47433D01*
Y47517D01*
X22650Y47600D01*
X22483D01*
X22400Y47517D01*
X22900Y47183D02*
X22983Y47100D01*
X23150D01*
X23233Y47183D01*
Y47517D01*
X23150Y47600D01*
X22983D01*
X22900Y47517D01*
Y47433D01*
X22983Y47350D01*
X23233D01*
X14057Y48407D02*
Y48907D01*
X14307D01*
X14390Y48824D01*
Y48657D01*
X14307Y48574D01*
X14057D01*
X14224D02*
X14390Y48407D01*
X14890D02*
X14557D01*
X14890Y48741D01*
Y48824D01*
X14807Y48907D01*
X14640D01*
X14557Y48824D01*
X15057Y48907D02*
X15390D01*
Y48824D01*
X15057Y48491D01*
Y48407D01*
X40800Y12800D02*
Y13300D01*
X41050D01*
X41133Y13217D01*
Y13050D01*
X41050Y12967D01*
X40800D01*
X40967D02*
X41133Y12800D01*
X41300Y13217D02*
X41383Y13300D01*
X41550D01*
X41633Y13217D01*
Y13133D01*
X41550Y13050D01*
X41466D01*
X41550D01*
X41633Y12967D01*
Y12883D01*
X41550Y12800D01*
X41383D01*
X41300Y12883D01*
X41800Y13217D02*
X41883Y13300D01*
X42050D01*
X42133Y13217D01*
Y13133D01*
X42050Y13050D01*
X41966D01*
X42050D01*
X42133Y12967D01*
Y12883D01*
X42050Y12800D01*
X41883D01*
X41800Y12883D01*
X17003Y48257D02*
Y48756D01*
X17253D01*
X17337Y48673D01*
Y48507D01*
X17253Y48423D01*
X17003D01*
X17170D02*
X17337Y48257D01*
X17836D02*
X17503D01*
X17836Y48590D01*
Y48673D01*
X17753Y48756D01*
X17587D01*
X17503Y48673D01*
X18336Y48756D02*
X18170Y48673D01*
X18003Y48507D01*
Y48340D01*
X18086Y48257D01*
X18253D01*
X18336Y48340D01*
Y48423D01*
X18253Y48507D01*
X18003D01*
X13597Y30366D02*
Y30865D01*
X13847D01*
X13930Y30782D01*
Y30616D01*
X13847Y30532D01*
X13597D01*
X13763D02*
X13930Y30366D01*
X14097D02*
X14263D01*
X14180D01*
Y30865D01*
X14097Y30782D01*
X14513Y30449D02*
X14596Y30366D01*
X14763D01*
X14846Y30449D01*
Y30782D01*
X14763Y30865D01*
X14596D01*
X14513Y30782D01*
Y30699D01*
X14596Y30616D01*
X14846D01*
X28811Y30416D02*
Y30916D01*
X29061D01*
X29145Y30833D01*
Y30666D01*
X29061Y30583D01*
X28811D01*
X28978D02*
X29145Y30416D01*
X29644Y30916D02*
X29478Y30833D01*
X29311Y30666D01*
Y30500D01*
X29395Y30416D01*
X29561D01*
X29644Y30500D01*
Y30583D01*
X29561Y30666D01*
X29311D01*
X42000Y45800D02*
Y46300D01*
X42250D01*
X42333Y46217D01*
Y46050D01*
X42250Y45967D01*
X42000D01*
X42167D02*
X42333Y45800D01*
X42500D02*
X42666D01*
X42583D01*
Y46300D01*
X42500Y46217D01*
X51400Y31500D02*
Y32000D01*
X51650D01*
X51733Y31917D01*
Y31750D01*
X51650Y31667D01*
X51400D01*
X51567D02*
X51733Y31500D01*
X51900D02*
X52066D01*
X51983D01*
Y32000D01*
X51900Y31917D01*
X52316D02*
X52400Y32000D01*
X52566D01*
X52650Y31917D01*
Y31583D01*
X52566Y31500D01*
X52400D01*
X52316Y31583D01*
Y31917D01*
X45400Y16000D02*
Y16500D01*
X45650D01*
X45733Y16417D01*
Y16250D01*
X45650Y16167D01*
X45400D01*
X45567D02*
X45733Y16000D01*
X46233D02*
X45900D01*
X46233Y16333D01*
Y16417D01*
X46150Y16500D01*
X45983D01*
X45900Y16417D01*
X46733Y16500D02*
X46400D01*
Y16250D01*
X46566Y16333D01*
X46650D01*
X46733Y16250D01*
Y16083D01*
X46650Y16000D01*
X46483D01*
X46400Y16083D01*
X47400Y11800D02*
X46900D01*
Y12050D01*
X46983Y12133D01*
X47150D01*
X47233Y12050D01*
Y11800D01*
Y11967D02*
X47400Y12133D01*
Y12633D02*
Y12300D01*
X47067Y12633D01*
X46983D01*
X46900Y12550D01*
Y12383D01*
X46983Y12300D01*
X47400Y13050D02*
X46900D01*
X47150Y12800D01*
Y13133D01*
X49300Y13600D02*
Y14100D01*
X49550D01*
X49633Y14017D01*
Y13850D01*
X49550Y13767D01*
X49300D01*
X49467D02*
X49633Y13600D01*
X50133D02*
X49800D01*
X50133Y13933D01*
Y14017D01*
X50050Y14100D01*
X49883D01*
X49800Y14017D01*
X50633Y13600D02*
X50300D01*
X50633Y13933D01*
Y14017D01*
X50550Y14100D01*
X50383D01*
X50300Y14017D01*
X46600Y30800D02*
X46100D01*
Y31050D01*
X46183Y31133D01*
X46350D01*
X46433Y31050D01*
Y30800D01*
Y30967D02*
X46600Y31133D01*
Y31300D02*
Y31466D01*
Y31383D01*
X46100D01*
X46183Y31300D01*
X46600Y31966D02*
X46100D01*
X46350Y31716D01*
Y32050D01*
X45300Y30800D02*
X44800D01*
Y31050D01*
X44883Y31133D01*
X45050D01*
X45133Y31050D01*
Y30800D01*
Y30967D02*
X45300Y31133D01*
Y31300D02*
Y31466D01*
Y31383D01*
X44800D01*
X44883Y31300D01*
X45300Y32050D02*
Y31716D01*
X44967Y32050D01*
X44883D01*
X44800Y31966D01*
Y31800D01*
X44883Y31716D01*
X47500Y31500D02*
Y32000D01*
X47750D01*
X47833Y31917D01*
Y31750D01*
X47750Y31667D01*
X47500D01*
X47667D02*
X47833Y31500D01*
X48000Y31583D02*
X48083Y31500D01*
X48250D01*
X48333Y31583D01*
Y31917D01*
X48250Y32000D01*
X48083D01*
X48000Y31917D01*
Y31833D01*
X48083Y31750D01*
X48333D01*
X51400Y28500D02*
Y29000D01*
X51650D01*
X51733Y28917D01*
Y28750D01*
X51650Y28667D01*
X51400D01*
X51567D02*
X51733Y28500D01*
X51900Y28917D02*
X51983Y29000D01*
X52150D01*
X52233Y28917D01*
Y28833D01*
X52150Y28750D01*
X52233Y28667D01*
Y28583D01*
X52150Y28500D01*
X51983D01*
X51900Y28583D01*
Y28667D01*
X51983Y28750D01*
X51900Y28833D01*
Y28917D01*
X51983Y28750D02*
X52150D01*
X900Y14700D02*
Y15200D01*
X1150D01*
X1233Y15117D01*
Y14950D01*
X1150Y14867D01*
X900D01*
X1067D02*
X1233Y14700D01*
X1400Y15117D02*
X1483Y15200D01*
X1650D01*
X1733Y15117D01*
Y15033D01*
X1650Y14950D01*
X1566D01*
X1650D01*
X1733Y14867D01*
Y14783D01*
X1650Y14700D01*
X1483D01*
X1400Y14783D01*
X40800Y32000D02*
Y32500D01*
X41050D01*
X41133Y32417D01*
Y32250D01*
X41050Y32167D01*
X40800D01*
X40967D02*
X41133Y32000D01*
X41633Y32500D02*
X41300D01*
Y32250D01*
X41466Y32333D01*
X41550D01*
X41633Y32250D01*
Y32083D01*
X41550Y32000D01*
X41383D01*
X41300Y32083D01*
X26300Y10700D02*
Y10200D01*
X26633D01*
X26800D02*
X26966D01*
X26883D01*
Y10700D01*
X26800Y10617D01*
X24600Y48500D02*
X24767D01*
X24683D01*
Y48000D01*
X24600D01*
X24767D01*
X25350Y48417D02*
X25266Y48500D01*
X25100D01*
X25017Y48417D01*
Y48083D01*
X25100Y48000D01*
X25266D01*
X25350Y48083D01*
X25516Y48417D02*
X25600Y48500D01*
X25766D01*
X25850Y48417D01*
Y48333D01*
X25766Y48250D01*
X25683D01*
X25766D01*
X25850Y48167D01*
Y48083D01*
X25766Y48000D01*
X25600D01*
X25516Y48083D01*
X32500Y22000D02*
X32667D01*
X32583D01*
Y21500D01*
X32500D01*
X32667D01*
X33250Y21917D02*
X33166Y22000D01*
X33000D01*
X32917Y21917D01*
Y21583D01*
X33000Y21500D01*
X33166D01*
X33250Y21583D01*
X33416Y21500D02*
X33583D01*
X33500D01*
Y22000D01*
X33416Y21917D01*
X55100Y6000D02*
Y5500D01*
Y5750D01*
X55433D01*
Y6000D01*
Y5500D01*
X55933Y6000D02*
X55766Y5917D01*
X55600Y5750D01*
Y5583D01*
X55683Y5500D01*
X55850D01*
X55933Y5583D01*
Y5667D01*
X55850Y5750D01*
X55600D01*
X8000Y47000D02*
Y46500D01*
Y46750D01*
X8333D01*
Y47000D01*
Y46500D01*
X8833Y47000D02*
X8500D01*
Y46750D01*
X8666Y46833D01*
X8750D01*
X8833Y46750D01*
Y46583D01*
X8750Y46500D01*
X8583D01*
X8500Y46583D01*
X8000Y32100D02*
Y31600D01*
Y31850D01*
X8333D01*
Y32100D01*
Y31600D01*
X8750D02*
Y32100D01*
X8500Y31850D01*
X8833D01*
X8100Y38600D02*
Y38100D01*
Y38350D01*
X8433D01*
Y38600D01*
Y38100D01*
X8600Y38517D02*
X8683Y38600D01*
X8850D01*
X8933Y38517D01*
Y38433D01*
X8850Y38350D01*
X8766D01*
X8850D01*
X8933Y38267D01*
Y38183D01*
X8850Y38100D01*
X8683D01*
X8600Y38183D01*
X55200Y26500D02*
Y26000D01*
Y26250D01*
X55533D01*
Y26500D01*
Y26000D01*
X56033D02*
X55700D01*
X56033Y26333D01*
Y26417D01*
X55950Y26500D01*
X55783D01*
X55700Y26417D01*
X55300Y15000D02*
Y14500D01*
Y14750D01*
X55633D01*
Y15000D01*
Y14500D01*
X55800D02*
X55966D01*
X55883D01*
Y15000D01*
X55800Y14917D01*
X46983Y8200D02*
X46650D01*
Y7950D01*
X46817D01*
X46650D01*
Y7700D01*
X47150D02*
X47316D01*
X47233D01*
Y8200D01*
X47150Y8117D01*
X6100Y15200D02*
Y14700D01*
X6350D01*
X6433Y14783D01*
Y15117D01*
X6350Y15200D01*
X6100D01*
X6600D02*
Y14700D01*
X6933D01*
X7100D02*
X7266D01*
X7183D01*
Y15200D01*
X7100Y15117D01*
X46400Y4600D02*
Y4100D01*
X46650D01*
X46733Y4183D01*
Y4517D01*
X46650Y4600D01*
X46400D01*
X46900Y4100D02*
X47066D01*
X46983D01*
Y4600D01*
X46900Y4517D01*
X51733Y4617D02*
X51650Y4700D01*
X51483D01*
X51400Y4617D01*
Y4283D01*
X51483Y4200D01*
X51650D01*
X51733Y4283D01*
X51900Y4200D02*
X52066D01*
X51983D01*
Y4700D01*
X51900Y4617D01*
X52566Y4200D02*
Y4700D01*
X52316Y4450D01*
X52650D01*
X42983Y13633D02*
X42900Y13550D01*
Y13383D01*
X42983Y13300D01*
X43317D01*
X43400Y13383D01*
Y13550D01*
X43317Y13633D01*
X43400Y13800D02*
Y13966D01*
Y13883D01*
X42900D01*
X42983Y13800D01*
X43400Y14550D02*
Y14216D01*
X43067Y14550D01*
X42983D01*
X42900Y14466D01*
Y14300D01*
X42983Y14216D01*
X40133Y48717D02*
X40050Y48800D01*
X39883D01*
X39800Y48717D01*
Y48383D01*
X39883Y48300D01*
X40050D01*
X40133Y48383D01*
X40633Y48300D02*
X40300D01*
X40633Y48633D01*
Y48717D01*
X40550Y48800D01*
X40383D01*
X40300Y48717D01*
X34033Y51517D02*
X33950Y51600D01*
X33783D01*
X33700Y51517D01*
Y51183D01*
X33783Y51100D01*
X33950D01*
X34033Y51183D01*
X34200Y51100D02*
X34366D01*
X34283D01*
Y51600D01*
X34200Y51517D01*
X34616D02*
X34700Y51600D01*
X34866D01*
X34950Y51517D01*
Y51433D01*
X34866Y51350D01*
X34783D01*
X34866D01*
X34950Y51267D01*
Y51183D01*
X34866Y51100D01*
X34700D01*
X34616Y51183D01*
X37933Y38517D02*
X37850Y38600D01*
X37683D01*
X37600Y38517D01*
Y38183D01*
X37683Y38100D01*
X37850D01*
X37933Y38183D01*
X38100Y38100D02*
X38266D01*
X38183D01*
Y38600D01*
X38100Y38517D01*
X38516Y38100D02*
X38683D01*
X38600D01*
Y38600D01*
X38516Y38517D01*
X23133Y40617D02*
X23050Y40700D01*
X22883D01*
X22800Y40617D01*
Y40283D01*
X22883Y40200D01*
X23050D01*
X23133Y40283D01*
X23300Y40200D02*
X23466D01*
X23383D01*
Y40700D01*
X23300Y40617D01*
X23716D02*
X23800Y40700D01*
X23966D01*
X24050Y40617D01*
Y40283D01*
X23966Y40200D01*
X23800D01*
X23716Y40283D01*
Y40617D01*
X28583Y5833D02*
X28500Y5750D01*
Y5583D01*
X28583Y5500D01*
X28917D01*
X29000Y5583D01*
Y5750D01*
X28917Y5833D01*
X28500Y6000D02*
Y6333D01*
X28583D01*
X28917Y6000D01*
X29000D01*
X1133Y13317D02*
X1050Y13400D01*
X883D01*
X800Y13317D01*
Y12983D01*
X883Y12900D01*
X1050D01*
X1133Y12983D01*
X1633Y13400D02*
X1466Y13317D01*
X1300Y13150D01*
Y12983D01*
X1383Y12900D01*
X1550D01*
X1633Y12983D01*
Y13067D01*
X1550Y13150D01*
X1300D01*
X6833Y7117D02*
X6750Y7200D01*
X6583D01*
X6500Y7117D01*
Y6783D01*
X6583Y6700D01*
X6750D01*
X6833Y6783D01*
X7333Y7200D02*
X7000D01*
Y6950D01*
X7166Y7033D01*
X7250D01*
X7333Y6950D01*
Y6783D01*
X7250Y6700D01*
X7083D01*
X7000Y6783D01*
X41983Y27233D02*
X41900Y27150D01*
Y26983D01*
X41983Y26900D01*
X42317D01*
X42400Y26983D01*
Y27150D01*
X42317Y27233D01*
X41983Y27400D02*
X41900Y27483D01*
Y27650D01*
X41983Y27733D01*
X42067D01*
X42150Y27650D01*
X42233Y27733D01*
X42317D01*
X42400Y27650D01*
Y27483D01*
X42317Y27400D01*
X42233D01*
X42150Y27483D01*
X42067Y27400D01*
X41983D01*
X42150Y27483D02*
Y27650D01*
X12033Y7317D02*
X11950Y7400D01*
X11783D01*
X11700Y7317D01*
Y6983D01*
X11783Y6900D01*
X11950D01*
X12033Y6983D01*
X12200Y7317D02*
X12283Y7400D01*
X12450D01*
X12533Y7317D01*
Y7233D01*
X12450Y7150D01*
X12366D01*
X12450D01*
X12533Y7067D01*
Y6983D01*
X12450Y6900D01*
X12283D01*
X12200Y6983D01*
X32633Y9217D02*
X32550Y9300D01*
X32383D01*
X32300Y9217D01*
Y8883D01*
X32383Y8800D01*
X32550D01*
X32633Y8883D01*
X32800Y8800D02*
X32966D01*
X32883D01*
Y9300D01*
X32800Y9217D01*
D15*
X1125Y43200D02*
X1760D01*
X1125Y45575D02*
X1760D01*
Y43200D02*
Y45575D01*
X1125Y41930D02*
Y47050D01*
X7475Y41930D02*
Y47050D01*
X6840Y37240D02*
X7475D01*
X6840Y34865D02*
X7475D01*
X6840D02*
Y37240D01*
X7475Y33390D02*
Y38510D01*
X1125Y33390D02*
Y38510D01*
X1025Y28200D02*
X1660D01*
X1025Y30575D02*
X1660D01*
Y28200D02*
Y30575D01*
X1025Y26930D02*
Y32050D01*
X7375Y26930D02*
Y32050D01*
X62975Y7390D02*
Y8025D01*
X62340Y8660D02*
Y13740D01*
X62975D01*
X56625Y7390D02*
Y15010D01*
X62975Y7390D02*
Y15010D01*
X62340Y8660D02*
X62975D01*
X62340Y17800D02*
X62975D01*
Y16530D02*
Y26690D01*
X56625Y16530D02*
Y26690D01*
X62340Y25420D02*
X62975D01*
X62340Y17800D02*
Y25420D01*
X62440Y4640D02*
X63075D01*
X62440Y2265D02*
X63075D01*
X62440D02*
Y4640D01*
X63075Y790D02*
Y5910D01*
X56725Y790D02*
Y5910D01*
D16*
X1125Y41930D02*
X2980D01*
X1125Y47050D02*
X2950D01*
X5450D02*
X7475D01*
X5470Y41930D02*
X7475D01*
X5620Y38510D02*
X7475D01*
X5650Y33390D02*
X7475D01*
X1125D02*
X3150D01*
X1125Y38510D02*
X3130D01*
X1025Y26930D02*
X2880D01*
X1025Y32050D02*
X2850D01*
X5350D02*
X7375D01*
X5370Y26930D02*
X7375D01*
X60980Y15010D02*
X62975D01*
X56625D02*
X58670D01*
X60950Y7390D02*
X62975D01*
X56625D02*
X58650D01*
X60970Y26690D02*
X62975D01*
X56625D02*
X58630D01*
X60990Y16530D02*
X62975D01*
X56625D02*
X58590D01*
X61220Y5910D02*
X63075D01*
X61250Y790D02*
X63075D01*
X56725D02*
X58750D01*
X56725Y5910D02*
X58730D01*
M02*
